G04 start of page 4 for group 2 idx 2 *
G04 Title: uhx1_board, GND *
G04 Creator: pcb 20110918 *
G04 CreationDate: Sat 25 May 2013 03:30:16 PM GMT UTC *
G04 For: alpsayin *
G04 Format: Gerber/RS-274X *
G04 PCB-Dimensions: 472441 385827 *
G04 PCB-Coordinate-Origin: lower left *
%MOIN*%
%FSLAX25Y25*%
%LNGROUP2*%
%ADD61C,0.0358*%
%ADD60C,0.0793*%
%ADD59C,0.0450*%
%ADD58C,0.0630*%
%ADD57C,0.0300*%
%ADD56C,0.0634*%
%ADD55C,0.0398*%
%ADD54C,0.0380*%
%ADD53C,0.0472*%
%ADD52C,0.0833*%
%ADD51C,0.1417*%
%ADD50C,0.0600*%
%ADD49C,0.0674*%
%ADD48C,0.0488*%
%ADD47C,0.0001*%
%ADD46C,0.0700*%
G54D46*X29520Y224451D03*
X82656Y245939D03*
G54D47*G36*
X79156Y269439D02*Y262439D01*
X86156D01*
Y269439D01*
X79156D01*
G37*
G54D46*X82656Y255939D03*
X61000Y248827D03*
Y258827D03*
X29520Y275299D03*
Y285299D03*
Y295299D03*
G54D48*X16299Y317372D03*
X43465Y316978D03*
G54D49*X18661Y327215D03*
X42283D03*
G54D48*X50551Y335679D03*
G54D47*G36*
X26020Y248799D02*Y241799D01*
X33020D01*
Y248799D01*
X26020D01*
G37*
G54D46*X29520Y255299D03*
Y265299D03*
G54D50*X100368Y320883D03*
G54D51*X102278Y83664D03*
X112121Y44294D03*
X121964Y83664D03*
G54D46*X141103Y244990D03*
Y234990D03*
Y224990D03*
Y214990D03*
Y204990D03*
Y194990D03*
Y184990D03*
Y174990D03*
Y164990D03*
Y154990D03*
Y144990D03*
G54D47*G36*
X87368Y323883D02*Y317883D01*
X93368D01*
Y323883D01*
X87368D01*
G37*
G54D51*X139511Y320091D03*
X159197D03*
G54D47*G36*
X242500Y304703D02*Y297703D01*
X249500D01*
Y304703D01*
X242500D01*
G37*
G36*
X287764D02*Y297703D01*
X294764D01*
Y304703D01*
X287764D01*
G37*
G36*
X193286D02*Y297703D01*
X200286D01*
Y304703D01*
X193286D01*
G37*
G54D51*X149354Y280721D03*
G54D46*X381103Y224990D03*
G54D47*G36*
X323188Y304703D02*Y297703D01*
X330188D01*
Y304703D01*
X323188D01*
G37*
G54D46*X381103Y214990D03*
Y204990D03*
Y194990D03*
Y184990D03*
Y174990D03*
G54D48*X16299Y32465D03*
X43465Y32071D03*
G54D49*X18661Y42308D03*
X42283D03*
G54D46*X17000Y78827D03*
Y68827D03*
G54D48*X50551Y50772D03*
G54D52*X42335Y104759D03*
Y144759D03*
G54D53*X62335Y114759D03*
Y124759D03*
G54D47*G36*
X85560Y168411D02*Y162411D01*
X91560D01*
Y168411D01*
X85560D01*
G37*
G54D50*X88560Y155411D03*
G54D47*G36*
X26020Y177951D02*Y170951D01*
X33020D01*
Y177951D01*
X26020D01*
G37*
G54D46*X29520Y184451D03*
Y194451D03*
Y204451D03*
Y214451D03*
X67000Y178827D03*
Y188827D03*
X362500Y301327D03*
X392000D03*
G54D54*G54D55*G54D56*G54D55*G54D54*G54D57*G54D58*G54D59*G54D57*G54D58*G54D54*G54D58*G54D59*G54D54*G54D59*G54D55*G54D56*G54D54*G54D55*G54D60*G54D61*G54D57*G54D54*M02*
