G04 start of page 2 for group 0 idx 0 *
G04 Title: uhx1_board, component *
G04 Creator: pcb 20110918 *
G04 CreationDate: Thu Mar 28 17:04:58 2013 UTC *
G04 For: alpsayin *
G04 Format: Gerber/RS-274X *
G04 PCB-Dimensions: 472441 385827 *
G04 PCB-Coordinate-Origin: lower left *
%MOIN*%
%FSLAX25Y25*%
%LNTOP*%
%ADD27C,0.0358*%
%ADD26C,0.0793*%
%ADD25C,0.0450*%
%ADD24C,0.0630*%
%ADD23C,0.0300*%
%ADD22C,0.0634*%
%ADD21C,0.0398*%
%ADD20C,0.0380*%
%ADD19C,0.0472*%
%ADD18C,0.0833*%
%ADD17C,0.1417*%
%ADD16C,0.0600*%
%ADD15C,0.0674*%
%ADD14C,0.0488*%
%ADD13C,0.0700*%
%ADD12C,0.0150*%
%ADD11C,0.0001*%
G54D11*G36*
X396051Y383859D02*X470352D01*
Y2067D01*
X396051D01*
Y298821D01*
X396119Y298840D01*
X396226Y298889D01*
X396324Y298955D01*
X396411Y299035D01*
X396484Y299128D01*
X396540Y299231D01*
X396725Y299675D01*
X396862Y300136D01*
X396954Y300608D01*
X397000Y301087D01*
Y301567D01*
X396954Y302046D01*
X396862Y302518D01*
X396725Y302979D01*
X396545Y303425D01*
X396487Y303529D01*
X396414Y303622D01*
X396327Y303702D01*
X396228Y303768D01*
X396120Y303818D01*
X396051Y303837D01*
Y383859D01*
G37*
G36*
X392002D02*X396051D01*
Y303837D01*
X396006Y303850D01*
X395888Y303864D01*
X395769Y303859D01*
X395653Y303836D01*
X395542Y303795D01*
X395438Y303737D01*
X395345Y303663D01*
X395265Y303576D01*
X395199Y303477D01*
X395149Y303370D01*
X395117Y303255D01*
X395103Y303138D01*
X395108Y303019D01*
X395131Y302903D01*
X395174Y302792D01*
X395304Y302482D01*
X395399Y302160D01*
X395464Y301830D01*
X395496Y301495D01*
Y301159D01*
X395464Y300824D01*
X395399Y300494D01*
X395304Y300172D01*
X395178Y299860D01*
X395135Y299750D01*
X395112Y299635D01*
X395107Y299517D01*
X395121Y299399D01*
X395153Y299286D01*
X395202Y299179D01*
X395268Y299080D01*
X395348Y298994D01*
X395440Y298920D01*
X395543Y298863D01*
X395654Y298822D01*
X395770Y298799D01*
X395888Y298794D01*
X396005Y298808D01*
X396051Y298821D01*
Y2067D01*
X392002D01*
Y296327D01*
X392240D01*
X392719Y296373D01*
X393191Y296465D01*
X393652Y296602D01*
X394098Y296782D01*
X394202Y296840D01*
X394295Y296913D01*
X394375Y297000D01*
X394441Y297099D01*
X394491Y297207D01*
X394523Y297321D01*
X394537Y297439D01*
X394532Y297558D01*
X394509Y297674D01*
X394468Y297785D01*
X394410Y297889D01*
X394336Y297982D01*
X394249Y298062D01*
X394150Y298128D01*
X394043Y298178D01*
X393928Y298210D01*
X393811Y298224D01*
X393692Y298219D01*
X393576Y298196D01*
X393465Y298153D01*
X393155Y298023D01*
X392833Y297928D01*
X392503Y297863D01*
X392168Y297831D01*
X392002D01*
Y304823D01*
X392168D01*
X392503Y304791D01*
X392833Y304726D01*
X393155Y304631D01*
X393467Y304505D01*
X393577Y304462D01*
X393692Y304439D01*
X393810Y304434D01*
X393928Y304448D01*
X394041Y304480D01*
X394148Y304529D01*
X394247Y304595D01*
X394333Y304675D01*
X394407Y304767D01*
X394464Y304870D01*
X394505Y304981D01*
X394528Y305097D01*
X394533Y305215D01*
X394519Y305332D01*
X394487Y305446D01*
X394438Y305553D01*
X394372Y305651D01*
X394292Y305738D01*
X394199Y305811D01*
X394096Y305867D01*
X393652Y306052D01*
X393191Y306189D01*
X392719Y306281D01*
X392240Y306327D01*
X392002D01*
Y383859D01*
G37*
G36*
X387949D02*X392002D01*
Y306327D01*
X391760D01*
X391281Y306281D01*
X390809Y306189D01*
X390348Y306052D01*
X389902Y305872D01*
X389798Y305814D01*
X389705Y305741D01*
X389625Y305654D01*
X389559Y305555D01*
X389509Y305447D01*
X389477Y305333D01*
X389463Y305215D01*
X389468Y305096D01*
X389491Y304980D01*
X389532Y304869D01*
X389590Y304765D01*
X389664Y304672D01*
X389751Y304592D01*
X389850Y304526D01*
X389957Y304476D01*
X390072Y304444D01*
X390189Y304430D01*
X390308Y304435D01*
X390424Y304458D01*
X390535Y304501D01*
X390845Y304631D01*
X391167Y304726D01*
X391497Y304791D01*
X391832Y304823D01*
X392002D01*
Y297831D01*
X391832D01*
X391497Y297863D01*
X391167Y297928D01*
X390845Y298023D01*
X390533Y298149D01*
X390423Y298192D01*
X390308Y298215D01*
X390190Y298220D01*
X390072Y298206D01*
X389959Y298174D01*
X389852Y298125D01*
X389753Y298059D01*
X389667Y297979D01*
X389593Y297887D01*
X389536Y297784D01*
X389495Y297673D01*
X389472Y297557D01*
X389467Y297439D01*
X389481Y297322D01*
X389513Y297208D01*
X389562Y297101D01*
X389628Y297003D01*
X389708Y296916D01*
X389801Y296843D01*
X389904Y296787D01*
X390348Y296602D01*
X390809Y296465D01*
X391281Y296373D01*
X391760Y296327D01*
X392002D01*
Y2067D01*
X387949D01*
Y298817D01*
X387994Y298804D01*
X388112Y298790D01*
X388231Y298795D01*
X388347Y298818D01*
X388458Y298859D01*
X388562Y298917D01*
X388655Y298991D01*
X388735Y299078D01*
X388801Y299177D01*
X388851Y299284D01*
X388883Y299399D01*
X388897Y299516D01*
X388892Y299635D01*
X388869Y299751D01*
X388826Y299862D01*
X388696Y300172D01*
X388601Y300494D01*
X388536Y300824D01*
X388504Y301159D01*
Y301495D01*
X388536Y301830D01*
X388601Y302160D01*
X388696Y302482D01*
X388822Y302794D01*
X388865Y302904D01*
X388888Y303019D01*
X388893Y303137D01*
X388879Y303255D01*
X388847Y303368D01*
X388798Y303475D01*
X388732Y303574D01*
X388652Y303660D01*
X388560Y303734D01*
X388457Y303791D01*
X388346Y303832D01*
X388230Y303855D01*
X388112Y303860D01*
X387995Y303846D01*
X387949Y303833D01*
Y383859D01*
G37*
G36*
X384823D02*X387949D01*
Y303833D01*
X387881Y303814D01*
X387774Y303765D01*
X387676Y303699D01*
X387589Y303619D01*
X387516Y303526D01*
X387460Y303423D01*
X387275Y302979D01*
X387138Y302518D01*
X387046Y302046D01*
X387000Y301567D01*
Y301087D01*
X387046Y300608D01*
X387138Y300136D01*
X387275Y299675D01*
X387455Y299229D01*
X387513Y299125D01*
X387586Y299032D01*
X387673Y298952D01*
X387772Y298886D01*
X387880Y298836D01*
X387949Y298817D01*
Y2067D01*
X384823D01*
Y182449D01*
X385125Y182941D01*
X385252Y183247D01*
X385324Y183416D01*
X385330Y183435D01*
X385396Y183595D01*
X385438Y183771D01*
X385447Y183799D01*
X385486Y183969D01*
X385561Y184284D01*
X385571Y184453D01*
X385590Y184589D01*
X385607Y184990D01*
X385590Y185391D01*
X385571Y185527D01*
X385561Y185696D01*
X385486Y186011D01*
X385447Y186181D01*
X385438Y186209D01*
X385396Y186385D01*
X385330Y186545D01*
X385324Y186564D01*
X385251Y186734D01*
X385125Y187039D01*
X385009Y187228D01*
X384977Y187288D01*
X384937Y187346D01*
X384823Y187531D01*
Y192534D01*
X384874Y192573D01*
X384929Y192629D01*
X384973Y192694D01*
X385167Y193046D01*
X385324Y193416D01*
X385447Y193799D01*
X385536Y194190D01*
X385590Y194589D01*
X385607Y194990D01*
X385590Y195391D01*
X385536Y195790D01*
X385447Y196181D01*
X385324Y196564D01*
X385167Y196934D01*
X384977Y197288D01*
X384932Y197353D01*
X384877Y197410D01*
X384823Y197450D01*
Y202534D01*
X384874Y202573D01*
X384929Y202629D01*
X384973Y202694D01*
X385167Y203046D01*
X385324Y203416D01*
X385447Y203799D01*
X385536Y204190D01*
X385590Y204589D01*
X385607Y204990D01*
X385590Y205391D01*
X385536Y205790D01*
X385447Y206181D01*
X385324Y206564D01*
X385167Y206934D01*
X384977Y207288D01*
X384932Y207353D01*
X384877Y207410D01*
X384823Y207450D01*
Y212449D01*
X385125Y212941D01*
X385396Y213595D01*
X385561Y214284D01*
X385603Y214990D01*
X385561Y215696D01*
X385396Y216385D01*
X385125Y217039D01*
X384823Y217531D01*
Y222534D01*
X384874Y222573D01*
X384929Y222629D01*
X384973Y222694D01*
X385167Y223046D01*
X385324Y223416D01*
X385447Y223799D01*
X385536Y224190D01*
X385590Y224589D01*
X385607Y224990D01*
X385590Y225391D01*
X385536Y225790D01*
X385447Y226181D01*
X385324Y226564D01*
X385167Y226934D01*
X384977Y227288D01*
X384932Y227353D01*
X384877Y227410D01*
X384823Y227450D01*
Y383859D01*
G37*
G36*
Y187531D02*X384755Y187643D01*
X384295Y188182D01*
X383756Y188642D01*
X383152Y189012D01*
X382847Y189138D01*
X382677Y189211D01*
X382657Y189217D01*
X382498Y189283D01*
X382322Y189325D01*
X382294Y189334D01*
X382124Y189373D01*
X381809Y189448D01*
X381581Y189466D01*
X381504Y189477D01*
X381379Y189482D01*
X381105Y189504D01*
Y190486D01*
X381504Y190503D01*
X381903Y190557D01*
X382294Y190646D01*
X382677Y190769D01*
X383047Y190926D01*
X383401Y191116D01*
X383466Y191161D01*
X383523Y191216D01*
X383571Y191280D01*
X383607Y191350D01*
X383633Y191425D01*
X383647Y191503D01*
X383648Y191582D01*
X383636Y191661D01*
X383613Y191736D01*
X383578Y191807D01*
X383532Y191872D01*
X383477Y191929D01*
X383414Y191977D01*
X383344Y192014D01*
X383269Y192039D01*
X383191Y192053D01*
X383111Y192054D01*
X383033Y192042D01*
X382957Y192019D01*
X382887Y191983D01*
X382613Y191833D01*
X382326Y191711D01*
X382029Y191615D01*
X381724Y191546D01*
X381415Y191504D01*
X381105Y191490D01*
Y198490D01*
X381415Y198476D01*
X381724Y198434D01*
X382029Y198365D01*
X382326Y198269D01*
X382613Y198147D01*
X382889Y198000D01*
X382958Y197964D01*
X383034Y197941D01*
X383112Y197930D01*
X383190Y197931D01*
X383268Y197944D01*
X383342Y197970D01*
X383412Y198006D01*
X383475Y198054D01*
X383530Y198110D01*
X383575Y198174D01*
X383610Y198245D01*
X383633Y198320D01*
X383644Y198398D01*
X383643Y198477D01*
X383630Y198554D01*
X383604Y198629D01*
X383568Y198698D01*
X383520Y198761D01*
X383464Y198816D01*
X383399Y198860D01*
X383047Y199054D01*
X382677Y199211D01*
X382294Y199334D01*
X381903Y199423D01*
X381504Y199477D01*
X381105Y199494D01*
Y200486D01*
X381504Y200503D01*
X381903Y200557D01*
X382294Y200646D01*
X382677Y200769D01*
X383047Y200926D01*
X383401Y201116D01*
X383466Y201161D01*
X383523Y201216D01*
X383571Y201280D01*
X383607Y201350D01*
X383633Y201425D01*
X383647Y201503D01*
X383648Y201582D01*
X383636Y201661D01*
X383613Y201736D01*
X383578Y201807D01*
X383532Y201872D01*
X383477Y201929D01*
X383414Y201977D01*
X383344Y202014D01*
X383269Y202039D01*
X383191Y202053D01*
X383111Y202054D01*
X383033Y202042D01*
X382957Y202019D01*
X382887Y201983D01*
X382613Y201833D01*
X382326Y201711D01*
X382029Y201615D01*
X381724Y201546D01*
X381415Y201504D01*
X381105Y201490D01*
Y202590D01*
X381201Y202531D01*
X381456Y202426D01*
X381723Y202361D01*
X381998Y202340D01*
X382273Y202361D01*
X382540Y202426D01*
X382795Y202531D01*
X383030Y202675D01*
X383239Y202854D01*
X383418Y203063D01*
X383562Y203298D01*
X383667Y203553D01*
X383732Y203820D01*
X383753Y204095D01*
X383732Y204370D01*
X383667Y204637D01*
X383562Y204892D01*
X383418Y205127D01*
X383235Y205332D01*
X382340Y206227D01*
X382135Y206410D01*
X381900Y206554D01*
X381645Y206659D01*
X381378Y206724D01*
X381105Y206745D01*
Y208490D01*
X381415Y208476D01*
X381724Y208434D01*
X382029Y208365D01*
X382326Y208269D01*
X382613Y208147D01*
X382889Y208000D01*
X382958Y207964D01*
X383034Y207941D01*
X383112Y207930D01*
X383190Y207931D01*
X383268Y207944D01*
X383342Y207970D01*
X383412Y208006D01*
X383475Y208054D01*
X383530Y208110D01*
X383575Y208174D01*
X383610Y208245D01*
X383633Y208320D01*
X383644Y208398D01*
X383643Y208477D01*
X383630Y208554D01*
X383604Y208629D01*
X383568Y208698D01*
X383520Y208761D01*
X383464Y208816D01*
X383399Y208860D01*
X383047Y209054D01*
X382677Y209211D01*
X382294Y209334D01*
X381903Y209423D01*
X381504Y209477D01*
X381105Y209494D01*
Y210476D01*
X381809Y210532D01*
X382498Y210697D01*
X383152Y210968D01*
X383756Y211338D01*
X384295Y211798D01*
X384755Y212337D01*
X384823Y212449D01*
Y207450D01*
X384813Y207458D01*
X384743Y207495D01*
X384668Y207520D01*
X384590Y207534D01*
X384511Y207535D01*
X384432Y207523D01*
X384357Y207500D01*
X384286Y207465D01*
X384221Y207419D01*
X384164Y207364D01*
X384116Y207301D01*
X384079Y207231D01*
X384054Y207156D01*
X384040Y207078D01*
X384039Y206998D01*
X384051Y206920D01*
X384074Y206844D01*
X384110Y206774D01*
X384260Y206500D01*
X384382Y206213D01*
X384478Y205916D01*
X384547Y205611D01*
X384589Y205302D01*
X384603Y204990D01*
X384589Y204678D01*
X384547Y204369D01*
X384478Y204064D01*
X384382Y203767D01*
X384260Y203480D01*
X384113Y203204D01*
X384077Y203135D01*
X384054Y203059D01*
X384043Y202981D01*
X384044Y202903D01*
X384057Y202825D01*
X384083Y202751D01*
X384119Y202681D01*
X384167Y202618D01*
X384223Y202563D01*
X384287Y202518D01*
X384358Y202483D01*
X384433Y202460D01*
X384511Y202449D01*
X384590Y202450D01*
X384667Y202463D01*
X384742Y202489D01*
X384811Y202525D01*
X384823Y202534D01*
Y197450D01*
X384813Y197458D01*
X384743Y197494D01*
X384668Y197520D01*
X384590Y197534D01*
X384511Y197535D01*
X384432Y197523D01*
X384357Y197500D01*
X384286Y197465D01*
X384221Y197419D01*
X384164Y197364D01*
X384116Y197301D01*
X384079Y197231D01*
X384054Y197156D01*
X384040Y197078D01*
X384039Y196998D01*
X384051Y196920D01*
X384074Y196844D01*
X384110Y196774D01*
X384260Y196500D01*
X384382Y196213D01*
X384478Y195916D01*
X384547Y195611D01*
X384589Y195302D01*
X384603Y194990D01*
X384589Y194678D01*
X384547Y194369D01*
X384478Y194064D01*
X384382Y193767D01*
X384260Y193480D01*
X384113Y193204D01*
X384077Y193135D01*
X384054Y193059D01*
X384043Y192981D01*
X384044Y192903D01*
X384057Y192825D01*
X384083Y192751D01*
X384119Y192681D01*
X384167Y192618D01*
X384223Y192563D01*
X384287Y192518D01*
X384358Y192483D01*
X384433Y192460D01*
X384511Y192449D01*
X384590Y192450D01*
X384667Y192463D01*
X384742Y192489D01*
X384811Y192525D01*
X384823Y192534D01*
Y187531D01*
G37*
G36*
Y2067D02*X381105D01*
Y180476D01*
X381379Y180498D01*
X381504Y180503D01*
X381581Y180514D01*
X381809Y180532D01*
X382124Y180607D01*
X382294Y180646D01*
X382322Y180655D01*
X382498Y180697D01*
X382658Y180763D01*
X382677Y180769D01*
X382847Y180841D01*
X383152Y180968D01*
X383341Y181084D01*
X383401Y181116D01*
X383459Y181156D01*
X383756Y181338D01*
X384295Y181798D01*
X384755Y182337D01*
X384823Y182449D01*
Y2067D01*
G37*
G36*
X381105Y383859D02*X384823D01*
Y227450D01*
X384813Y227458D01*
X384743Y227495D01*
X384668Y227520D01*
X384590Y227534D01*
X384511Y227535D01*
X384432Y227523D01*
X384357Y227500D01*
X384286Y227465D01*
X384221Y227419D01*
X384164Y227364D01*
X384116Y227301D01*
X384079Y227231D01*
X384054Y227156D01*
X384040Y227078D01*
X384039Y226998D01*
X384051Y226920D01*
X384074Y226844D01*
X384110Y226774D01*
X384260Y226500D01*
X384382Y226213D01*
X384478Y225916D01*
X384547Y225611D01*
X384589Y225302D01*
X384603Y224990D01*
X384589Y224678D01*
X384547Y224369D01*
X384478Y224064D01*
X384382Y223767D01*
X384260Y223480D01*
X384113Y223204D01*
X384077Y223135D01*
X384054Y223059D01*
X384043Y222981D01*
X384044Y222903D01*
X384057Y222825D01*
X384083Y222751D01*
X384119Y222681D01*
X384167Y222618D01*
X384223Y222563D01*
X384287Y222518D01*
X384358Y222483D01*
X384433Y222460D01*
X384511Y222449D01*
X384590Y222450D01*
X384667Y222463D01*
X384742Y222489D01*
X384811Y222525D01*
X384823Y222534D01*
Y217531D01*
X384755Y217643D01*
X384295Y218182D01*
X383756Y218642D01*
X383152Y219012D01*
X382498Y219283D01*
X381809Y219448D01*
X381105Y219504D01*
Y220486D01*
X381504Y220503D01*
X381903Y220557D01*
X382294Y220646D01*
X382677Y220769D01*
X383047Y220926D01*
X383401Y221116D01*
X383466Y221161D01*
X383523Y221216D01*
X383571Y221280D01*
X383607Y221350D01*
X383633Y221425D01*
X383647Y221503D01*
X383648Y221582D01*
X383636Y221661D01*
X383613Y221736D01*
X383578Y221807D01*
X383532Y221872D01*
X383477Y221929D01*
X383414Y221977D01*
X383344Y222014D01*
X383269Y222039D01*
X383191Y222053D01*
X383111Y222054D01*
X383033Y222042D01*
X382957Y222019D01*
X382887Y221983D01*
X382613Y221833D01*
X382326Y221711D01*
X382029Y221615D01*
X381724Y221546D01*
X381415Y221504D01*
X381105Y221490D01*
Y228490D01*
X381415Y228476D01*
X381724Y228434D01*
X382029Y228365D01*
X382326Y228269D01*
X382613Y228147D01*
X382889Y228000D01*
X382958Y227964D01*
X383034Y227941D01*
X383112Y227930D01*
X383190Y227931D01*
X383268Y227944D01*
X383342Y227970D01*
X383412Y228006D01*
X383475Y228054D01*
X383530Y228110D01*
X383575Y228174D01*
X383610Y228245D01*
X383633Y228320D01*
X383644Y228398D01*
X383643Y228477D01*
X383630Y228554D01*
X383604Y228629D01*
X383568Y228698D01*
X383520Y228761D01*
X383464Y228816D01*
X383399Y228860D01*
X383047Y229054D01*
X382677Y229211D01*
X382294Y229334D01*
X381903Y229423D01*
X381504Y229477D01*
X381105Y229494D01*
Y383859D01*
G37*
G36*
X377383Y182449D02*X377451Y182337D01*
X377911Y181798D01*
X378450Y181338D01*
X379054Y180968D01*
X379359Y180842D01*
X379529Y180769D01*
X379548Y180763D01*
X379708Y180697D01*
X379884Y180655D01*
X379912Y180646D01*
X380082Y180607D01*
X380397Y180532D01*
X380625Y180514D01*
X380702Y180503D01*
X380827Y180498D01*
X381103Y180476D01*
X381105Y180476D01*
Y2067D01*
X377383D01*
Y182449D01*
G37*
G36*
Y212449D02*X377451Y212337D01*
X377911Y211798D01*
X378450Y211338D01*
X379054Y210968D01*
X379708Y210697D01*
X380397Y210532D01*
X381103Y210476D01*
X381105Y210476D01*
Y209494D01*
X381103Y209494D01*
X380702Y209477D01*
X380303Y209423D01*
X379912Y209334D01*
X379529Y209211D01*
X379159Y209054D01*
X378805Y208864D01*
X378740Y208819D01*
X378683Y208764D01*
X378635Y208700D01*
X378598Y208630D01*
X378573Y208555D01*
X378559Y208477D01*
X378558Y208398D01*
X378570Y208319D01*
X378593Y208244D01*
X378628Y208173D01*
X378674Y208108D01*
X378729Y208051D01*
X378792Y208003D01*
X378862Y207966D01*
X378937Y207941D01*
X379015Y207927D01*
X379095Y207926D01*
X379173Y207938D01*
X379249Y207961D01*
X379319Y207997D01*
X379593Y208147D01*
X379880Y208269D01*
X380177Y208365D01*
X380482Y208434D01*
X380791Y208476D01*
X381103Y208490D01*
X381105Y208490D01*
Y206745D01*
X381103Y206745D01*
X380828Y206724D01*
X380561Y206659D01*
X380306Y206554D01*
X380071Y206410D01*
X379862Y206231D01*
X379683Y206022D01*
X379539Y205787D01*
X379434Y205532D01*
X379369Y205265D01*
X379348Y204990D01*
X379369Y204715D01*
X379434Y204448D01*
X379539Y204193D01*
X379683Y203958D01*
X379866Y203753D01*
X380761Y202858D01*
X380966Y202675D01*
X381105Y202590D01*
Y201490D01*
X381103Y201490D01*
X380791Y201504D01*
X380482Y201546D01*
X380177Y201615D01*
X379880Y201711D01*
X379593Y201833D01*
X379317Y201980D01*
X379248Y202016D01*
X379172Y202039D01*
X379094Y202050D01*
X379016Y202049D01*
X378938Y202036D01*
X378864Y202010D01*
X378794Y201974D01*
X378731Y201926D01*
X378676Y201870D01*
X378631Y201806D01*
X378596Y201735D01*
X378573Y201660D01*
X378562Y201582D01*
X378563Y201503D01*
X378576Y201426D01*
X378602Y201351D01*
X378638Y201282D01*
X378686Y201219D01*
X378742Y201164D01*
X378807Y201120D01*
X379159Y200926D01*
X379529Y200769D01*
X379912Y200646D01*
X380303Y200557D01*
X380702Y200503D01*
X381103Y200486D01*
X381105Y200486D01*
Y199494D01*
X381103Y199494D01*
X380702Y199477D01*
X380303Y199423D01*
X379912Y199334D01*
X379529Y199211D01*
X379159Y199054D01*
X378805Y198864D01*
X378740Y198819D01*
X378683Y198764D01*
X378635Y198700D01*
X378598Y198630D01*
X378573Y198555D01*
X378559Y198477D01*
X378558Y198398D01*
X378570Y198319D01*
X378593Y198244D01*
X378628Y198173D01*
X378674Y198108D01*
X378729Y198051D01*
X378792Y198003D01*
X378862Y197966D01*
X378937Y197941D01*
X379015Y197927D01*
X379095Y197926D01*
X379173Y197938D01*
X379249Y197961D01*
X379319Y197997D01*
X379593Y198147D01*
X379880Y198269D01*
X380177Y198365D01*
X380482Y198434D01*
X380791Y198476D01*
X381103Y198490D01*
X381105Y198490D01*
Y191490D01*
X381103Y191490D01*
X380791Y191504D01*
X380482Y191546D01*
X380177Y191615D01*
X379880Y191711D01*
X379593Y191833D01*
X379317Y191980D01*
X379248Y192016D01*
X379172Y192039D01*
X379094Y192050D01*
X379016Y192049D01*
X378938Y192036D01*
X378864Y192010D01*
X378794Y191974D01*
X378731Y191926D01*
X378676Y191870D01*
X378631Y191806D01*
X378596Y191735D01*
X378573Y191660D01*
X378562Y191582D01*
X378563Y191503D01*
X378576Y191426D01*
X378602Y191351D01*
X378638Y191282D01*
X378686Y191219D01*
X378742Y191164D01*
X378807Y191120D01*
X379159Y190926D01*
X379529Y190769D01*
X379912Y190646D01*
X380303Y190557D01*
X380702Y190503D01*
X381103Y190486D01*
X381105Y190486D01*
Y189504D01*
X381103Y189504D01*
X380827Y189482D01*
X380702Y189477D01*
X380625Y189466D01*
X380397Y189448D01*
X380083Y189373D01*
X379912Y189334D01*
X379884Y189325D01*
X379708Y189283D01*
X379549Y189217D01*
X379529Y189211D01*
X379359Y189138D01*
X379054Y189012D01*
X378865Y188897D01*
X378805Y188864D01*
X378747Y188824D01*
X378450Y188642D01*
X377911Y188182D01*
X377451Y187643D01*
X377383Y187531D01*
Y192530D01*
X377393Y192522D01*
X377463Y192486D01*
X377538Y192460D01*
X377616Y192446D01*
X377695Y192445D01*
X377774Y192457D01*
X377849Y192480D01*
X377920Y192515D01*
X377985Y192561D01*
X378042Y192616D01*
X378090Y192679D01*
X378126Y192749D01*
X378152Y192824D01*
X378166Y192902D01*
X378167Y192982D01*
X378155Y193060D01*
X378132Y193136D01*
X378096Y193206D01*
X377946Y193480D01*
X377824Y193767D01*
X377728Y194064D01*
X377659Y194369D01*
X377617Y194678D01*
X377603Y194990D01*
X377617Y195302D01*
X377659Y195611D01*
X377728Y195916D01*
X377824Y196213D01*
X377946Y196500D01*
X378093Y196776D01*
X378129Y196845D01*
X378152Y196921D01*
X378163Y196999D01*
X378162Y197077D01*
X378149Y197155D01*
X378123Y197229D01*
X378087Y197299D01*
X378039Y197362D01*
X377983Y197417D01*
X377919Y197462D01*
X377848Y197497D01*
X377773Y197520D01*
X377695Y197531D01*
X377616Y197530D01*
X377539Y197517D01*
X377464Y197491D01*
X377395Y197455D01*
X377383Y197446D01*
Y202530D01*
X377393Y202522D01*
X377463Y202486D01*
X377538Y202460D01*
X377616Y202446D01*
X377695Y202445D01*
X377774Y202457D01*
X377849Y202480D01*
X377920Y202515D01*
X377985Y202561D01*
X378042Y202616D01*
X378090Y202679D01*
X378126Y202749D01*
X378152Y202824D01*
X378166Y202902D01*
X378167Y202982D01*
X378155Y203060D01*
X378132Y203136D01*
X378096Y203206D01*
X377946Y203480D01*
X377824Y203767D01*
X377728Y204064D01*
X377659Y204369D01*
X377617Y204678D01*
X377603Y204990D01*
X377617Y205302D01*
X377659Y205611D01*
X377728Y205916D01*
X377824Y206213D01*
X377946Y206500D01*
X378093Y206776D01*
X378129Y206845D01*
X378152Y206921D01*
X378163Y206999D01*
X378162Y207077D01*
X378149Y207155D01*
X378123Y207229D01*
X378087Y207299D01*
X378039Y207362D01*
X377983Y207417D01*
X377919Y207462D01*
X377848Y207497D01*
X377773Y207520D01*
X377695Y207531D01*
X377616Y207530D01*
X377539Y207517D01*
X377464Y207491D01*
X377395Y207455D01*
X377383Y207446D01*
Y212449D01*
G37*
G36*
Y383859D02*X381105D01*
Y229494D01*
X381103Y229494D01*
X380702Y229477D01*
X380303Y229423D01*
X379912Y229334D01*
X379529Y229211D01*
X379159Y229054D01*
X378805Y228864D01*
X378740Y228819D01*
X378683Y228764D01*
X378635Y228700D01*
X378598Y228630D01*
X378573Y228555D01*
X378559Y228477D01*
X378558Y228398D01*
X378570Y228319D01*
X378593Y228244D01*
X378628Y228173D01*
X378674Y228108D01*
X378729Y228051D01*
X378792Y228003D01*
X378862Y227966D01*
X378937Y227941D01*
X379015Y227927D01*
X379095Y227926D01*
X379173Y227938D01*
X379249Y227961D01*
X379319Y227997D01*
X379593Y228147D01*
X379880Y228269D01*
X380177Y228365D01*
X380482Y228434D01*
X380791Y228476D01*
X381103Y228490D01*
X381105Y228490D01*
Y221490D01*
X381103Y221490D01*
X380791Y221504D01*
X380482Y221546D01*
X380177Y221615D01*
X379880Y221711D01*
X379593Y221833D01*
X379317Y221980D01*
X379248Y222016D01*
X379172Y222039D01*
X379094Y222050D01*
X379016Y222049D01*
X378938Y222036D01*
X378864Y222010D01*
X378794Y221974D01*
X378731Y221926D01*
X378676Y221870D01*
X378631Y221806D01*
X378596Y221735D01*
X378573Y221660D01*
X378562Y221582D01*
X378563Y221503D01*
X378576Y221426D01*
X378602Y221351D01*
X378638Y221282D01*
X378686Y221219D01*
X378742Y221164D01*
X378807Y221120D01*
X379159Y220926D01*
X379529Y220769D01*
X379912Y220646D01*
X380303Y220557D01*
X380702Y220503D01*
X381103Y220486D01*
X381105Y220486D01*
Y219504D01*
X381103Y219504D01*
X380397Y219448D01*
X379708Y219283D01*
X379054Y219012D01*
X378450Y218642D01*
X377911Y218182D01*
X377451Y217643D01*
X377383Y217531D01*
Y222530D01*
X377393Y222522D01*
X377463Y222486D01*
X377538Y222460D01*
X377616Y222446D01*
X377695Y222445D01*
X377774Y222457D01*
X377849Y222480D01*
X377920Y222515D01*
X377985Y222561D01*
X378042Y222616D01*
X378090Y222679D01*
X378126Y222749D01*
X378152Y222824D01*
X378166Y222902D01*
X378167Y222982D01*
X378155Y223060D01*
X378132Y223136D01*
X378096Y223206D01*
X377946Y223480D01*
X377824Y223767D01*
X377728Y224064D01*
X377659Y224369D01*
X377617Y224678D01*
X377603Y224990D01*
X377617Y225302D01*
X377659Y225611D01*
X377728Y225916D01*
X377824Y226213D01*
X377946Y226500D01*
X378093Y226776D01*
X378129Y226845D01*
X378152Y226921D01*
X378163Y226999D01*
X378162Y227077D01*
X378149Y227155D01*
X378123Y227229D01*
X378087Y227299D01*
X378039Y227362D01*
X377983Y227417D01*
X377919Y227462D01*
X377848Y227497D01*
X377773Y227520D01*
X377695Y227531D01*
X377616Y227530D01*
X377539Y227517D01*
X377464Y227491D01*
X377395Y227455D01*
X377383Y227446D01*
Y383859D01*
G37*
G36*
X366551D02*X377383D01*
Y227446D01*
X377332Y227407D01*
X377277Y227351D01*
X377233Y227286D01*
X377039Y226934D01*
X376882Y226564D01*
X376759Y226181D01*
X376670Y225790D01*
X376616Y225391D01*
X376599Y224990D01*
X376616Y224589D01*
X376670Y224190D01*
X376759Y223799D01*
X376882Y223416D01*
X377039Y223046D01*
X377229Y222692D01*
X377274Y222627D01*
X377329Y222570D01*
X377383Y222530D01*
Y217531D01*
X377081Y217039D01*
X376810Y216385D01*
X376645Y215696D01*
X376589Y214990D01*
X376645Y214284D01*
X376810Y213595D01*
X377081Y212941D01*
X377383Y212449D01*
Y207446D01*
X377332Y207407D01*
X377277Y207351D01*
X377233Y207286D01*
X377039Y206934D01*
X376882Y206564D01*
X376759Y206181D01*
X376670Y205790D01*
X376616Y205391D01*
X376599Y204990D01*
X376616Y204589D01*
X376670Y204190D01*
X376759Y203799D01*
X376882Y203416D01*
X377039Y203046D01*
X377229Y202692D01*
X377274Y202627D01*
X377329Y202570D01*
X377383Y202530D01*
Y197446D01*
X377332Y197407D01*
X377277Y197351D01*
X377233Y197286D01*
X377039Y196934D01*
X376882Y196564D01*
X376759Y196181D01*
X376670Y195790D01*
X376616Y195391D01*
X376599Y194990D01*
X376616Y194589D01*
X376670Y194190D01*
X376759Y193799D01*
X376882Y193416D01*
X377039Y193046D01*
X377229Y192692D01*
X377274Y192627D01*
X377329Y192570D01*
X377383Y192530D01*
Y187531D01*
X377081Y187039D01*
X376955Y186734D01*
X376882Y186564D01*
X376876Y186544D01*
X376810Y186385D01*
X376768Y186209D01*
X376759Y186181D01*
X376720Y186010D01*
X376645Y185696D01*
X376627Y185468D01*
X376616Y185391D01*
X376611Y185266D01*
X376589Y184990D01*
X376611Y184714D01*
X376616Y184589D01*
X376627Y184512D01*
X376645Y184284D01*
X376720Y183970D01*
X376759Y183799D01*
X376768Y183771D01*
X376810Y183595D01*
X376876Y183436D01*
X376882Y183416D01*
X376955Y183246D01*
X377081Y182941D01*
X377196Y182752D01*
X377229Y182692D01*
X377269Y182634D01*
X377383Y182449D01*
Y2067D01*
X366551D01*
Y298821D01*
X366619Y298840D01*
X366726Y298889D01*
X366824Y298955D01*
X366911Y299035D01*
X366984Y299128D01*
X367040Y299231D01*
X367225Y299675D01*
X367362Y300136D01*
X367454Y300608D01*
X367500Y301087D01*
Y301567D01*
X367454Y302046D01*
X367362Y302518D01*
X367225Y302979D01*
X367045Y303425D01*
X366987Y303529D01*
X366914Y303622D01*
X366827Y303702D01*
X366728Y303768D01*
X366620Y303818D01*
X366551Y303837D01*
Y383859D01*
G37*
G36*
X362502D02*X366551D01*
Y303837D01*
X366506Y303850D01*
X366388Y303864D01*
X366269Y303859D01*
X366153Y303836D01*
X366042Y303795D01*
X365938Y303737D01*
X365845Y303663D01*
X365765Y303576D01*
X365699Y303477D01*
X365649Y303370D01*
X365617Y303255D01*
X365603Y303138D01*
X365608Y303019D01*
X365631Y302903D01*
X365674Y302792D01*
X365804Y302482D01*
X365899Y302160D01*
X365964Y301830D01*
X365996Y301495D01*
Y301159D01*
X365964Y300824D01*
X365899Y300494D01*
X365804Y300172D01*
X365678Y299860D01*
X365635Y299750D01*
X365612Y299635D01*
X365607Y299517D01*
X365621Y299399D01*
X365653Y299286D01*
X365702Y299179D01*
X365768Y299080D01*
X365848Y298994D01*
X365940Y298920D01*
X366043Y298863D01*
X366154Y298822D01*
X366270Y298799D01*
X366388Y298794D01*
X366505Y298808D01*
X366551Y298821D01*
Y2067D01*
X362502D01*
Y296327D01*
X362740D01*
X363219Y296373D01*
X363691Y296465D01*
X364152Y296602D01*
X364598Y296782D01*
X364702Y296840D01*
X364795Y296913D01*
X364875Y297000D01*
X364941Y297099D01*
X364991Y297207D01*
X365023Y297321D01*
X365037Y297439D01*
X365032Y297558D01*
X365009Y297674D01*
X364968Y297785D01*
X364910Y297889D01*
X364836Y297982D01*
X364749Y298062D01*
X364650Y298128D01*
X364543Y298178D01*
X364428Y298210D01*
X364311Y298224D01*
X364192Y298219D01*
X364076Y298196D01*
X363965Y298153D01*
X363655Y298023D01*
X363333Y297928D01*
X363003Y297863D01*
X362668Y297831D01*
X362502D01*
Y304823D01*
X362668D01*
X363003Y304791D01*
X363333Y304726D01*
X363655Y304631D01*
X363967Y304505D01*
X364077Y304462D01*
X364192Y304439D01*
X364310Y304434D01*
X364428Y304448D01*
X364541Y304480D01*
X364648Y304529D01*
X364747Y304595D01*
X364833Y304675D01*
X364907Y304767D01*
X364964Y304870D01*
X365005Y304981D01*
X365028Y305097D01*
X365033Y305215D01*
X365019Y305332D01*
X364987Y305446D01*
X364938Y305553D01*
X364872Y305651D01*
X364792Y305738D01*
X364699Y305811D01*
X364596Y305867D01*
X364152Y306052D01*
X363691Y306189D01*
X363219Y306281D01*
X362740Y306327D01*
X362502D01*
Y383859D01*
G37*
G36*
X358449D02*X362502D01*
Y306327D01*
X362260D01*
X361781Y306281D01*
X361309Y306189D01*
X360848Y306052D01*
X360402Y305872D01*
X360298Y305814D01*
X360205Y305741D01*
X360125Y305654D01*
X360059Y305555D01*
X360009Y305447D01*
X359977Y305333D01*
X359963Y305215D01*
X359968Y305096D01*
X359991Y304980D01*
X360032Y304869D01*
X360090Y304765D01*
X360164Y304672D01*
X360251Y304592D01*
X360350Y304526D01*
X360457Y304476D01*
X360572Y304444D01*
X360689Y304430D01*
X360808Y304435D01*
X360924Y304458D01*
X361035Y304501D01*
X361345Y304631D01*
X361667Y304726D01*
X361997Y304791D01*
X362332Y304823D01*
X362502D01*
Y297831D01*
X362332D01*
X361997Y297863D01*
X361667Y297928D01*
X361345Y298023D01*
X361033Y298149D01*
X360923Y298192D01*
X360808Y298215D01*
X360690Y298220D01*
X360572Y298206D01*
X360459Y298174D01*
X360352Y298125D01*
X360253Y298059D01*
X360167Y297979D01*
X360093Y297887D01*
X360036Y297784D01*
X359995Y297673D01*
X359972Y297557D01*
X359967Y297439D01*
X359981Y297322D01*
X360013Y297208D01*
X360062Y297101D01*
X360128Y297003D01*
X360208Y296916D01*
X360301Y296843D01*
X360404Y296787D01*
X360848Y296602D01*
X361309Y296465D01*
X361781Y296373D01*
X362260Y296327D01*
X362502D01*
Y2067D01*
X358449D01*
Y298817D01*
X358494Y298804D01*
X358612Y298790D01*
X358731Y298795D01*
X358847Y298818D01*
X358958Y298859D01*
X359062Y298917D01*
X359155Y298991D01*
X359235Y299078D01*
X359301Y299177D01*
X359351Y299284D01*
X359383Y299399D01*
X359397Y299516D01*
X359392Y299635D01*
X359369Y299751D01*
X359326Y299862D01*
X359196Y300172D01*
X359101Y300494D01*
X359036Y300824D01*
X359004Y301159D01*
Y301495D01*
X359036Y301830D01*
X359101Y302160D01*
X359196Y302482D01*
X359322Y302794D01*
X359365Y302904D01*
X359388Y303019D01*
X359393Y303137D01*
X359379Y303255D01*
X359347Y303368D01*
X359298Y303475D01*
X359232Y303574D01*
X359152Y303660D01*
X359060Y303734D01*
X358957Y303791D01*
X358846Y303832D01*
X358730Y303855D01*
X358612Y303860D01*
X358495Y303846D01*
X358449Y303833D01*
Y383859D01*
G37*
G36*
X144823D02*X358449D01*
Y303833D01*
X358381Y303814D01*
X358274Y303765D01*
X358176Y303699D01*
X358089Y303619D01*
X358016Y303526D01*
X357960Y303423D01*
X357775Y302979D01*
X357638Y302518D01*
X357546Y302046D01*
X357500Y301567D01*
Y301087D01*
X357546Y300608D01*
X357638Y300136D01*
X357775Y299675D01*
X357955Y299229D01*
X358013Y299125D01*
X358086Y299032D01*
X358173Y298952D01*
X358272Y298886D01*
X358380Y298836D01*
X358449Y298817D01*
Y2067D01*
X144823D01*
Y142449D01*
X145125Y142941D01*
X145249Y143240D01*
X278646D01*
X278715Y143235D01*
X278989Y143256D01*
X278990Y143256D01*
X279257Y143321D01*
X279512Y143426D01*
X279747Y143570D01*
X279956Y143749D01*
X280001Y143801D01*
X327877Y191677D01*
X327929Y191722D01*
X328108Y191931D01*
X328252Y192166D01*
X328357Y192421D01*
X328422Y192688D01*
X328443Y192963D01*
X328438Y193032D01*
Y296213D01*
X330423Y296217D01*
X330653Y296272D01*
X330871Y296362D01*
X331072Y296486D01*
X331252Y296639D01*
X331405Y296819D01*
X331529Y297020D01*
X331619Y297238D01*
X331674Y297468D01*
X331688Y297703D01*
X331674Y304938D01*
X331619Y305168D01*
X331529Y305386D01*
X331405Y305587D01*
X331252Y305767D01*
X331072Y305920D01*
X330871Y306044D01*
X330653Y306134D01*
X330423Y306189D01*
X330188Y306203D01*
X322953Y306189D01*
X322723Y306134D01*
X322505Y306044D01*
X322304Y305920D01*
X322124Y305767D01*
X321971Y305587D01*
X321847Y305386D01*
X321757Y305168D01*
X321702Y304938D01*
X321688Y304703D01*
X321702Y297468D01*
X321757Y297238D01*
X321847Y297020D01*
X321971Y296819D01*
X322124Y296639D01*
X322304Y296486D01*
X322505Y296362D01*
X322723Y296272D01*
X322953Y296217D01*
X323188Y296203D01*
X324938Y296206D01*
Y193688D01*
X277990Y146740D01*
X145249D01*
X145125Y147039D01*
X144823Y147531D01*
Y152449D01*
X145125Y152941D01*
X145396Y153595D01*
X145561Y154284D01*
X145603Y154990D01*
X145561Y155696D01*
X145396Y156385D01*
X145125Y157039D01*
X144823Y157531D01*
Y162449D01*
X145125Y162941D01*
X145249Y163240D01*
X231734D01*
X231803Y163235D01*
X232077Y163256D01*
X232078Y163256D01*
X232345Y163321D01*
X232600Y163426D01*
X232835Y163570D01*
X233044Y163749D01*
X233089Y163801D01*
X292453Y223165D01*
X292505Y223210D01*
X292684Y223419D01*
X292684Y223419D01*
X292828Y223654D01*
X292933Y223909D01*
X292998Y224176D01*
X293019Y224451D01*
X293014Y224520D01*
Y296213D01*
X294999Y296217D01*
X295229Y296272D01*
X295447Y296362D01*
X295648Y296486D01*
X295828Y296639D01*
X295981Y296819D01*
X296105Y297020D01*
X296195Y297238D01*
X296250Y297468D01*
X296264Y297703D01*
X296250Y304938D01*
X296195Y305168D01*
X296105Y305386D01*
X295981Y305587D01*
X295828Y305767D01*
X295648Y305920D01*
X295447Y306044D01*
X295229Y306134D01*
X294999Y306189D01*
X294764Y306203D01*
X287529Y306189D01*
X287299Y306134D01*
X287081Y306044D01*
X286880Y305920D01*
X286700Y305767D01*
X286547Y305587D01*
X286423Y305386D01*
X286333Y305168D01*
X286278Y304938D01*
X286264Y304703D01*
X286278Y297468D01*
X286333Y297238D01*
X286423Y297020D01*
X286547Y296819D01*
X286700Y296639D01*
X286880Y296486D01*
X287081Y296362D01*
X287299Y296272D01*
X287529Y296217D01*
X287764Y296203D01*
X289514Y296206D01*
Y225176D01*
X231078Y166740D01*
X145249D01*
X145125Y167039D01*
X144823Y167531D01*
Y172449D01*
X145125Y172941D01*
X145396Y173595D01*
X145561Y174284D01*
X145603Y174990D01*
X145561Y175696D01*
X145396Y176385D01*
X145125Y177039D01*
X144823Y177531D01*
Y182449D01*
X145125Y182941D01*
X145396Y183595D01*
X145561Y184284D01*
X145603Y184990D01*
X145561Y185696D01*
X145396Y186385D01*
X145125Y187039D01*
X144823Y187531D01*
Y192449D01*
X145125Y192941D01*
X145396Y193595D01*
X145561Y194284D01*
X145603Y194990D01*
X145561Y195696D01*
X145396Y196385D01*
X145125Y197039D01*
X144823Y197531D01*
Y202449D01*
X145125Y202941D01*
X145396Y203595D01*
X145561Y204284D01*
X145603Y204990D01*
X145561Y205696D01*
X145396Y206385D01*
X145125Y207039D01*
X144823Y207531D01*
Y212449D01*
X145125Y212941D01*
X145396Y213595D01*
X145561Y214284D01*
X145603Y214990D01*
X145561Y215696D01*
X145396Y216385D01*
X145125Y217039D01*
X144823Y217531D01*
Y222534D01*
X144874Y222573D01*
X144929Y222629D01*
X144973Y222694D01*
X145167Y223046D01*
X145324Y223416D01*
X145447Y223799D01*
X145536Y224190D01*
X145590Y224589D01*
X145607Y224990D01*
X145590Y225391D01*
X145536Y225790D01*
X145447Y226181D01*
X145324Y226564D01*
X145167Y226934D01*
X144977Y227288D01*
X144932Y227353D01*
X144877Y227410D01*
X144823Y227450D01*
Y232449D01*
X145125Y232941D01*
X145249Y233240D01*
X221046D01*
X221115Y233235D01*
X221389Y233256D01*
X221390Y233256D01*
X221657Y233321D01*
X221912Y233426D01*
X222147Y233570D01*
X222356Y233749D01*
X222401Y233801D01*
X247189Y258589D01*
X247241Y258634D01*
X247420Y258843D01*
X247420Y258843D01*
X247564Y259078D01*
X247669Y259333D01*
X247734Y259600D01*
X247755Y259875D01*
X247750Y259944D01*
Y296213D01*
X249735Y296217D01*
X249965Y296272D01*
X250183Y296362D01*
X250384Y296486D01*
X250564Y296639D01*
X250717Y296819D01*
X250841Y297020D01*
X250931Y297238D01*
X250986Y297468D01*
X251000Y297703D01*
X250986Y304938D01*
X250931Y305168D01*
X250841Y305386D01*
X250717Y305587D01*
X250564Y305767D01*
X250384Y305920D01*
X250183Y306044D01*
X249965Y306134D01*
X249735Y306189D01*
X249500Y306203D01*
X242265Y306189D01*
X242035Y306134D01*
X241817Y306044D01*
X241616Y305920D01*
X241436Y305767D01*
X241283Y305587D01*
X241159Y305386D01*
X241069Y305168D01*
X241014Y304938D01*
X241000Y304703D01*
X241014Y297468D01*
X241069Y297238D01*
X241159Y297020D01*
X241283Y296819D01*
X241436Y296639D01*
X241616Y296486D01*
X241817Y296362D01*
X242035Y296272D01*
X242265Y296217D01*
X242500Y296203D01*
X244250Y296206D01*
Y260600D01*
X220390Y236740D01*
X145249D01*
X145125Y237039D01*
X144823Y237531D01*
Y242449D01*
X145125Y242941D01*
X145249Y243240D01*
X181846D01*
X181915Y243235D01*
X182189Y243256D01*
X182190Y243256D01*
X182457Y243321D01*
X182712Y243426D01*
X182947Y243570D01*
X183156Y243749D01*
X183201Y243801D01*
X197989Y258589D01*
X198041Y258634D01*
X198220Y258843D01*
X198220Y258843D01*
X198364Y259078D01*
X198469Y259333D01*
X198534Y259600D01*
X198555Y259875D01*
X198550Y259944D01*
Y296213D01*
X200521Y296217D01*
X200751Y296272D01*
X200969Y296362D01*
X201170Y296486D01*
X201350Y296639D01*
X201503Y296819D01*
X201627Y297020D01*
X201717Y297238D01*
X201772Y297468D01*
X201786Y297703D01*
X201772Y304938D01*
X201717Y305168D01*
X201627Y305386D01*
X201503Y305587D01*
X201350Y305767D01*
X201170Y305920D01*
X200969Y306044D01*
X200751Y306134D01*
X200521Y306189D01*
X200286Y306203D01*
X193051Y306189D01*
X192821Y306134D01*
X192603Y306044D01*
X192402Y305920D01*
X192222Y305767D01*
X192069Y305587D01*
X191945Y305386D01*
X191855Y305168D01*
X191800Y304938D01*
X191786Y304703D01*
X191800Y297468D01*
X191855Y297238D01*
X191945Y297020D01*
X192069Y296819D01*
X192222Y296639D01*
X192402Y296486D01*
X192603Y296362D01*
X192821Y296272D01*
X193051Y296217D01*
X193286Y296203D01*
X195050Y296206D01*
Y260600D01*
X181190Y246740D01*
X145249D01*
X145125Y247039D01*
X144823Y247531D01*
Y274013D01*
X145671Y273494D01*
X146847Y273007D01*
X148085Y272709D01*
X149354Y272610D01*
X150623Y272709D01*
X151861Y273007D01*
X153037Y273494D01*
X154122Y274159D01*
X155090Y274985D01*
X155916Y275953D01*
X156581Y277038D01*
X157068Y278214D01*
X157366Y279452D01*
X157440Y280721D01*
X157366Y281990D01*
X157068Y283228D01*
X156581Y284404D01*
X156175Y285067D01*
X160386Y289278D01*
X160438Y289323D01*
X160617Y289532D01*
X160761Y289767D01*
X160866Y290022D01*
X160931Y290289D01*
X160952Y290564D01*
X160947Y290633D01*
Y312195D01*
X161704Y312377D01*
X162880Y312864D01*
X163965Y313529D01*
X164933Y314355D01*
X165759Y315323D01*
X166424Y316408D01*
X166911Y317584D01*
X167209Y318822D01*
X167284Y320091D01*
X167209Y321360D01*
X166911Y322598D01*
X166424Y323774D01*
X165759Y324859D01*
X164933Y325827D01*
X163965Y326653D01*
X162880Y327318D01*
X161704Y327805D01*
X160466Y328103D01*
X159197Y328202D01*
X157928Y328103D01*
X156690Y327805D01*
X155514Y327318D01*
X154429Y326653D01*
X153461Y325827D01*
X152635Y324859D01*
X151970Y323774D01*
X151483Y322598D01*
X151185Y321360D01*
X151086Y320091D01*
X151185Y318822D01*
X151483Y317584D01*
X151970Y316408D01*
X152635Y315323D01*
X153461Y314355D01*
X154429Y313529D01*
X155514Y312864D01*
X156690Y312377D01*
X157447Y312195D01*
Y291289D01*
X153700Y287542D01*
X153037Y287948D01*
X151861Y288435D01*
X150623Y288733D01*
X149354Y288832D01*
X148085Y288733D01*
X146847Y288435D01*
X145671Y287948D01*
X144823Y287429D01*
Y313994D01*
X145247Y314355D01*
X146073Y315323D01*
X146738Y316408D01*
X147225Y317584D01*
X147523Y318822D01*
X147598Y320091D01*
X147523Y321360D01*
X147225Y322598D01*
X146738Y323774D01*
X146073Y324859D01*
X145247Y325827D01*
X144823Y326188D01*
Y383859D01*
G37*
G36*
Y287429D02*X144586Y287283D01*
X143618Y286457D01*
X142792Y285489D01*
X142127Y284404D01*
X141640Y283228D01*
X141458Y282471D01*
X139713D01*
Y311995D01*
X140780Y312079D01*
X142018Y312377D01*
X143194Y312864D01*
X144279Y313529D01*
X144823Y313994D01*
Y287429D01*
G37*
G36*
Y247531D02*X144755Y247643D01*
X144295Y248182D01*
X143756Y248642D01*
X143152Y249012D01*
X142498Y249283D01*
X141809Y249448D01*
X141103Y249504D01*
X140397Y249448D01*
X139713Y249284D01*
Y278971D01*
X141458D01*
X141640Y278214D01*
X142127Y277038D01*
X142792Y275953D01*
X143618Y274985D01*
X144586Y274159D01*
X144823Y274013D01*
Y247531D01*
G37*
G36*
Y237531D02*X144755Y237643D01*
X144295Y238182D01*
X143756Y238642D01*
X143152Y239012D01*
X142498Y239283D01*
X141809Y239448D01*
X141103Y239504D01*
X140397Y239448D01*
X139713Y239284D01*
Y240696D01*
X140397Y240532D01*
X141103Y240476D01*
X141809Y240532D01*
X142498Y240697D01*
X143152Y240968D01*
X143756Y241338D01*
X144295Y241798D01*
X144755Y242337D01*
X144823Y242449D01*
Y237531D01*
G37*
G36*
Y217531D02*X144755Y217643D01*
X144295Y218182D01*
X143756Y218642D01*
X143152Y219012D01*
X142498Y219283D01*
X141809Y219448D01*
X141103Y219504D01*
X140397Y219448D01*
X139713Y219284D01*
Y220710D01*
X139912Y220646D01*
X140303Y220557D01*
X140702Y220503D01*
X141103Y220486D01*
X141504Y220503D01*
X141903Y220557D01*
X142294Y220646D01*
X142677Y220769D01*
X143047Y220926D01*
X143401Y221116D01*
X143466Y221161D01*
X143523Y221216D01*
X143571Y221280D01*
X143607Y221350D01*
X143633Y221425D01*
X143647Y221503D01*
X143648Y221582D01*
X143636Y221661D01*
X143613Y221736D01*
X143578Y221807D01*
X143532Y221872D01*
X143477Y221929D01*
X143414Y221977D01*
X143344Y222014D01*
X143269Y222039D01*
X143191Y222053D01*
X143111Y222054D01*
X143033Y222042D01*
X142957Y222019D01*
X142887Y221983D01*
X142613Y221833D01*
X142326Y221711D01*
X142029Y221615D01*
X141724Y221546D01*
X141415Y221504D01*
X141103Y221490D01*
X140791Y221504D01*
X140482Y221546D01*
X140177Y221615D01*
X139880Y221711D01*
X139713Y221781D01*
Y228199D01*
X139880Y228269D01*
X140177Y228365D01*
X140482Y228434D01*
X140791Y228476D01*
X141103Y228490D01*
X141415Y228476D01*
X141724Y228434D01*
X142029Y228365D01*
X142326Y228269D01*
X142613Y228147D01*
X142889Y228000D01*
X142958Y227964D01*
X143034Y227941D01*
X143112Y227930D01*
X143190Y227931D01*
X143268Y227944D01*
X143342Y227970D01*
X143412Y228006D01*
X143475Y228054D01*
X143530Y228110D01*
X143575Y228174D01*
X143610Y228245D01*
X143633Y228320D01*
X143644Y228398D01*
X143643Y228477D01*
X143630Y228554D01*
X143604Y228629D01*
X143568Y228698D01*
X143520Y228761D01*
X143464Y228816D01*
X143399Y228860D01*
X143047Y229054D01*
X142677Y229211D01*
X142294Y229334D01*
X141903Y229423D01*
X141504Y229477D01*
X141103Y229494D01*
X140702Y229477D01*
X140303Y229423D01*
X139912Y229334D01*
X139713Y229270D01*
Y230696D01*
X140397Y230532D01*
X141103Y230476D01*
X141809Y230532D01*
X142498Y230697D01*
X143152Y230968D01*
X143756Y231338D01*
X144295Y231798D01*
X144755Y232337D01*
X144823Y232449D01*
Y227450D01*
X144813Y227458D01*
X144743Y227495D01*
X144668Y227520D01*
X144590Y227534D01*
X144511Y227535D01*
X144432Y227523D01*
X144357Y227500D01*
X144286Y227465D01*
X144221Y227419D01*
X144164Y227364D01*
X144116Y227301D01*
X144079Y227231D01*
X144054Y227156D01*
X144040Y227078D01*
X144039Y226998D01*
X144051Y226920D01*
X144074Y226844D01*
X144110Y226774D01*
X144260Y226500D01*
X144382Y226213D01*
X144478Y225916D01*
X144547Y225611D01*
X144589Y225302D01*
X144603Y224990D01*
X144589Y224678D01*
X144547Y224369D01*
X144478Y224064D01*
X144382Y223767D01*
X144260Y223480D01*
X144113Y223204D01*
X144077Y223135D01*
X144054Y223059D01*
X144043Y222981D01*
X144044Y222903D01*
X144057Y222825D01*
X144083Y222751D01*
X144119Y222681D01*
X144167Y222618D01*
X144223Y222563D01*
X144287Y222518D01*
X144358Y222483D01*
X144433Y222460D01*
X144511Y222449D01*
X144590Y222450D01*
X144667Y222463D01*
X144742Y222489D01*
X144811Y222525D01*
X144823Y222534D01*
Y217531D01*
G37*
G36*
Y207531D02*X144755Y207643D01*
X144295Y208182D01*
X143756Y208642D01*
X143152Y209012D01*
X142498Y209283D01*
X141809Y209448D01*
X141103Y209504D01*
X140397Y209448D01*
X139713Y209284D01*
Y210696D01*
X140397Y210532D01*
X141103Y210476D01*
X141809Y210532D01*
X142498Y210697D01*
X143152Y210968D01*
X143756Y211338D01*
X144295Y211798D01*
X144755Y212337D01*
X144823Y212449D01*
Y207531D01*
G37*
G36*
Y197531D02*X144755Y197643D01*
X144295Y198182D01*
X143756Y198642D01*
X143152Y199012D01*
X142498Y199283D01*
X141809Y199448D01*
X141103Y199504D01*
X140397Y199448D01*
X139713Y199284D01*
Y200696D01*
X140397Y200532D01*
X141103Y200476D01*
X141809Y200532D01*
X142498Y200697D01*
X143152Y200968D01*
X143756Y201338D01*
X144295Y201798D01*
X144755Y202337D01*
X144823Y202449D01*
Y197531D01*
G37*
G36*
Y187531D02*X144755Y187643D01*
X144295Y188182D01*
X143756Y188642D01*
X143152Y189012D01*
X142498Y189283D01*
X141809Y189448D01*
X141103Y189504D01*
X140397Y189448D01*
X139713Y189284D01*
Y190696D01*
X140397Y190532D01*
X141103Y190476D01*
X141809Y190532D01*
X142498Y190697D01*
X143152Y190968D01*
X143756Y191338D01*
X144295Y191798D01*
X144755Y192337D01*
X144823Y192449D01*
Y187531D01*
G37*
G36*
Y177531D02*X144755Y177643D01*
X144295Y178182D01*
X143756Y178642D01*
X143152Y179012D01*
X142498Y179283D01*
X141809Y179448D01*
X141103Y179504D01*
X140397Y179448D01*
X139713Y179284D01*
Y180696D01*
X140397Y180532D01*
X141103Y180476D01*
X141809Y180532D01*
X142498Y180697D01*
X143152Y180968D01*
X143756Y181338D01*
X144295Y181798D01*
X144755Y182337D01*
X144823Y182449D01*
Y177531D01*
G37*
G36*
Y167531D02*X144755Y167643D01*
X144295Y168182D01*
X143756Y168642D01*
X143152Y169012D01*
X142498Y169283D01*
X141809Y169448D01*
X141103Y169504D01*
X140397Y169448D01*
X139713Y169284D01*
Y170696D01*
X140397Y170532D01*
X141103Y170476D01*
X141809Y170532D01*
X142498Y170697D01*
X143152Y170968D01*
X143756Y171338D01*
X144295Y171798D01*
X144755Y172337D01*
X144823Y172449D01*
Y167531D01*
G37*
G36*
Y157531D02*X144755Y157643D01*
X144295Y158182D01*
X143756Y158642D01*
X143152Y159012D01*
X142498Y159283D01*
X141809Y159448D01*
X141103Y159504D01*
X140397Y159448D01*
X139713Y159284D01*
Y160696D01*
X140397Y160532D01*
X141103Y160476D01*
X141809Y160532D01*
X142498Y160697D01*
X143152Y160968D01*
X143756Y161338D01*
X144295Y161798D01*
X144755Y162337D01*
X144823Y162449D01*
Y157531D01*
G37*
G36*
Y147531D02*X144755Y147643D01*
X144295Y148182D01*
X143756Y148642D01*
X143152Y149012D01*
X142498Y149283D01*
X141809Y149448D01*
X141103Y149504D01*
X140397Y149448D01*
X139713Y149284D01*
Y150696D01*
X140397Y150532D01*
X141103Y150476D01*
X141809Y150532D01*
X142498Y150697D01*
X143152Y150968D01*
X143756Y151338D01*
X144295Y151798D01*
X144755Y152337D01*
X144823Y152449D01*
Y147531D01*
G37*
G36*
Y2067D02*X139713D01*
Y98938D01*
X142292Y101517D01*
X142344Y101562D01*
X142523Y101771D01*
X142523Y101771D01*
X142667Y102006D01*
X142772Y102261D01*
X142837Y102528D01*
X142858Y102803D01*
X142853Y102872D01*
Y140844D01*
X143152Y140968D01*
X143756Y141338D01*
X144295Y141798D01*
X144755Y142337D01*
X144823Y142449D01*
Y2067D01*
G37*
G36*
X139713Y383859D02*X144823D01*
Y326188D01*
X144279Y326653D01*
X143194Y327318D01*
X142018Y327805D01*
X140780Y328103D01*
X139713Y328187D01*
Y383859D01*
G37*
G36*
X137383Y182449D02*X137451Y182337D01*
X137911Y181798D01*
X138450Y181338D01*
X139054Y180968D01*
X139708Y180697D01*
X139713Y180696D01*
Y179284D01*
X139708Y179283D01*
X139054Y179012D01*
X138450Y178642D01*
X137911Y178182D01*
X137451Y177643D01*
X137383Y177531D01*
Y182449D01*
G37*
G36*
Y192449D02*X137451Y192337D01*
X137911Y191798D01*
X138450Y191338D01*
X139054Y190968D01*
X139708Y190697D01*
X139713Y190696D01*
Y189284D01*
X139708Y189283D01*
X139054Y189012D01*
X138450Y188642D01*
X137911Y188182D01*
X137451Y187643D01*
X137383Y187531D01*
Y192449D01*
G37*
G36*
Y202449D02*X137451Y202337D01*
X137911Y201798D01*
X138450Y201338D01*
X139054Y200968D01*
X139708Y200697D01*
X139713Y200696D01*
Y199284D01*
X139708Y199283D01*
X139054Y199012D01*
X138450Y198642D01*
X137911Y198182D01*
X137451Y197643D01*
X137383Y197531D01*
Y202449D01*
G37*
G36*
Y212449D02*X137451Y212337D01*
X137911Y211798D01*
X138450Y211338D01*
X139054Y210968D01*
X139708Y210697D01*
X139713Y210696D01*
Y209284D01*
X139708Y209283D01*
X139054Y209012D01*
X138450Y208642D01*
X137911Y208182D01*
X137451Y207643D01*
X137383Y207531D01*
Y212449D01*
G37*
G36*
Y232449D02*X137451Y232337D01*
X137911Y231798D01*
X138450Y231338D01*
X139054Y230968D01*
X139708Y230697D01*
X139713Y230696D01*
Y229270D01*
X139529Y229211D01*
X139159Y229054D01*
X138805Y228864D01*
X138740Y228819D01*
X138683Y228764D01*
X138635Y228700D01*
X138598Y228630D01*
X138573Y228555D01*
X138559Y228477D01*
X138558Y228398D01*
X138570Y228319D01*
X138593Y228244D01*
X138628Y228173D01*
X138674Y228108D01*
X138729Y228051D01*
X138792Y228003D01*
X138862Y227966D01*
X138937Y227941D01*
X139015Y227927D01*
X139095Y227926D01*
X139173Y227938D01*
X139249Y227961D01*
X139319Y227997D01*
X139593Y228147D01*
X139713Y228199D01*
Y221781D01*
X139593Y221833D01*
X139317Y221980D01*
X139248Y222016D01*
X139172Y222039D01*
X139094Y222050D01*
X139016Y222049D01*
X138938Y222036D01*
X138864Y222010D01*
X138794Y221974D01*
X138731Y221926D01*
X138676Y221870D01*
X138631Y221806D01*
X138596Y221735D01*
X138573Y221660D01*
X138562Y221582D01*
X138563Y221503D01*
X138576Y221426D01*
X138602Y221351D01*
X138638Y221282D01*
X138686Y221219D01*
X138742Y221164D01*
X138807Y221120D01*
X139159Y220926D01*
X139529Y220769D01*
X139713Y220710D01*
Y219284D01*
X139708Y219283D01*
X139054Y219012D01*
X138450Y218642D01*
X137911Y218182D01*
X137451Y217643D01*
X137383Y217531D01*
Y222530D01*
X137393Y222522D01*
X137463Y222486D01*
X137538Y222460D01*
X137616Y222446D01*
X137695Y222445D01*
X137774Y222457D01*
X137849Y222480D01*
X137920Y222515D01*
X137985Y222561D01*
X138042Y222616D01*
X138090Y222679D01*
X138126Y222749D01*
X138152Y222824D01*
X138166Y222902D01*
X138167Y222982D01*
X138155Y223060D01*
X138132Y223136D01*
X138096Y223206D01*
X137946Y223480D01*
X137824Y223767D01*
X137728Y224064D01*
X137659Y224369D01*
X137617Y224678D01*
X137603Y224990D01*
X137617Y225302D01*
X137659Y225611D01*
X137728Y225916D01*
X137824Y226213D01*
X137946Y226500D01*
X138093Y226776D01*
X138129Y226845D01*
X138152Y226921D01*
X138163Y226999D01*
X138162Y227077D01*
X138149Y227155D01*
X138123Y227229D01*
X138087Y227299D01*
X138039Y227362D01*
X137983Y227417D01*
X137919Y227462D01*
X137848Y227497D01*
X137773Y227520D01*
X137695Y227531D01*
X137616Y227530D01*
X137539Y227517D01*
X137464Y227491D01*
X137395Y227455D01*
X137383Y227446D01*
Y232449D01*
G37*
G36*
Y162449D02*X137451Y162337D01*
X137911Y161798D01*
X138450Y161338D01*
X139054Y160968D01*
X139708Y160697D01*
X139713Y160696D01*
Y159284D01*
X139708Y159283D01*
X139054Y159012D01*
X138450Y158642D01*
X137911Y158182D01*
X137451Y157643D01*
X137383Y157531D01*
Y162449D01*
G37*
G36*
X139713Y169284D02*X139708Y169283D01*
X139054Y169012D01*
X138450Y168642D01*
X137911Y168182D01*
X137451Y167643D01*
X137383Y167531D01*
Y172449D01*
X137451Y172337D01*
X137911Y171798D01*
X138450Y171338D01*
X139054Y170968D01*
X139708Y170697D01*
X139713Y170696D01*
Y169284D01*
G37*
G36*
X137383Y167531D02*X137081Y167039D01*
X136810Y166385D01*
X136645Y165696D01*
X136589Y164990D01*
X136645Y164284D01*
X136810Y163595D01*
X137081Y162941D01*
X137383Y162449D01*
Y157531D01*
X137254Y157321D01*
X124709D01*
X66390Y215640D01*
X66345Y215692D01*
X66136Y215871D01*
X65901Y216015D01*
X65646Y216120D01*
X65379Y216185D01*
X65378Y216185D01*
X65104Y216206D01*
X65035Y216201D01*
X34207D01*
X33989Y216728D01*
X33578Y217399D01*
X33066Y217997D01*
X32468Y218509D01*
X31797Y218920D01*
X31070Y219221D01*
X30305Y219405D01*
X29716Y219451D01*
X30305Y219497D01*
X31070Y219681D01*
X31797Y219982D01*
X32468Y220393D01*
X33066Y220905D01*
X33578Y221503D01*
X33989Y222174D01*
X34207Y222701D01*
X92427D01*
X92496Y222696D01*
X92770Y222717D01*
X92771Y222717D01*
X93038Y222782D01*
X93293Y222887D01*
X93528Y223031D01*
X93737Y223210D01*
X93782Y223262D01*
X103061Y232541D01*
X137326D01*
X137383Y232449D01*
Y227446D01*
X137332Y227407D01*
X137277Y227351D01*
X137233Y227286D01*
X137039Y226934D01*
X136882Y226564D01*
X136759Y226181D01*
X136670Y225790D01*
X136616Y225391D01*
X136599Y224990D01*
X136616Y224589D01*
X136670Y224190D01*
X136759Y223799D01*
X136882Y223416D01*
X137039Y223046D01*
X137229Y222692D01*
X137274Y222627D01*
X137329Y222570D01*
X137383Y222530D01*
Y217531D01*
X137081Y217039D01*
X136810Y216385D01*
X136645Y215696D01*
X136589Y214990D01*
X136645Y214284D01*
X136810Y213595D01*
X137081Y212941D01*
X137383Y212449D01*
Y207531D01*
X137081Y207039D01*
X136810Y206385D01*
X136645Y205696D01*
X136589Y204990D01*
X136645Y204284D01*
X136810Y203595D01*
X137081Y202941D01*
X137383Y202449D01*
Y197531D01*
X137081Y197039D01*
X136810Y196385D01*
X136645Y195696D01*
X136589Y194990D01*
X136645Y194284D01*
X136810Y193595D01*
X137081Y192941D01*
X137383Y192449D01*
Y187531D01*
X137081Y187039D01*
X136810Y186385D01*
X136645Y185696D01*
X136589Y184990D01*
X136645Y184284D01*
X136810Y183595D01*
X137081Y182941D01*
X137383Y182449D01*
Y177531D01*
X137081Y177039D01*
X136810Y176385D01*
X136645Y175696D01*
X136589Y174990D01*
X136645Y174284D01*
X136810Y173595D01*
X137081Y172941D01*
X137383Y172449D01*
Y167531D01*
G37*
G36*
X139713Y249284D02*X139708Y249283D01*
X139054Y249012D01*
X138450Y248642D01*
X137911Y248182D01*
X137627Y247849D01*
X108965D01*
X99686Y257128D01*
X99641Y257180D01*
X99432Y257359D01*
X99197Y257503D01*
X98942Y257608D01*
X98675Y257673D01*
X98674Y257673D01*
X98400Y257694D01*
X98331Y257689D01*
X87343D01*
X87125Y258216D01*
X86714Y258887D01*
X86202Y259485D01*
X85604Y259997D01*
X84933Y260408D01*
X84206Y260709D01*
X83441Y260893D01*
X82764Y260946D01*
X86391Y260953D01*
X86621Y261008D01*
X86839Y261098D01*
X87040Y261222D01*
X87220Y261375D01*
X87373Y261555D01*
X87497Y261756D01*
X87587Y261974D01*
X87642Y262204D01*
X87656Y262439D01*
X87644Y268453D01*
X98163Y278971D01*
X139713D01*
Y249284D01*
G37*
G36*
X92173Y184907D02*X122698Y154382D01*
X122743Y154330D01*
X122952Y154151D01*
X123187Y154007D01*
X123442Y153902D01*
X123709Y153837D01*
X123710Y153837D01*
X123984Y153816D01*
X124053Y153821D01*
X136756D01*
X136810Y153595D01*
X137081Y152941D01*
X137451Y152337D01*
X137911Y151798D01*
X138450Y151338D01*
X139054Y150968D01*
X139708Y150697D01*
X139713Y150696D01*
Y149284D01*
X139708Y149283D01*
X139054Y149012D01*
X138450Y148642D01*
X137911Y148182D01*
X137451Y147643D01*
X137081Y147039D01*
X136810Y146385D01*
X136645Y145696D01*
X136589Y144990D01*
X136645Y144284D01*
X136810Y143595D01*
X137081Y142941D01*
X137451Y142337D01*
X137911Y141798D01*
X138450Y141338D01*
X139054Y140968D01*
X139353Y140844D01*
Y103528D01*
X126310Y90485D01*
X125647Y90891D01*
X124471Y91378D01*
X123233Y91676D01*
X121964Y91775D01*
X120695Y91676D01*
X119457Y91378D01*
X118281Y90891D01*
X117196Y90226D01*
X116228Y89400D01*
X115402Y88432D01*
X114737Y87347D01*
X114250Y86171D01*
X113952Y84933D01*
X113853Y83664D01*
X113952Y82395D01*
X114250Y81157D01*
X114737Y79981D01*
X115402Y78896D01*
X116228Y77928D01*
X117196Y77102D01*
X118281Y76437D01*
X119457Y75950D01*
X120214Y75768D01*
Y54862D01*
X116467Y51115D01*
X115804Y51521D01*
X114628Y52008D01*
X113390Y52306D01*
X112121Y52405D01*
X110852Y52306D01*
X109614Y52008D01*
X108438Y51521D01*
X107353Y50856D01*
X106385Y50030D01*
X105559Y49062D01*
X104894Y47977D01*
X104407Y46801D01*
X104109Y45563D01*
X104010Y44294D01*
X104109Y43025D01*
X104407Y41787D01*
X104894Y40611D01*
X105559Y39526D01*
X106385Y38558D01*
X107353Y37732D01*
X108438Y37067D01*
X109614Y36580D01*
X110852Y36282D01*
X112121Y36183D01*
X113390Y36282D01*
X114628Y36580D01*
X115804Y37067D01*
X116889Y37732D01*
X117857Y38558D01*
X118683Y39526D01*
X119348Y40611D01*
X119835Y41787D01*
X120133Y43025D01*
X120208Y44294D01*
X120133Y45563D01*
X119835Y46801D01*
X119348Y47977D01*
X118942Y48640D01*
X123153Y52851D01*
X123205Y52896D01*
X123384Y53105D01*
X123528Y53340D01*
X123633Y53595D01*
X123698Y53862D01*
X123719Y54137D01*
X123714Y54206D01*
Y75768D01*
X124471Y75950D01*
X125647Y76437D01*
X126732Y77102D01*
X127700Y77928D01*
X128526Y78896D01*
X129191Y79981D01*
X129678Y81157D01*
X129976Y82395D01*
X130051Y83664D01*
X129976Y84933D01*
X129678Y86171D01*
X129191Y87347D01*
X128785Y88010D01*
X139713Y98938D01*
Y2067D01*
X92173D01*
Y71084D01*
X97932Y76843D01*
X98595Y76437D01*
X99771Y75950D01*
X101009Y75652D01*
X102278Y75553D01*
X103547Y75652D01*
X104785Y75950D01*
X105961Y76437D01*
X107046Y77102D01*
X108014Y77928D01*
X108840Y78896D01*
X109505Y79981D01*
X109992Y81157D01*
X110290Y82395D01*
X110364Y83664D01*
X110290Y84933D01*
X109992Y86171D01*
X109505Y87347D01*
X108840Y88432D01*
X108014Y89400D01*
X107046Y90226D01*
X105961Y90891D01*
X104785Y91378D01*
X103547Y91676D01*
X102278Y91775D01*
X101009Y91676D01*
X99771Y91378D01*
X98595Y90891D01*
X97510Y90226D01*
X96542Y89400D01*
X95716Y88432D01*
X95051Y87347D01*
X94564Y86171D01*
X94266Y84933D01*
X94167Y83664D01*
X94266Y82395D01*
X94564Y81157D01*
X95051Y79981D01*
X95457Y79318D01*
X92173Y76034D01*
Y153264D01*
X92216Y153271D01*
X92328Y153308D01*
X92433Y153363D01*
X92528Y153433D01*
X92611Y153517D01*
X92679Y153613D01*
X92730Y153719D01*
X92878Y154127D01*
X92982Y154548D01*
X93044Y154978D01*
X93065Y155411D01*
X93044Y155844D01*
X92982Y156274D01*
X92878Y156695D01*
X92735Y157105D01*
X92682Y157211D01*
X92613Y157307D01*
X92530Y157392D01*
X92435Y157462D01*
X92329Y157517D01*
X92217Y157554D01*
X92173Y157562D01*
Y161041D01*
X92243Y161070D01*
X92444Y161194D01*
X92624Y161347D01*
X92777Y161527D01*
X92901Y161728D01*
X92991Y161946D01*
X93046Y162176D01*
X93060Y162411D01*
X93046Y168646D01*
X92991Y168876D01*
X92901Y169094D01*
X92777Y169295D01*
X92624Y169475D01*
X92444Y169628D01*
X92243Y169752D01*
X92173Y169781D01*
Y184907D01*
G37*
G36*
Y76034D02*X88560Y72421D01*
Y150906D01*
X88993Y150927D01*
X89423Y150989D01*
X89844Y151093D01*
X90254Y151236D01*
X90360Y151289D01*
X90456Y151358D01*
X90541Y151441D01*
X90611Y151536D01*
X90666Y151642D01*
X90703Y151754D01*
X90723Y151871D01*
X90724Y151990D01*
X90706Y152107D01*
X90670Y152220D01*
X90617Y152326D01*
X90548Y152423D01*
X90465Y152507D01*
X90369Y152578D01*
X90264Y152632D01*
X90152Y152670D01*
X90035Y152689D01*
X89916Y152690D01*
X89799Y152672D01*
X89686Y152634D01*
X89415Y152535D01*
X89135Y152467D01*
X88849Y152425D01*
X88560Y152411D01*
Y158411D01*
X88849Y158397D01*
X89135Y158355D01*
X89415Y158287D01*
X89688Y158191D01*
X89799Y158153D01*
X89916Y158136D01*
X90034Y158136D01*
X90151Y158156D01*
X90263Y158193D01*
X90367Y158247D01*
X90462Y158317D01*
X90545Y158402D01*
X90614Y158498D01*
X90667Y158603D01*
X90703Y158716D01*
X90720Y158832D01*
X90719Y158950D01*
X90700Y159067D01*
X90663Y159179D01*
X90608Y159284D01*
X90538Y159379D01*
X90454Y159462D01*
X90358Y159530D01*
X90252Y159581D01*
X89844Y159729D01*
X89423Y159833D01*
X88993Y159895D01*
X88560Y159916D01*
Y160918D01*
X91795Y160925D01*
X92025Y160980D01*
X92173Y161041D01*
Y157562D01*
X92100Y157574D01*
X91981Y157575D01*
X91864Y157557D01*
X91751Y157521D01*
X91645Y157468D01*
X91548Y157399D01*
X91464Y157316D01*
X91393Y157220D01*
X91339Y157115D01*
X91301Y157003D01*
X91282Y156886D01*
X91281Y156767D01*
X91299Y156650D01*
X91337Y156537D01*
X91436Y156266D01*
X91504Y155986D01*
X91546Y155700D01*
X91560Y155411D01*
X91546Y155122D01*
X91504Y154836D01*
X91436Y154556D01*
X91340Y154283D01*
X91302Y154172D01*
X91285Y154055D01*
X91285Y153937D01*
X91305Y153820D01*
X91342Y153708D01*
X91396Y153604D01*
X91466Y153509D01*
X91551Y153426D01*
X91647Y153357D01*
X91752Y153304D01*
X91865Y153268D01*
X91981Y153251D01*
X92099Y153252D01*
X92173Y153264D01*
Y76034D01*
G37*
G36*
Y2067D02*X88560D01*
Y67471D01*
X92173Y71084D01*
Y2067D01*
G37*
G36*
X88560Y188520D02*X92173Y184907D01*
Y169781D01*
X92025Y169842D01*
X91795Y169897D01*
X91560Y169911D01*
X88560Y169904D01*
Y188520D01*
G37*
G36*
Y2067D02*X67441D01*
Y46352D01*
X88560Y67471D01*
Y2067D01*
G37*
G36*
X84947Y161041D02*X85095Y160980D01*
X85325Y160925D01*
X85560Y160911D01*
X88560Y160918D01*
Y159916D01*
X88127Y159895D01*
X87697Y159833D01*
X87276Y159729D01*
X86866Y159586D01*
X86760Y159533D01*
X86664Y159464D01*
X86579Y159381D01*
X86509Y159286D01*
X86454Y159180D01*
X86417Y159068D01*
X86397Y158951D01*
X86396Y158832D01*
X86414Y158715D01*
X86450Y158602D01*
X86503Y158496D01*
X86572Y158399D01*
X86655Y158315D01*
X86751Y158244D01*
X86856Y158190D01*
X86968Y158152D01*
X87085Y158133D01*
X87204Y158132D01*
X87321Y158150D01*
X87434Y158188D01*
X87705Y158287D01*
X87985Y158355D01*
X88271Y158397D01*
X88560Y158411D01*
Y152411D01*
X88271Y152425D01*
X87985Y152467D01*
X87705Y152535D01*
X87432Y152631D01*
X87321Y152669D01*
X87204Y152686D01*
X87086Y152686D01*
X86969Y152666D01*
X86857Y152629D01*
X86753Y152575D01*
X86658Y152505D01*
X86575Y152420D01*
X86506Y152324D01*
X86453Y152219D01*
X86417Y152106D01*
X86400Y151990D01*
X86401Y151872D01*
X86420Y151755D01*
X86457Y151643D01*
X86512Y151538D01*
X86582Y151443D01*
X86666Y151360D01*
X86762Y151292D01*
X86868Y151241D01*
X87276Y151093D01*
X87697Y150989D01*
X88127Y150927D01*
X88560Y150906D01*
Y72421D01*
X84947Y68808D01*
Y153260D01*
X85020Y153248D01*
X85139Y153247D01*
X85256Y153265D01*
X85369Y153301D01*
X85475Y153354D01*
X85572Y153423D01*
X85656Y153506D01*
X85727Y153602D01*
X85781Y153707D01*
X85819Y153819D01*
X85838Y153936D01*
X85839Y154055D01*
X85821Y154172D01*
X85783Y154285D01*
X85684Y154556D01*
X85616Y154836D01*
X85574Y155122D01*
X85560Y155411D01*
X85574Y155700D01*
X85616Y155986D01*
X85684Y156266D01*
X85780Y156539D01*
X85818Y156650D01*
X85835Y156767D01*
X85835Y156885D01*
X85815Y157002D01*
X85778Y157114D01*
X85724Y157218D01*
X85654Y157313D01*
X85569Y157396D01*
X85473Y157465D01*
X85368Y157518D01*
X85255Y157554D01*
X85139Y157571D01*
X85021Y157570D01*
X84947Y157558D01*
Y161041D01*
G37*
G36*
Y192133D02*X88560Y188520D01*
Y169904D01*
X85325Y169897D01*
X85095Y169842D01*
X84947Y169781D01*
Y192133D01*
G37*
G36*
X67441Y173846D02*X67785Y173873D01*
X68550Y174057D01*
X69277Y174358D01*
X69948Y174769D01*
X70546Y175281D01*
X71058Y175879D01*
X71469Y176550D01*
X71770Y177277D01*
X71954Y178042D01*
X72000Y178827D01*
X71954Y179612D01*
X71770Y180377D01*
X71469Y181104D01*
X71058Y181775D01*
X70546Y182373D01*
X69948Y182885D01*
X69277Y183296D01*
X68550Y183597D01*
X67785Y183781D01*
X67441Y183808D01*
Y183846D01*
X67785Y183873D01*
X68550Y184057D01*
X69277Y184358D01*
X69948Y184769D01*
X70546Y185281D01*
X71058Y185879D01*
X71469Y186550D01*
X71770Y187277D01*
X71954Y188042D01*
X72000Y188827D01*
X71954Y189612D01*
X71770Y190377D01*
X71469Y191104D01*
X71058Y191775D01*
X70546Y192373D01*
X69948Y192885D01*
X69277Y193296D01*
X68550Y193597D01*
X67785Y193781D01*
X67441Y193808D01*
Y209639D01*
X84947Y192133D01*
Y169781D01*
X84877Y169752D01*
X84676Y169628D01*
X84496Y169475D01*
X84343Y169295D01*
X84219Y169094D01*
X84129Y168876D01*
X84074Y168646D01*
X84060Y168411D01*
X84074Y162176D01*
X84129Y161946D01*
X84219Y161728D01*
X84343Y161527D01*
X84496Y161347D01*
X84676Y161194D01*
X84877Y161070D01*
X84947Y161041D01*
Y157558D01*
X84904Y157551D01*
X84792Y157514D01*
X84687Y157459D01*
X84592Y157389D01*
X84509Y157305D01*
X84441Y157209D01*
X84390Y157103D01*
X84242Y156695D01*
X84138Y156274D01*
X84076Y155844D01*
X84055Y155411D01*
X84076Y154978D01*
X84138Y154548D01*
X84242Y154127D01*
X84385Y153717D01*
X84438Y153611D01*
X84507Y153515D01*
X84590Y153430D01*
X84685Y153360D01*
X84791Y153305D01*
X84903Y153268D01*
X84947Y153260D01*
Y68808D01*
X67441Y51302D01*
Y173846D01*
G37*
G36*
Y383859D02*X139713D01*
Y328187D01*
X139511Y328202D01*
X138242Y328103D01*
X137004Y327805D01*
X135828Y327318D01*
X134743Y326653D01*
X133775Y325827D01*
X132949Y324859D01*
X132284Y323774D01*
X131811Y322633D01*
X104514D01*
X104390Y322932D01*
X104020Y323536D01*
X103560Y324075D01*
X103021Y324535D01*
X102417Y324905D01*
X101763Y325176D01*
X101074Y325341D01*
X100368Y325397D01*
X99662Y325341D01*
X98973Y325176D01*
X98319Y324905D01*
X97715Y324535D01*
X97176Y324075D01*
X96716Y323536D01*
X96346Y322932D01*
X96075Y322278D01*
X95910Y321589D01*
X95854Y320883D01*
X95910Y320177D01*
X96075Y319488D01*
X96346Y318834D01*
X96716Y318230D01*
X97176Y317691D01*
X97715Y317231D01*
X98319Y316861D01*
X98973Y316590D01*
X99662Y316425D01*
X100368Y316369D01*
X101074Y316425D01*
X101763Y316590D01*
X102417Y316861D01*
X103021Y317231D01*
X103560Y317691D01*
X104020Y318230D01*
X104390Y318834D01*
X104514Y319133D01*
X131475D01*
X131499Y318822D01*
X131797Y317584D01*
X132284Y316408D01*
X132949Y315323D01*
X133775Y314355D01*
X134743Y313529D01*
X135828Y312864D01*
X137004Y312377D01*
X138242Y312079D01*
X139511Y311980D01*
X139713Y311995D01*
Y282471D01*
X97507D01*
X97438Y282476D01*
X97163Y282455D01*
X96896Y282390D01*
X96641Y282285D01*
X96406Y282141D01*
X96406Y282141D01*
X96197Y281962D01*
X96152Y281910D01*
X85179Y270937D01*
X78921Y270925D01*
X78691Y270870D01*
X78473Y270780D01*
X78272Y270656D01*
X78092Y270503D01*
X77939Y270323D01*
X77815Y270122D01*
X77725Y269904D01*
X77670Y269674D01*
X77656Y269439D01*
X77670Y262204D01*
X77725Y261974D01*
X77815Y261756D01*
X77939Y261555D01*
X78092Y261375D01*
X78272Y261222D01*
X78473Y261098D01*
X78691Y261008D01*
X78921Y260953D01*
X79156Y260939D01*
X82543Y260946D01*
X81871Y260893D01*
X81106Y260709D01*
X80379Y260408D01*
X79708Y259997D01*
X79110Y259485D01*
X78598Y258887D01*
X78187Y258216D01*
X77886Y257489D01*
X77702Y256724D01*
X77641Y255939D01*
X77702Y255154D01*
X77886Y254389D01*
X78187Y253662D01*
X78598Y252991D01*
X79110Y252393D01*
X79708Y251881D01*
X80379Y251470D01*
X81106Y251169D01*
X81871Y250985D01*
X82460Y250939D01*
X81871Y250893D01*
X81106Y250709D01*
X80379Y250408D01*
X79708Y249997D01*
X79110Y249485D01*
X78598Y248887D01*
X78187Y248216D01*
X77886Y247489D01*
X77702Y246724D01*
X77641Y245939D01*
X77702Y245154D01*
X77886Y244389D01*
X78187Y243662D01*
X78598Y242991D01*
X79110Y242393D01*
X79708Y241881D01*
X80379Y241470D01*
X81106Y241169D01*
X81871Y240985D01*
X82656Y240924D01*
X83441Y240985D01*
X84206Y241169D01*
X84933Y241470D01*
X85604Y241881D01*
X86202Y242393D01*
X86714Y242991D01*
X87125Y243662D01*
X87426Y244389D01*
X87610Y245154D01*
X87656Y245939D01*
X87610Y246724D01*
X87426Y247489D01*
X87125Y248216D01*
X86714Y248887D01*
X86202Y249485D01*
X85604Y249997D01*
X84933Y250408D01*
X84206Y250709D01*
X83441Y250893D01*
X82852Y250939D01*
X83441Y250985D01*
X84206Y251169D01*
X84933Y251470D01*
X85604Y251881D01*
X86202Y252393D01*
X86714Y252991D01*
X87125Y253662D01*
X87343Y254189D01*
X97675D01*
X106954Y244910D01*
X106999Y244858D01*
X107208Y244679D01*
X107208Y244679D01*
X107443Y244535D01*
X107698Y244430D01*
X107965Y244365D01*
X108240Y244344D01*
X108309Y244349D01*
X136640D01*
X136645Y244284D01*
X136810Y243595D01*
X137081Y242941D01*
X137451Y242337D01*
X137911Y241798D01*
X138450Y241338D01*
X139054Y240968D01*
X139708Y240697D01*
X139713Y240696D01*
Y239284D01*
X139708Y239283D01*
X139054Y239012D01*
X138450Y238642D01*
X137911Y238182D01*
X137451Y237643D01*
X137081Y237039D01*
X136810Y236385D01*
X136727Y236041D01*
X102405D01*
X102336Y236046D01*
X102061Y236025D01*
X101794Y235960D01*
X101539Y235855D01*
X101304Y235711D01*
X101095Y235532D01*
X101050Y235480D01*
X91771Y226201D01*
X67441D01*
Y315228D01*
X69355D01*
X69424Y315223D01*
X69698Y315244D01*
X69699Y315244D01*
X69966Y315309D01*
X70221Y315414D01*
X70456Y315558D01*
X70665Y315737D01*
X70710Y315789D01*
X74386Y319465D01*
X85878D01*
X85882Y317648D01*
X85937Y317418D01*
X86027Y317200D01*
X86151Y316999D01*
X86304Y316819D01*
X86484Y316666D01*
X86685Y316542D01*
X86903Y316452D01*
X87133Y316397D01*
X87368Y316383D01*
X93603Y316397D01*
X93833Y316452D01*
X94051Y316542D01*
X94252Y316666D01*
X94432Y316819D01*
X94585Y316999D01*
X94709Y317200D01*
X94799Y317418D01*
X94854Y317648D01*
X94868Y317883D01*
X94854Y324118D01*
X94799Y324348D01*
X94709Y324566D01*
X94585Y324767D01*
X94432Y324947D01*
X94252Y325100D01*
X94051Y325224D01*
X93833Y325314D01*
X93603Y325369D01*
X93368Y325383D01*
X87133Y325369D01*
X86903Y325314D01*
X86685Y325224D01*
X86484Y325100D01*
X86304Y324947D01*
X86151Y324767D01*
X86027Y324566D01*
X85937Y324348D01*
X85882Y324118D01*
X85868Y323883D01*
X85870Y322965D01*
X73730D01*
X73661Y322970D01*
X73386Y322949D01*
X73119Y322884D01*
X72864Y322779D01*
X72629Y322635D01*
X72629Y322635D01*
X72420Y322456D01*
X72375Y322404D01*
X68699Y318728D01*
X67441D01*
Y383859D01*
G37*
G36*
Y193808D02*X67000Y193842D01*
X66215Y193781D01*
X65450Y193597D01*
X64723Y193296D01*
X64052Y192885D01*
X63454Y192373D01*
X62942Y191775D01*
X62531Y191104D01*
X62474Y190965D01*
X57386D01*
X52711Y195640D01*
X52666Y195692D01*
X52457Y195871D01*
X52222Y196015D01*
X51967Y196120D01*
X51700Y196185D01*
X51699Y196185D01*
X51425Y196206D01*
X51356Y196201D01*
X34207D01*
X33989Y196728D01*
X33578Y197399D01*
X33066Y197997D01*
X32468Y198509D01*
X31797Y198920D01*
X31070Y199221D01*
X30305Y199405D01*
X29716Y199451D01*
X30305Y199497D01*
X31070Y199681D01*
X31797Y199982D01*
X32468Y200393D01*
X33066Y200905D01*
X33578Y201503D01*
X33989Y202174D01*
X34290Y202901D01*
X34474Y203666D01*
X34520Y204451D01*
X34474Y205236D01*
X34290Y206001D01*
X33989Y206728D01*
X33578Y207399D01*
X33066Y207997D01*
X32468Y208509D01*
X31797Y208920D01*
X31070Y209221D01*
X30305Y209405D01*
X29716Y209451D01*
X30305Y209497D01*
X31070Y209681D01*
X31797Y209982D01*
X32468Y210393D01*
X33066Y210905D01*
X33578Y211503D01*
X33989Y212174D01*
X34207Y212701D01*
X64379D01*
X67441Y209639D01*
Y193808D01*
G37*
G36*
Y183808D02*X67196Y183827D01*
X67441Y183846D01*
Y183808D01*
G37*
G36*
X45252Y29131D02*X45494Y29279D01*
X45906Y29630D01*
X46257Y30042D01*
X46428Y30321D01*
X50616D01*
X50685Y30316D01*
X50959Y30337D01*
X50960Y30337D01*
X51227Y30402D01*
X51482Y30507D01*
X51717Y30651D01*
X51926Y30830D01*
X51971Y30882D01*
X67441Y46352D01*
Y2067D01*
X45252D01*
Y29131D01*
G37*
G36*
X65061Y174218D02*X65450Y174057D01*
X66215Y173873D01*
X67000Y173812D01*
X67441Y173846D01*
Y51302D01*
X65061Y48922D01*
Y113068D01*
X65101Y113079D01*
X65173Y113112D01*
X65238Y113155D01*
X65296Y113208D01*
X65345Y113270D01*
X65382Y113339D01*
X65509Y113639D01*
X65603Y113952D01*
X65665Y114272D01*
X65697Y114596D01*
Y114922D01*
X65665Y115246D01*
X65603Y115566D01*
X65509Y115879D01*
X65386Y116180D01*
X65347Y116250D01*
X65298Y116311D01*
X65240Y116365D01*
X65174Y116409D01*
X65102Y116442D01*
X65061Y116453D01*
Y122774D01*
X65063Y122777D01*
X65340Y123228D01*
X65542Y123717D01*
X65666Y124231D01*
X65697Y124759D01*
X65666Y125287D01*
X65542Y125801D01*
X65340Y126290D01*
X65063Y126741D01*
X65061Y126744D01*
Y174218D01*
G37*
G36*
Y48922D02*X62336Y46197D01*
Y111397D01*
X62498D01*
X62822Y111429D01*
X63142Y111491D01*
X63455Y111585D01*
X63756Y111708D01*
X63826Y111747D01*
X63887Y111796D01*
X63941Y111854D01*
X63985Y111920D01*
X64017Y111992D01*
X64039Y112068D01*
X64048Y112147D01*
X64044Y112226D01*
X64028Y112304D01*
X64001Y112378D01*
X63962Y112447D01*
X63913Y112509D01*
X63854Y112562D01*
X63788Y112606D01*
X63716Y112639D01*
X63640Y112660D01*
X63561Y112669D01*
X63482Y112665D01*
X63405Y112650D01*
X63331Y112620D01*
X63121Y112532D01*
X62902Y112466D01*
X62677Y112422D01*
X62449Y112400D01*
X62336D01*
Y117118D01*
X62449D01*
X62677Y117096D01*
X62902Y117052D01*
X63121Y116986D01*
X63332Y116900D01*
X63406Y116871D01*
X63483Y116855D01*
X63561Y116852D01*
X63640Y116861D01*
X63715Y116882D01*
X63787Y116915D01*
X63853Y116958D01*
X63911Y117011D01*
X63960Y117073D01*
X63998Y117141D01*
X64026Y117215D01*
X64041Y117292D01*
X64045Y117371D01*
X64036Y117449D01*
X64015Y117525D01*
X63982Y117597D01*
X63939Y117662D01*
X63886Y117720D01*
X63824Y117769D01*
X63755Y117806D01*
X63455Y117933D01*
X63142Y118027D01*
X62822Y118089D01*
X62498Y118121D01*
X62336D01*
Y121387D01*
X62863Y121428D01*
X63377Y121552D01*
X63866Y121754D01*
X64317Y122031D01*
X64720Y122374D01*
X65061Y122774D01*
Y116453D01*
X65026Y116463D01*
X64947Y116472D01*
X64868Y116468D01*
X64790Y116452D01*
X64716Y116425D01*
X64647Y116386D01*
X64585Y116337D01*
X64532Y116278D01*
X64488Y116212D01*
X64455Y116140D01*
X64434Y116064D01*
X64425Y115985D01*
X64429Y115906D01*
X64444Y115829D01*
X64474Y115755D01*
X64562Y115545D01*
X64628Y115326D01*
X64672Y115101D01*
X64694Y114873D01*
Y114645D01*
X64672Y114417D01*
X64628Y114192D01*
X64562Y113973D01*
X64476Y113762D01*
X64447Y113688D01*
X64431Y113611D01*
X64428Y113533D01*
X64437Y113454D01*
X64458Y113379D01*
X64491Y113307D01*
X64534Y113241D01*
X64587Y113183D01*
X64649Y113134D01*
X64717Y113096D01*
X64791Y113068D01*
X64868Y113053D01*
X64947Y113049D01*
X65025Y113058D01*
X65061Y113068D01*
Y48922D01*
G37*
G36*
X62336Y177020D02*X62531Y176550D01*
X62942Y175879D01*
X63454Y175281D01*
X64052Y174769D01*
X64723Y174358D01*
X65061Y174218D01*
Y126744D01*
X64720Y127144D01*
X64317Y127487D01*
X63866Y127764D01*
X63377Y127966D01*
X62863Y128090D01*
X62336Y128131D01*
Y177020D01*
G37*
G36*
Y187020D02*X62531Y186550D01*
X62942Y185879D01*
X63454Y185281D01*
X64052Y184769D01*
X64723Y184358D01*
X65450Y184057D01*
X66215Y183873D01*
X66804Y183827D01*
X66215Y183781D01*
X65450Y183597D01*
X64723Y183296D01*
X64052Y182885D01*
X63454Y182373D01*
X62942Y181775D01*
X62531Y181104D01*
X62336Y180634D01*
Y187020D01*
G37*
G36*
X59609Y122774D02*X59950Y122374D01*
X60353Y122031D01*
X60804Y121754D01*
X61293Y121552D01*
X61807Y121428D01*
X62335Y121387D01*
X62336Y121387D01*
Y118121D01*
X62172D01*
X61848Y118089D01*
X61528Y118027D01*
X61215Y117933D01*
X60914Y117810D01*
X60844Y117771D01*
X60783Y117722D01*
X60729Y117664D01*
X60685Y117598D01*
X60652Y117526D01*
X60631Y117450D01*
X60622Y117371D01*
X60626Y117292D01*
X60642Y117214D01*
X60669Y117140D01*
X60708Y117071D01*
X60757Y117009D01*
X60816Y116956D01*
X60882Y116912D01*
X60954Y116879D01*
X61030Y116858D01*
X61109Y116849D01*
X61188Y116853D01*
X61265Y116868D01*
X61339Y116898D01*
X61549Y116986D01*
X61768Y117052D01*
X61993Y117096D01*
X62221Y117118D01*
X62336D01*
Y112400D01*
X62221D01*
X61993Y112422D01*
X61768Y112466D01*
X61549Y112532D01*
X61338Y112618D01*
X61264Y112647D01*
X61187Y112663D01*
X61109Y112666D01*
X61030Y112657D01*
X60955Y112636D01*
X60883Y112603D01*
X60817Y112560D01*
X60759Y112507D01*
X60710Y112445D01*
X60672Y112377D01*
X60644Y112303D01*
X60629Y112226D01*
X60625Y112147D01*
X60634Y112069D01*
X60655Y111993D01*
X60688Y111921D01*
X60731Y111856D01*
X60784Y111798D01*
X60846Y111749D01*
X60915Y111712D01*
X61215Y111585D01*
X61528Y111491D01*
X61848Y111429D01*
X62172Y111397D01*
X62336D01*
Y46197D01*
X59609Y43470D01*
Y113065D01*
X59644Y113055D01*
X59723Y113046D01*
X59802Y113050D01*
X59880Y113066D01*
X59954Y113093D01*
X60023Y113132D01*
X60085Y113181D01*
X60138Y113240D01*
X60182Y113306D01*
X60215Y113378D01*
X60236Y113454D01*
X60245Y113533D01*
X60241Y113612D01*
X60226Y113689D01*
X60196Y113763D01*
X60108Y113973D01*
X60042Y114192D01*
X59998Y114417D01*
X59976Y114645D01*
Y114873D01*
X59998Y115101D01*
X60042Y115326D01*
X60108Y115545D01*
X60194Y115756D01*
X60223Y115830D01*
X60239Y115907D01*
X60242Y115985D01*
X60233Y116064D01*
X60212Y116139D01*
X60179Y116211D01*
X60136Y116277D01*
X60083Y116335D01*
X60021Y116384D01*
X59953Y116422D01*
X59879Y116450D01*
X59802Y116465D01*
X59723Y116469D01*
X59645Y116460D01*
X59609Y116450D01*
Y122774D01*
G37*
G36*
Y187465D02*X62185D01*
X62230Y187277D01*
X62336Y187020D01*
Y180634D01*
X62230Y180377D01*
X62046Y179612D01*
X61985Y178827D01*
X62046Y178042D01*
X62230Y177277D01*
X62336Y177020D01*
Y128131D01*
X62335Y128131D01*
X61807Y128090D01*
X61293Y127966D01*
X60804Y127764D01*
X60353Y127487D01*
X59950Y127144D01*
X59609Y126744D01*
Y187465D01*
G37*
G36*
X53348Y190053D02*X55375Y188026D01*
X55420Y187974D01*
X55629Y187795D01*
X55864Y187651D01*
X56119Y187546D01*
X56386Y187481D01*
X56387Y187481D01*
X56661Y187460D01*
X56730Y187465D01*
X59609D01*
Y126744D01*
X59607Y126741D01*
X59330Y126290D01*
X59128Y125801D01*
X59004Y125287D01*
X58963Y124759D01*
X59004Y124231D01*
X59128Y123717D01*
X59330Y123228D01*
X59607Y122777D01*
X59609Y122774D01*
Y116450D01*
X59569Y116439D01*
X59497Y116406D01*
X59432Y116363D01*
X59374Y116310D01*
X59325Y116248D01*
X59288Y116179D01*
X59161Y115879D01*
X59067Y115566D01*
X59005Y115246D01*
X58973Y114922D01*
Y114596D01*
X59005Y114272D01*
X59067Y113952D01*
X59161Y113639D01*
X59284Y113338D01*
X59323Y113268D01*
X59372Y113207D01*
X59430Y113153D01*
X59496Y113109D01*
X59568Y113077D01*
X59609Y113065D01*
Y43470D01*
X53348Y37209D01*
Y49026D01*
X53372Y49032D01*
X53444Y49064D01*
X53510Y49107D01*
X53569Y49160D01*
X53618Y49221D01*
X53656Y49290D01*
X53779Y49571D01*
X53873Y49862D01*
X53941Y50162D01*
X53982Y50466D01*
X53995Y50772D01*
X53982Y51078D01*
X53941Y51382D01*
X53873Y51682D01*
X53779Y51973D01*
X53659Y52256D01*
X53620Y52325D01*
X53571Y52386D01*
X53512Y52439D01*
X53445Y52482D01*
X53373Y52514D01*
X53348Y52521D01*
Y190053D01*
G37*
G36*
X50552Y192701D02*X50700D01*
X53348Y190053D01*
Y52521D01*
X53297Y52535D01*
X53218Y52543D01*
X53139Y52539D01*
X53062Y52522D01*
X52988Y52494D01*
X52920Y52454D01*
X52858Y52404D01*
X52805Y52346D01*
X52762Y52279D01*
X52730Y52207D01*
X52710Y52131D01*
X52701Y52052D01*
X52705Y51973D01*
X52722Y51896D01*
X52752Y51823D01*
X52839Y51623D01*
X52905Y51417D01*
X52953Y51205D01*
X52982Y50989D01*
X52992Y50772D01*
X52982Y50555D01*
X52953Y50339D01*
X52905Y50127D01*
X52839Y49921D01*
X52754Y49720D01*
X52724Y49648D01*
X52708Y49571D01*
X52704Y49492D01*
X52712Y49414D01*
X52732Y49338D01*
X52764Y49266D01*
X52807Y49200D01*
X52860Y49141D01*
X52921Y49092D01*
X52989Y49052D01*
X53062Y49024D01*
X53139Y49008D01*
X53218Y49004D01*
X53296Y49012D01*
X53348Y49026D01*
Y37209D01*
X50552Y34413D01*
Y47328D01*
X50857Y47341D01*
X51161Y47382D01*
X51461Y47450D01*
X51752Y47544D01*
X52035Y47664D01*
X52104Y47703D01*
X52165Y47752D01*
X52218Y47811D01*
X52261Y47878D01*
X52293Y47950D01*
X52314Y48026D01*
X52322Y48105D01*
X52318Y48184D01*
X52301Y48261D01*
X52273Y48335D01*
X52233Y48403D01*
X52183Y48465D01*
X52125Y48518D01*
X52058Y48561D01*
X51986Y48593D01*
X51910Y48613D01*
X51831Y48622D01*
X51752Y48618D01*
X51675Y48601D01*
X51602Y48571D01*
X51402Y48484D01*
X51196Y48418D01*
X50984Y48370D01*
X50768Y48341D01*
X50552Y48331D01*
Y53213D01*
X50768Y53203D01*
X50984Y53174D01*
X51196Y53126D01*
X51402Y53060D01*
X51603Y52975D01*
X51675Y52945D01*
X51752Y52929D01*
X51831Y52925D01*
X51909Y52933D01*
X51985Y52953D01*
X52057Y52985D01*
X52123Y53028D01*
X52182Y53081D01*
X52231Y53142D01*
X52271Y53210D01*
X52299Y53284D01*
X52315Y53360D01*
X52319Y53439D01*
X52311Y53517D01*
X52291Y53593D01*
X52259Y53665D01*
X52216Y53731D01*
X52163Y53790D01*
X52102Y53839D01*
X52033Y53877D01*
X51752Y54000D01*
X51461Y54094D01*
X51161Y54162D01*
X50857Y54203D01*
X50552Y54216D01*
Y192701D01*
G37*
G36*
X47754D02*X50552D01*
Y54216D01*
X50551Y54216D01*
X50245Y54203D01*
X49941Y54162D01*
X49641Y54094D01*
X49350Y54000D01*
X49067Y53880D01*
X48998Y53841D01*
X48937Y53792D01*
X48884Y53733D01*
X48841Y53666D01*
X48809Y53594D01*
X48788Y53518D01*
X48780Y53439D01*
X48784Y53360D01*
X48801Y53283D01*
X48829Y53209D01*
X48869Y53141D01*
X48919Y53079D01*
X48977Y53026D01*
X49044Y52983D01*
X49116Y52951D01*
X49192Y52931D01*
X49271Y52922D01*
X49350Y52926D01*
X49427Y52943D01*
X49500Y52973D01*
X49700Y53060D01*
X49906Y53126D01*
X50118Y53174D01*
X50334Y53203D01*
X50551Y53213D01*
X50552Y53213D01*
Y48331D01*
X50551Y48331D01*
X50334Y48341D01*
X50118Y48370D01*
X49906Y48418D01*
X49700Y48484D01*
X49499Y48569D01*
X49427Y48599D01*
X49350Y48615D01*
X49271Y48619D01*
X49193Y48611D01*
X49117Y48591D01*
X49045Y48559D01*
X48979Y48516D01*
X48920Y48463D01*
X48871Y48402D01*
X48831Y48334D01*
X48803Y48260D01*
X48787Y48184D01*
X48783Y48105D01*
X48791Y48027D01*
X48811Y47951D01*
X48843Y47879D01*
X48886Y47813D01*
X48939Y47754D01*
X49000Y47705D01*
X49069Y47667D01*
X49350Y47544D01*
X49641Y47450D01*
X49941Y47382D01*
X50245Y47341D01*
X50551Y47328D01*
X50552Y47328D01*
Y34413D01*
X49960Y33821D01*
X47754D01*
Y49023D01*
X47805Y49009D01*
X47884Y49001D01*
X47963Y49005D01*
X48040Y49022D01*
X48114Y49050D01*
X48182Y49090D01*
X48244Y49140D01*
X48297Y49198D01*
X48340Y49265D01*
X48372Y49337D01*
X48392Y49413D01*
X48401Y49492D01*
X48397Y49571D01*
X48380Y49648D01*
X48350Y49721D01*
X48263Y49921D01*
X48197Y50127D01*
X48149Y50339D01*
X48120Y50555D01*
X48110Y50772D01*
X48120Y50989D01*
X48149Y51205D01*
X48197Y51417D01*
X48263Y51623D01*
X48348Y51824D01*
X48378Y51896D01*
X48394Y51973D01*
X48398Y52052D01*
X48390Y52130D01*
X48370Y52206D01*
X48338Y52278D01*
X48295Y52344D01*
X48242Y52403D01*
X48181Y52452D01*
X48113Y52492D01*
X48039Y52520D01*
X47963Y52536D01*
X47884Y52540D01*
X47806Y52532D01*
X47754Y52518D01*
Y192701D01*
G37*
G36*
X45252D02*X47754D01*
Y52518D01*
X47730Y52512D01*
X47658Y52480D01*
X47592Y52437D01*
X47533Y52384D01*
X47484Y52323D01*
X47446Y52254D01*
X47323Y51973D01*
X47229Y51682D01*
X47161Y51382D01*
X47120Y51078D01*
X47107Y50772D01*
X47120Y50466D01*
X47161Y50162D01*
X47229Y49862D01*
X47323Y49571D01*
X47443Y49288D01*
X47482Y49219D01*
X47531Y49158D01*
X47590Y49105D01*
X47657Y49062D01*
X47729Y49030D01*
X47754Y49023D01*
Y33821D01*
X46428D01*
X46257Y34100D01*
X45906Y34512D01*
X45494Y34863D01*
X45252Y35011D01*
Y39098D01*
X45382Y39209D01*
X45829Y39732D01*
X46188Y40318D01*
X46451Y40954D01*
X46612Y41622D01*
X46652Y42308D01*
X46612Y42994D01*
X46451Y43662D01*
X46188Y44298D01*
X45829Y44884D01*
X45382Y45407D01*
X45252Y45518D01*
Y100487D01*
X45381Y100566D01*
X46000Y101094D01*
X46528Y101713D01*
X46953Y102406D01*
X47264Y103158D01*
X47454Y103948D01*
X47502Y104759D01*
X47454Y105570D01*
X47264Y106360D01*
X46953Y107112D01*
X46528Y107805D01*
X46000Y108424D01*
X45381Y108952D01*
X45252Y109031D01*
Y140487D01*
X45381Y140566D01*
X46000Y141094D01*
X46528Y141713D01*
X46953Y142406D01*
X47264Y143158D01*
X47454Y143948D01*
X47502Y144759D01*
X47454Y145570D01*
X47264Y146360D01*
X46953Y147112D01*
X46528Y147805D01*
X46000Y148424D01*
X45381Y148952D01*
X45252Y149031D01*
Y192701D01*
G37*
G36*
Y314038D02*X45494Y314186D01*
X45906Y314537D01*
X46257Y314949D01*
X46428Y315228D01*
X67441D01*
Y226201D01*
X45252D01*
Y261149D01*
X48375Y258026D01*
X48420Y257974D01*
X48629Y257795D01*
X48629Y257795D01*
X48864Y257651D01*
X49119Y257546D01*
X49386Y257481D01*
X49661Y257460D01*
X49730Y257465D01*
X56185D01*
X56230Y257277D01*
X56531Y256550D01*
X56942Y255879D01*
X57454Y255281D01*
X58052Y254769D01*
X58723Y254358D01*
X59450Y254057D01*
X60215Y253873D01*
X60804Y253827D01*
X60215Y253781D01*
X59450Y253597D01*
X58723Y253296D01*
X58052Y252885D01*
X57454Y252373D01*
X56942Y251775D01*
X56531Y251104D01*
X56230Y250377D01*
X56046Y249612D01*
X55985Y248827D01*
X56046Y248042D01*
X56230Y247277D01*
X56531Y246550D01*
X56942Y245879D01*
X57454Y245281D01*
X58052Y244769D01*
X58723Y244358D01*
X59450Y244057D01*
X60215Y243873D01*
X61000Y243812D01*
X61785Y243873D01*
X62550Y244057D01*
X63277Y244358D01*
X63948Y244769D01*
X64546Y245281D01*
X65058Y245879D01*
X65469Y246550D01*
X65770Y247277D01*
X65954Y248042D01*
X66000Y248827D01*
X65954Y249612D01*
X65770Y250377D01*
X65469Y251104D01*
X65058Y251775D01*
X64546Y252373D01*
X63948Y252885D01*
X63277Y253296D01*
X62550Y253597D01*
X61785Y253781D01*
X61196Y253827D01*
X61785Y253873D01*
X62550Y254057D01*
X63277Y254358D01*
X63948Y254769D01*
X64546Y255281D01*
X65058Y255879D01*
X65469Y256550D01*
X65770Y257277D01*
X65954Y258042D01*
X66000Y258827D01*
X65954Y259612D01*
X65770Y260377D01*
X65469Y261104D01*
X65058Y261775D01*
X64546Y262373D01*
X63948Y262885D01*
X63277Y263296D01*
X62550Y263597D01*
X61785Y263781D01*
X61000Y263842D01*
X60215Y263781D01*
X59450Y263597D01*
X58723Y263296D01*
X58052Y262885D01*
X57454Y262373D01*
X56942Y261775D01*
X56531Y261104D01*
X56474Y260965D01*
X50386D01*
X45252Y266099D01*
Y314038D01*
G37*
G36*
X53348Y383859D02*X67441D01*
Y318728D01*
X53348D01*
Y333933D01*
X53372Y333939D01*
X53444Y333971D01*
X53510Y334014D01*
X53569Y334067D01*
X53618Y334128D01*
X53656Y334197D01*
X53779Y334478D01*
X53873Y334769D01*
X53941Y335069D01*
X53982Y335373D01*
X53995Y335679D01*
X53982Y335985D01*
X53941Y336289D01*
X53873Y336589D01*
X53779Y336880D01*
X53659Y337163D01*
X53620Y337232D01*
X53571Y337293D01*
X53512Y337346D01*
X53445Y337389D01*
X53373Y337421D01*
X53348Y337428D01*
Y383859D01*
G37*
G36*
X50552D02*X53348D01*
Y337428D01*
X53297Y337442D01*
X53218Y337450D01*
X53139Y337446D01*
X53062Y337429D01*
X52988Y337401D01*
X52920Y337361D01*
X52858Y337311D01*
X52805Y337253D01*
X52762Y337186D01*
X52730Y337114D01*
X52710Y337038D01*
X52701Y336959D01*
X52705Y336880D01*
X52722Y336803D01*
X52752Y336730D01*
X52839Y336530D01*
X52905Y336324D01*
X52953Y336112D01*
X52982Y335896D01*
X52992Y335679D01*
X52982Y335462D01*
X52953Y335246D01*
X52905Y335034D01*
X52839Y334828D01*
X52754Y334627D01*
X52724Y334555D01*
X52708Y334478D01*
X52704Y334399D01*
X52712Y334321D01*
X52732Y334245D01*
X52764Y334173D01*
X52807Y334107D01*
X52860Y334048D01*
X52921Y333999D01*
X52989Y333959D01*
X53062Y333931D01*
X53139Y333915D01*
X53218Y333911D01*
X53296Y333919D01*
X53348Y333933D01*
Y318728D01*
X50552D01*
Y332235D01*
X50857Y332248D01*
X51161Y332289D01*
X51461Y332357D01*
X51752Y332451D01*
X52035Y332571D01*
X52104Y332610D01*
X52165Y332659D01*
X52218Y332718D01*
X52261Y332785D01*
X52293Y332857D01*
X52314Y332933D01*
X52322Y333012D01*
X52318Y333091D01*
X52301Y333168D01*
X52273Y333242D01*
X52233Y333310D01*
X52183Y333372D01*
X52125Y333425D01*
X52058Y333468D01*
X51986Y333500D01*
X51910Y333520D01*
X51831Y333529D01*
X51752Y333525D01*
X51675Y333508D01*
X51602Y333478D01*
X51402Y333391D01*
X51196Y333325D01*
X50984Y333277D01*
X50768Y333248D01*
X50552Y333238D01*
Y338120D01*
X50768Y338110D01*
X50984Y338081D01*
X51196Y338033D01*
X51402Y337967D01*
X51603Y337882D01*
X51675Y337852D01*
X51752Y337836D01*
X51831Y337832D01*
X51909Y337840D01*
X51985Y337860D01*
X52057Y337892D01*
X52123Y337935D01*
X52182Y337988D01*
X52231Y338049D01*
X52271Y338117D01*
X52299Y338191D01*
X52315Y338267D01*
X52319Y338346D01*
X52311Y338424D01*
X52291Y338500D01*
X52259Y338572D01*
X52216Y338638D01*
X52163Y338697D01*
X52102Y338746D01*
X52033Y338784D01*
X51752Y338907D01*
X51461Y339001D01*
X51161Y339069D01*
X50857Y339110D01*
X50552Y339123D01*
Y383859D01*
G37*
G36*
X47754D02*X50552D01*
Y339123D01*
X50551Y339123D01*
X50245Y339110D01*
X49941Y339069D01*
X49641Y339001D01*
X49350Y338907D01*
X49067Y338787D01*
X48998Y338748D01*
X48937Y338699D01*
X48884Y338640D01*
X48841Y338573D01*
X48809Y338501D01*
X48788Y338425D01*
X48780Y338346D01*
X48784Y338267D01*
X48801Y338190D01*
X48829Y338116D01*
X48869Y338048D01*
X48919Y337986D01*
X48977Y337933D01*
X49044Y337890D01*
X49116Y337858D01*
X49192Y337838D01*
X49271Y337829D01*
X49350Y337833D01*
X49427Y337850D01*
X49500Y337880D01*
X49700Y337967D01*
X49906Y338033D01*
X50118Y338081D01*
X50334Y338110D01*
X50551Y338120D01*
X50552Y338120D01*
Y333238D01*
X50551Y333238D01*
X50334Y333248D01*
X50118Y333277D01*
X49906Y333325D01*
X49700Y333391D01*
X49499Y333476D01*
X49427Y333506D01*
X49350Y333522D01*
X49271Y333526D01*
X49193Y333518D01*
X49117Y333498D01*
X49045Y333466D01*
X48979Y333423D01*
X48920Y333370D01*
X48871Y333309D01*
X48831Y333241D01*
X48803Y333168D01*
X48787Y333091D01*
X48783Y333012D01*
X48791Y332934D01*
X48811Y332858D01*
X48843Y332786D01*
X48886Y332720D01*
X48939Y332661D01*
X49000Y332612D01*
X49069Y332574D01*
X49350Y332451D01*
X49641Y332357D01*
X49941Y332289D01*
X50245Y332248D01*
X50551Y332235D01*
X50552Y332235D01*
Y318728D01*
X47754D01*
Y333930D01*
X47805Y333916D01*
X47884Y333908D01*
X47963Y333912D01*
X48040Y333929D01*
X48114Y333957D01*
X48182Y333997D01*
X48244Y334047D01*
X48297Y334105D01*
X48340Y334172D01*
X48372Y334244D01*
X48392Y334320D01*
X48401Y334399D01*
X48397Y334478D01*
X48380Y334555D01*
X48350Y334628D01*
X48263Y334828D01*
X48197Y335034D01*
X48149Y335246D01*
X48120Y335462D01*
X48110Y335679D01*
X48120Y335896D01*
X48149Y336112D01*
X48197Y336324D01*
X48263Y336530D01*
X48348Y336731D01*
X48378Y336803D01*
X48394Y336880D01*
X48398Y336959D01*
X48390Y337037D01*
X48370Y337113D01*
X48338Y337185D01*
X48295Y337251D01*
X48242Y337310D01*
X48181Y337359D01*
X48113Y337399D01*
X48039Y337427D01*
X47963Y337443D01*
X47884Y337447D01*
X47806Y337439D01*
X47754Y337425D01*
Y383859D01*
G37*
G36*
X45252D02*X47754D01*
Y337425D01*
X47730Y337419D01*
X47658Y337387D01*
X47592Y337344D01*
X47533Y337291D01*
X47484Y337230D01*
X47446Y337161D01*
X47323Y336880D01*
X47229Y336589D01*
X47161Y336289D01*
X47120Y335985D01*
X47107Y335679D01*
X47120Y335373D01*
X47161Y335069D01*
X47229Y334769D01*
X47323Y334478D01*
X47443Y334195D01*
X47482Y334126D01*
X47531Y334065D01*
X47590Y334012D01*
X47657Y333969D01*
X47729Y333937D01*
X47754Y333930D01*
Y318728D01*
X46428D01*
X46257Y319007D01*
X45906Y319419D01*
X45494Y319770D01*
X45252Y319918D01*
Y324005D01*
X45382Y324116D01*
X45829Y324639D01*
X46188Y325225D01*
X46451Y325861D01*
X46612Y326529D01*
X46652Y327215D01*
X46612Y327901D01*
X46451Y328569D01*
X46188Y329205D01*
X45829Y329791D01*
X45382Y330314D01*
X45252Y330425D01*
Y383859D01*
G37*
G36*
X16300Y73867D02*X16804Y73827D01*
X16760D01*
X16300Y73783D01*
Y73867D01*
G37*
G36*
X33770Y191817D02*X33989Y192174D01*
X34207Y192701D01*
X45252D01*
Y149031D01*
X44688Y149377D01*
X43936Y149688D01*
X43146Y149878D01*
X42335Y149941D01*
X41524Y149878D01*
X40734Y149688D01*
X39982Y149377D01*
X39289Y148952D01*
X38670Y148424D01*
X38142Y147805D01*
X37717Y147112D01*
X37406Y146360D01*
X37216Y145570D01*
X37153Y144759D01*
X37216Y143948D01*
X37406Y143158D01*
X37717Y142406D01*
X38142Y141713D01*
X38670Y141094D01*
X39289Y140566D01*
X39982Y140141D01*
X40734Y139830D01*
X41524Y139640D01*
X42335Y139577D01*
X43146Y139640D01*
X43936Y139830D01*
X44688Y140141D01*
X45252Y140487D01*
Y109031D01*
X44688Y109377D01*
X43936Y109688D01*
X43146Y109878D01*
X42335Y109941D01*
X41524Y109878D01*
X40734Y109688D01*
X39982Y109377D01*
X39289Y108952D01*
X38670Y108424D01*
X38142Y107805D01*
X37717Y107112D01*
X37406Y106360D01*
X37216Y105570D01*
X37153Y104759D01*
X37216Y103948D01*
X37406Y103158D01*
X37717Y102406D01*
X38142Y101713D01*
X38670Y101094D01*
X39289Y100566D01*
X39982Y100141D01*
X40734Y99830D01*
X41524Y99640D01*
X42335Y99577D01*
X43146Y99640D01*
X43936Y99830D01*
X44688Y100141D01*
X45252Y100487D01*
Y45518D01*
X44859Y45854D01*
X44273Y46213D01*
X43637Y46476D01*
X42969Y46637D01*
X42283Y46691D01*
X41597Y46637D01*
X40929Y46476D01*
X40293Y46213D01*
X39707Y45854D01*
X39184Y45407D01*
X38737Y44884D01*
X38378Y44298D01*
X38115Y43662D01*
X37954Y42994D01*
X37900Y42308D01*
X37954Y41622D01*
X38115Y40954D01*
X38378Y40318D01*
X38737Y39732D01*
X39184Y39209D01*
X39707Y38762D01*
X40293Y38403D01*
X40929Y38140D01*
X41597Y37979D01*
X42283Y37925D01*
X42969Y37979D01*
X43637Y38140D01*
X44273Y38403D01*
X44859Y38762D01*
X45252Y39098D01*
Y35011D01*
X45032Y35146D01*
X44532Y35354D01*
X44005Y35480D01*
X43465Y35523D01*
X42925Y35480D01*
X42398Y35354D01*
X41898Y35146D01*
X41436Y34863D01*
X41024Y34512D01*
X40673Y34100D01*
X40390Y33638D01*
X40182Y33138D01*
X40056Y32611D01*
X40013Y32071D01*
X40056Y31531D01*
X40182Y31004D01*
X40390Y30504D01*
X40673Y30042D01*
X41024Y29630D01*
X41436Y29279D01*
X41898Y28996D01*
X42398Y28788D01*
X42925Y28662D01*
X43465Y28619D01*
X44005Y28662D01*
X44532Y28788D01*
X45032Y28996D01*
X45252Y29131D01*
Y2067D01*
X33770D01*
Y171699D01*
X33888Y171708D01*
X34002Y171736D01*
X34112Y171781D01*
X34212Y171842D01*
X34302Y171919D01*
X34379Y172009D01*
X34440Y172109D01*
X34485Y172219D01*
X34513Y172333D01*
X34520Y172451D01*
Y176451D01*
X34513Y176569D01*
X34485Y176683D01*
X34440Y176793D01*
X34379Y176893D01*
X34302Y176983D01*
X34212Y177060D01*
X34112Y177121D01*
X34002Y177166D01*
X33888Y177194D01*
X33770Y177203D01*
Y182029D01*
X33844Y182079D01*
X33931Y182159D01*
X34004Y182252D01*
X34060Y182355D01*
X34245Y182799D01*
X34382Y183260D01*
X34474Y183732D01*
X34520Y184211D01*
Y184691D01*
X34474Y185170D01*
X34382Y185642D01*
X34245Y186103D01*
X34065Y186549D01*
X34007Y186653D01*
X33934Y186746D01*
X33847Y186826D01*
X33770Y186878D01*
Y191817D01*
G37*
G36*
X29520Y187947D02*X29688D01*
X30023Y187915D01*
X30353Y187850D01*
X30675Y187755D01*
X30987Y187629D01*
X31097Y187586D01*
X31212Y187563D01*
X31330Y187558D01*
X31448Y187572D01*
X31561Y187604D01*
X31668Y187653D01*
X31767Y187719D01*
X31853Y187799D01*
X31927Y187891D01*
X31984Y187994D01*
X32025Y188105D01*
X32048Y188221D01*
X32053Y188339D01*
X32039Y188456D01*
X32007Y188570D01*
X31958Y188677D01*
X31892Y188775D01*
X31812Y188862D01*
X31719Y188935D01*
X31616Y188991D01*
X31172Y189176D01*
X30711Y189313D01*
X30239Y189405D01*
X29760Y189451D01*
X29716D01*
X30305Y189497D01*
X31070Y189681D01*
X31797Y189982D01*
X32468Y190393D01*
X33066Y190905D01*
X33578Y191503D01*
X33770Y191817D01*
Y186878D01*
X33748Y186892D01*
X33640Y186942D01*
X33526Y186974D01*
X33408Y186988D01*
X33289Y186983D01*
X33173Y186960D01*
X33062Y186919D01*
X32958Y186861D01*
X32865Y186787D01*
X32785Y186700D01*
X32719Y186601D01*
X32669Y186494D01*
X32637Y186379D01*
X32623Y186262D01*
X32628Y186143D01*
X32651Y186027D01*
X32694Y185916D01*
X32824Y185606D01*
X32919Y185284D01*
X32984Y184954D01*
X33016Y184619D01*
Y184283D01*
X32984Y183948D01*
X32919Y183618D01*
X32824Y183296D01*
X32698Y182984D01*
X32655Y182874D01*
X32632Y182759D01*
X32627Y182641D01*
X32641Y182523D01*
X32673Y182410D01*
X32722Y182303D01*
X32788Y182204D01*
X32868Y182118D01*
X32960Y182044D01*
X33063Y181987D01*
X33174Y181946D01*
X33290Y181923D01*
X33408Y181918D01*
X33525Y181932D01*
X33639Y181964D01*
X33746Y182013D01*
X33770Y182029D01*
Y177203D01*
X33652Y177194D01*
X33538Y177166D01*
X33428Y177121D01*
X33328Y177060D01*
X33238Y176983D01*
X33161Y176893D01*
X33100Y176793D01*
X33055Y176683D01*
X33027Y176569D01*
X33020Y176451D01*
Y172451D01*
X33027Y172333D01*
X33055Y172219D01*
X33100Y172109D01*
X33161Y172009D01*
X33238Y171919D01*
X33328Y171842D01*
X33428Y171781D01*
X33538Y171736D01*
X33652Y171708D01*
X33770Y171699D01*
Y2067D01*
X29520D01*
Y169451D01*
X31520D01*
X31638Y169458D01*
X31752Y169486D01*
X31862Y169531D01*
X31962Y169592D01*
X32052Y169669D01*
X32129Y169759D01*
X32190Y169859D01*
X32235Y169969D01*
X32263Y170083D01*
X32272Y170201D01*
X32263Y170319D01*
X32235Y170433D01*
X32190Y170543D01*
X32129Y170643D01*
X32052Y170733D01*
X31962Y170810D01*
X31862Y170871D01*
X31752Y170916D01*
X31638Y170944D01*
X31520Y170951D01*
X29520D01*
Y177951D01*
X31520D01*
X31638Y177958D01*
X31752Y177986D01*
X31862Y178031D01*
X31962Y178092D01*
X32052Y178169D01*
X32129Y178259D01*
X32190Y178359D01*
X32235Y178469D01*
X32263Y178583D01*
X32272Y178701D01*
X32263Y178819D01*
X32235Y178933D01*
X32190Y179043D01*
X32129Y179143D01*
X32052Y179233D01*
X31962Y179310D01*
X31862Y179371D01*
X31752Y179416D01*
X31638Y179444D01*
X31520Y179451D01*
X29520D01*
Y179451D01*
X29760D01*
X30239Y179497D01*
X30711Y179589D01*
X31172Y179726D01*
X31618Y179906D01*
X31722Y179964D01*
X31815Y180037D01*
X31895Y180124D01*
X31961Y180223D01*
X32011Y180331D01*
X32043Y180445D01*
X32057Y180563D01*
X32052Y180682D01*
X32029Y180798D01*
X31988Y180909D01*
X31930Y181013D01*
X31856Y181106D01*
X31769Y181186D01*
X31670Y181252D01*
X31563Y181302D01*
X31448Y181334D01*
X31331Y181348D01*
X31212Y181343D01*
X31096Y181320D01*
X30985Y181277D01*
X30675Y181147D01*
X30353Y181052D01*
X30023Y180987D01*
X29688Y180955D01*
X29520D01*
Y187947D01*
G37*
G36*
X33770Y262665D02*X33989Y263022D01*
X34207Y263549D01*
X42852D01*
X45252Y261149D01*
Y226201D01*
X34207D01*
X33989Y226728D01*
X33770Y227085D01*
Y242547D01*
X33888Y242556D01*
X34002Y242584D01*
X34112Y242629D01*
X34212Y242690D01*
X34302Y242767D01*
X34379Y242857D01*
X34440Y242957D01*
X34485Y243067D01*
X34513Y243181D01*
X34520Y243299D01*
Y247299D01*
X34513Y247417D01*
X34485Y247531D01*
X34440Y247641D01*
X34379Y247741D01*
X34302Y247831D01*
X34212Y247908D01*
X34112Y247969D01*
X34002Y248014D01*
X33888Y248042D01*
X33770Y248051D01*
Y252877D01*
X33844Y252927D01*
X33931Y253007D01*
X34004Y253100D01*
X34060Y253203D01*
X34245Y253647D01*
X34382Y254108D01*
X34474Y254580D01*
X34520Y255059D01*
Y255539D01*
X34474Y256018D01*
X34382Y256490D01*
X34245Y256951D01*
X34065Y257397D01*
X34007Y257501D01*
X33934Y257594D01*
X33847Y257674D01*
X33770Y257726D01*
Y262665D01*
G37*
G36*
X29520Y258795D02*X29688D01*
X30023Y258763D01*
X30353Y258698D01*
X30675Y258603D01*
X30987Y258477D01*
X31097Y258434D01*
X31212Y258411D01*
X31330Y258406D01*
X31448Y258420D01*
X31561Y258452D01*
X31668Y258501D01*
X31767Y258567D01*
X31853Y258647D01*
X31927Y258739D01*
X31984Y258842D01*
X32025Y258953D01*
X32048Y259069D01*
X32053Y259187D01*
X32039Y259304D01*
X32007Y259418D01*
X31958Y259525D01*
X31892Y259623D01*
X31812Y259710D01*
X31719Y259783D01*
X31616Y259839D01*
X31172Y260024D01*
X30711Y260161D01*
X30239Y260253D01*
X29760Y260299D01*
X29716D01*
X30305Y260345D01*
X31070Y260529D01*
X31797Y260830D01*
X32468Y261241D01*
X33066Y261753D01*
X33578Y262351D01*
X33770Y262665D01*
Y257726D01*
X33748Y257740D01*
X33640Y257790D01*
X33526Y257822D01*
X33408Y257836D01*
X33289Y257831D01*
X33173Y257808D01*
X33062Y257767D01*
X32958Y257709D01*
X32865Y257635D01*
X32785Y257548D01*
X32719Y257449D01*
X32669Y257342D01*
X32637Y257227D01*
X32623Y257110D01*
X32628Y256991D01*
X32651Y256875D01*
X32694Y256764D01*
X32824Y256454D01*
X32919Y256132D01*
X32984Y255802D01*
X33016Y255467D01*
Y255131D01*
X32984Y254796D01*
X32919Y254466D01*
X32824Y254144D01*
X32698Y253832D01*
X32655Y253722D01*
X32632Y253607D01*
X32627Y253489D01*
X32641Y253371D01*
X32673Y253258D01*
X32722Y253151D01*
X32788Y253052D01*
X32868Y252966D01*
X32960Y252892D01*
X33063Y252835D01*
X33174Y252794D01*
X33290Y252771D01*
X33408Y252766D01*
X33525Y252780D01*
X33639Y252812D01*
X33746Y252861D01*
X33770Y252877D01*
Y248051D01*
X33652Y248042D01*
X33538Y248014D01*
X33428Y247969D01*
X33328Y247908D01*
X33238Y247831D01*
X33161Y247741D01*
X33100Y247641D01*
X33055Y247531D01*
X33027Y247417D01*
X33020Y247299D01*
Y243299D01*
X33027Y243181D01*
X33055Y243067D01*
X33100Y242957D01*
X33161Y242857D01*
X33238Y242767D01*
X33328Y242690D01*
X33428Y242629D01*
X33538Y242584D01*
X33652Y242556D01*
X33770Y242547D01*
Y227085D01*
X33578Y227399D01*
X33066Y227997D01*
X32468Y228509D01*
X31797Y228920D01*
X31070Y229221D01*
X30305Y229405D01*
X29520Y229466D01*
Y240299D01*
X31520D01*
X31638Y240306D01*
X31752Y240334D01*
X31862Y240379D01*
X31962Y240440D01*
X32052Y240517D01*
X32129Y240607D01*
X32190Y240707D01*
X32235Y240817D01*
X32263Y240931D01*
X32272Y241049D01*
X32263Y241167D01*
X32235Y241281D01*
X32190Y241391D01*
X32129Y241491D01*
X32052Y241581D01*
X31962Y241658D01*
X31862Y241719D01*
X31752Y241764D01*
X31638Y241792D01*
X31520Y241799D01*
X29520D01*
Y248799D01*
X31520D01*
X31638Y248806D01*
X31752Y248834D01*
X31862Y248879D01*
X31962Y248940D01*
X32052Y249017D01*
X32129Y249107D01*
X32190Y249207D01*
X32235Y249317D01*
X32263Y249431D01*
X32272Y249549D01*
X32263Y249667D01*
X32235Y249781D01*
X32190Y249891D01*
X32129Y249991D01*
X32052Y250081D01*
X31962Y250158D01*
X31862Y250219D01*
X31752Y250264D01*
X31638Y250292D01*
X31520Y250299D01*
X29520D01*
Y250299D01*
X29760D01*
X30239Y250345D01*
X30711Y250437D01*
X31172Y250574D01*
X31618Y250754D01*
X31722Y250812D01*
X31815Y250885D01*
X31895Y250972D01*
X31961Y251071D01*
X32011Y251179D01*
X32043Y251293D01*
X32057Y251411D01*
X32052Y251530D01*
X32029Y251646D01*
X31988Y251757D01*
X31930Y251861D01*
X31856Y251954D01*
X31769Y252034D01*
X31670Y252100D01*
X31563Y252150D01*
X31448Y252182D01*
X31331Y252196D01*
X31212Y252191D01*
X31096Y252168D01*
X30985Y252125D01*
X30675Y251995D01*
X30353Y251900D01*
X30023Y251835D01*
X29688Y251803D01*
X29520D01*
Y258795D01*
G37*
G36*
Y383859D02*X45252D01*
Y330425D01*
X44859Y330761D01*
X44273Y331120D01*
X43637Y331383D01*
X42969Y331544D01*
X42283Y331598D01*
X41597Y331544D01*
X40929Y331383D01*
X40293Y331120D01*
X39707Y330761D01*
X39184Y330314D01*
X38737Y329791D01*
X38378Y329205D01*
X38115Y328569D01*
X37954Y327901D01*
X37900Y327215D01*
X37954Y326529D01*
X38115Y325861D01*
X38378Y325225D01*
X38737Y324639D01*
X39184Y324116D01*
X39707Y323669D01*
X40293Y323310D01*
X40929Y323047D01*
X41597Y322886D01*
X42283Y322832D01*
X42969Y322886D01*
X43637Y323047D01*
X44273Y323310D01*
X44859Y323669D01*
X45252Y324005D01*
Y319918D01*
X45032Y320053D01*
X44532Y320261D01*
X44005Y320387D01*
X43465Y320430D01*
X42925Y320387D01*
X42398Y320261D01*
X41898Y320053D01*
X41436Y319770D01*
X41024Y319419D01*
X40673Y319007D01*
X40390Y318545D01*
X40182Y318045D01*
X40056Y317518D01*
X40013Y316978D01*
X40056Y316438D01*
X40182Y315911D01*
X40390Y315411D01*
X40673Y314949D01*
X41024Y314537D01*
X41436Y314186D01*
X41898Y313903D01*
X42398Y313695D01*
X42925Y313569D01*
X43465Y313526D01*
X44005Y313569D01*
X44532Y313695D01*
X45032Y313903D01*
X45252Y314038D01*
Y266099D01*
X44863Y266488D01*
X44818Y266540D01*
X44609Y266719D01*
X44374Y266863D01*
X44119Y266968D01*
X43852Y267033D01*
X43851Y267033D01*
X43577Y267054D01*
X43508Y267049D01*
X34207D01*
X33989Y267576D01*
X33578Y268247D01*
X33066Y268845D01*
X32468Y269357D01*
X31797Y269768D01*
X31070Y270069D01*
X30305Y270253D01*
X29716Y270299D01*
X30305Y270345D01*
X31070Y270529D01*
X31797Y270830D01*
X32468Y271241D01*
X33066Y271753D01*
X33578Y272351D01*
X33989Y273022D01*
X34290Y273749D01*
X34474Y274514D01*
X34520Y275299D01*
X34474Y276084D01*
X34290Y276849D01*
X33989Y277576D01*
X33578Y278247D01*
X33066Y278845D01*
X32468Y279357D01*
X31797Y279768D01*
X31070Y280069D01*
X30305Y280253D01*
X29716Y280299D01*
X30305Y280345D01*
X31070Y280529D01*
X31797Y280830D01*
X32468Y281241D01*
X33066Y281753D01*
X33578Y282351D01*
X33989Y283022D01*
X34290Y283749D01*
X34474Y284514D01*
X34520Y285299D01*
X34474Y286084D01*
X34290Y286849D01*
X33989Y287576D01*
X33578Y288247D01*
X33066Y288845D01*
X32468Y289357D01*
X31797Y289768D01*
X31070Y290069D01*
X30305Y290253D01*
X29716Y290299D01*
X30305Y290345D01*
X31070Y290529D01*
X31797Y290830D01*
X32468Y291241D01*
X33066Y291753D01*
X33578Y292351D01*
X33989Y293022D01*
X34290Y293749D01*
X34474Y294514D01*
X34520Y295299D01*
X34474Y296084D01*
X34290Y296849D01*
X33989Y297576D01*
X33578Y298247D01*
X33066Y298845D01*
X32468Y299357D01*
X31797Y299768D01*
X31070Y300069D01*
X30305Y300253D01*
X29520Y300314D01*
Y383859D01*
G37*
G36*
X25270Y191817D02*X25462Y191503D01*
X25974Y190905D01*
X26572Y190393D01*
X27243Y189982D01*
X27970Y189681D01*
X28735Y189497D01*
X29324Y189451D01*
X29280D01*
X28801Y189405D01*
X28329Y189313D01*
X27868Y189176D01*
X27422Y188996D01*
X27318Y188938D01*
X27225Y188865D01*
X27145Y188778D01*
X27079Y188679D01*
X27029Y188571D01*
X26997Y188457D01*
X26983Y188339D01*
X26988Y188220D01*
X27011Y188104D01*
X27052Y187993D01*
X27110Y187889D01*
X27184Y187796D01*
X27271Y187716D01*
X27370Y187650D01*
X27477Y187600D01*
X27592Y187568D01*
X27709Y187554D01*
X27828Y187559D01*
X27944Y187582D01*
X28055Y187625D01*
X28365Y187755D01*
X28687Y187850D01*
X29017Y187915D01*
X29352Y187947D01*
X29520D01*
Y180955D01*
X29352D01*
X29017Y180987D01*
X28687Y181052D01*
X28365Y181147D01*
X28053Y181273D01*
X27943Y181316D01*
X27828Y181339D01*
X27710Y181344D01*
X27592Y181330D01*
X27479Y181298D01*
X27372Y181249D01*
X27273Y181183D01*
X27187Y181103D01*
X27113Y181011D01*
X27056Y180908D01*
X27015Y180797D01*
X26992Y180681D01*
X26987Y180563D01*
X27001Y180446D01*
X27033Y180332D01*
X27082Y180225D01*
X27148Y180127D01*
X27228Y180040D01*
X27321Y179967D01*
X27424Y179911D01*
X27868Y179726D01*
X28329Y179589D01*
X28801Y179497D01*
X29280Y179451D01*
X29520D01*
Y179451D01*
X27520D01*
X27402Y179444D01*
X27288Y179416D01*
X27178Y179371D01*
X27078Y179310D01*
X26988Y179233D01*
X26911Y179143D01*
X26850Y179043D01*
X26805Y178933D01*
X26777Y178819D01*
X26768Y178701D01*
X26777Y178583D01*
X26805Y178469D01*
X26850Y178359D01*
X26911Y178259D01*
X26988Y178169D01*
X27078Y178092D01*
X27178Y178031D01*
X27288Y177986D01*
X27402Y177958D01*
X27520Y177951D01*
X29520D01*
Y170951D01*
X27520D01*
X27402Y170944D01*
X27288Y170916D01*
X27178Y170871D01*
X27078Y170810D01*
X26988Y170733D01*
X26911Y170643D01*
X26850Y170543D01*
X26805Y170433D01*
X26777Y170319D01*
X26768Y170201D01*
X26777Y170083D01*
X26805Y169969D01*
X26850Y169859D01*
X26911Y169759D01*
X26988Y169669D01*
X27078Y169592D01*
X27178Y169531D01*
X27288Y169486D01*
X27402Y169458D01*
X27520Y169451D01*
X29520D01*
Y2067D01*
X25270D01*
Y171699D01*
X25388Y171708D01*
X25502Y171736D01*
X25612Y171781D01*
X25712Y171842D01*
X25802Y171919D01*
X25879Y172009D01*
X25940Y172109D01*
X25985Y172219D01*
X26013Y172333D01*
X26020Y172451D01*
Y176451D01*
X26013Y176569D01*
X25985Y176683D01*
X25940Y176793D01*
X25879Y176893D01*
X25802Y176983D01*
X25712Y177060D01*
X25612Y177121D01*
X25502Y177166D01*
X25388Y177194D01*
X25270Y177203D01*
Y182024D01*
X25292Y182010D01*
X25400Y181960D01*
X25514Y181928D01*
X25632Y181914D01*
X25751Y181919D01*
X25867Y181942D01*
X25978Y181983D01*
X26082Y182041D01*
X26175Y182115D01*
X26255Y182202D01*
X26321Y182301D01*
X26371Y182408D01*
X26403Y182523D01*
X26417Y182640D01*
X26412Y182759D01*
X26389Y182875D01*
X26346Y182986D01*
X26216Y183296D01*
X26121Y183618D01*
X26056Y183948D01*
X26024Y184283D01*
Y184619D01*
X26056Y184954D01*
X26121Y185284D01*
X26216Y185606D01*
X26342Y185918D01*
X26385Y186028D01*
X26408Y186143D01*
X26413Y186261D01*
X26399Y186379D01*
X26367Y186492D01*
X26318Y186599D01*
X26252Y186698D01*
X26172Y186784D01*
X26080Y186858D01*
X25977Y186915D01*
X25866Y186956D01*
X25750Y186979D01*
X25632Y186984D01*
X25515Y186970D01*
X25401Y186938D01*
X25294Y186889D01*
X25270Y186873D01*
Y191817D01*
G37*
G36*
Y201817D02*X25462Y201503D01*
X25974Y200905D01*
X26572Y200393D01*
X27243Y199982D01*
X27970Y199681D01*
X28735Y199497D01*
X29324Y199451D01*
X28735Y199405D01*
X27970Y199221D01*
X27243Y198920D01*
X26572Y198509D01*
X25974Y197997D01*
X25462Y197399D01*
X25270Y197085D01*
Y201817D01*
G37*
G36*
Y211817D02*X25462Y211503D01*
X25974Y210905D01*
X26572Y210393D01*
X27243Y209982D01*
X27970Y209681D01*
X28735Y209497D01*
X29324Y209451D01*
X28735Y209405D01*
X27970Y209221D01*
X27243Y208920D01*
X26572Y208509D01*
X25974Y207997D01*
X25462Y207399D01*
X25270Y207085D01*
Y211817D01*
G37*
G36*
Y221817D02*X25462Y221503D01*
X25974Y220905D01*
X26572Y220393D01*
X27243Y219982D01*
X27970Y219681D01*
X28735Y219497D01*
X29324Y219451D01*
X28735Y219405D01*
X27970Y219221D01*
X27243Y218920D01*
X26572Y218509D01*
X25974Y217997D01*
X25462Y217399D01*
X25270Y217085D01*
Y221817D01*
G37*
G36*
Y262665D02*X25462Y262351D01*
X25974Y261753D01*
X26572Y261241D01*
X27243Y260830D01*
X27970Y260529D01*
X28735Y260345D01*
X29324Y260299D01*
X29280D01*
X28801Y260253D01*
X28329Y260161D01*
X27868Y260024D01*
X27422Y259844D01*
X27318Y259786D01*
X27225Y259713D01*
X27145Y259626D01*
X27079Y259527D01*
X27029Y259419D01*
X26997Y259305D01*
X26983Y259187D01*
X26988Y259068D01*
X27011Y258952D01*
X27052Y258841D01*
X27110Y258737D01*
X27184Y258644D01*
X27271Y258564D01*
X27370Y258498D01*
X27477Y258448D01*
X27592Y258416D01*
X27709Y258402D01*
X27828Y258407D01*
X27944Y258430D01*
X28055Y258473D01*
X28365Y258603D01*
X28687Y258698D01*
X29017Y258763D01*
X29352Y258795D01*
X29520D01*
Y251803D01*
X29352D01*
X29017Y251835D01*
X28687Y251900D01*
X28365Y251995D01*
X28053Y252121D01*
X27943Y252164D01*
X27828Y252187D01*
X27710Y252192D01*
X27592Y252178D01*
X27479Y252146D01*
X27372Y252097D01*
X27273Y252031D01*
X27187Y251951D01*
X27113Y251859D01*
X27056Y251756D01*
X27015Y251645D01*
X26992Y251529D01*
X26987Y251411D01*
X27001Y251294D01*
X27033Y251180D01*
X27082Y251073D01*
X27148Y250975D01*
X27228Y250888D01*
X27321Y250815D01*
X27424Y250759D01*
X27868Y250574D01*
X28329Y250437D01*
X28801Y250345D01*
X29280Y250299D01*
X29520D01*
Y250299D01*
X27520D01*
X27402Y250292D01*
X27288Y250264D01*
X27178Y250219D01*
X27078Y250158D01*
X26988Y250081D01*
X26911Y249991D01*
X26850Y249891D01*
X26805Y249781D01*
X26777Y249667D01*
X26768Y249549D01*
X26777Y249431D01*
X26805Y249317D01*
X26850Y249207D01*
X26911Y249107D01*
X26988Y249017D01*
X27078Y248940D01*
X27178Y248879D01*
X27288Y248834D01*
X27402Y248806D01*
X27520Y248799D01*
X29520D01*
Y241799D01*
X27520D01*
X27402Y241792D01*
X27288Y241764D01*
X27178Y241719D01*
X27078Y241658D01*
X26988Y241581D01*
X26911Y241491D01*
X26850Y241391D01*
X26805Y241281D01*
X26777Y241167D01*
X26768Y241049D01*
X26777Y240931D01*
X26805Y240817D01*
X26850Y240707D01*
X26911Y240607D01*
X26988Y240517D01*
X27078Y240440D01*
X27178Y240379D01*
X27288Y240334D01*
X27402Y240306D01*
X27520Y240299D01*
X29520D01*
Y229466D01*
X29520D01*
X28735Y229405D01*
X27970Y229221D01*
X27243Y228920D01*
X26572Y228509D01*
X25974Y227997D01*
X25462Y227399D01*
X25270Y227085D01*
Y242547D01*
X25388Y242556D01*
X25502Y242584D01*
X25612Y242629D01*
X25712Y242690D01*
X25802Y242767D01*
X25879Y242857D01*
X25940Y242957D01*
X25985Y243067D01*
X26013Y243181D01*
X26020Y243299D01*
Y247299D01*
X26013Y247417D01*
X25985Y247531D01*
X25940Y247641D01*
X25879Y247741D01*
X25802Y247831D01*
X25712Y247908D01*
X25612Y247969D01*
X25502Y248014D01*
X25388Y248042D01*
X25270Y248051D01*
Y252872D01*
X25292Y252858D01*
X25400Y252808D01*
X25514Y252776D01*
X25632Y252762D01*
X25751Y252767D01*
X25867Y252790D01*
X25978Y252831D01*
X26082Y252889D01*
X26175Y252963D01*
X26255Y253050D01*
X26321Y253149D01*
X26371Y253256D01*
X26403Y253371D01*
X26417Y253488D01*
X26412Y253607D01*
X26389Y253723D01*
X26346Y253834D01*
X26216Y254144D01*
X26121Y254466D01*
X26056Y254796D01*
X26024Y255131D01*
Y255467D01*
X26056Y255802D01*
X26121Y256132D01*
X26216Y256454D01*
X26342Y256766D01*
X26385Y256876D01*
X26408Y256991D01*
X26413Y257109D01*
X26399Y257227D01*
X26367Y257340D01*
X26318Y257447D01*
X26252Y257546D01*
X26172Y257632D01*
X26080Y257706D01*
X25977Y257763D01*
X25866Y257804D01*
X25750Y257827D01*
X25632Y257832D01*
X25515Y257818D01*
X25401Y257786D01*
X25294Y257737D01*
X25270Y257721D01*
Y262665D01*
G37*
G36*
Y272665D02*X25462Y272351D01*
X25974Y271753D01*
X26572Y271241D01*
X27243Y270830D01*
X27970Y270529D01*
X28735Y270345D01*
X29324Y270299D01*
X28735Y270253D01*
X27970Y270069D01*
X27243Y269768D01*
X26572Y269357D01*
X25974Y268845D01*
X25462Y268247D01*
X25270Y267933D01*
Y272665D01*
G37*
G36*
Y282665D02*X25462Y282351D01*
X25974Y281753D01*
X26572Y281241D01*
X27243Y280830D01*
X27970Y280529D01*
X28735Y280345D01*
X29324Y280299D01*
X28735Y280253D01*
X27970Y280069D01*
X27243Y279768D01*
X26572Y279357D01*
X25974Y278845D01*
X25462Y278247D01*
X25270Y277933D01*
Y282665D01*
G37*
G36*
Y292665D02*X25462Y292351D01*
X25974Y291753D01*
X26572Y291241D01*
X27243Y290830D01*
X27970Y290529D01*
X28735Y290345D01*
X29324Y290299D01*
X28735Y290253D01*
X27970Y290069D01*
X27243Y289768D01*
X26572Y289357D01*
X25974Y288845D01*
X25462Y288247D01*
X25270Y287933D01*
Y292665D01*
G37*
G36*
Y383859D02*X29520D01*
Y300314D01*
X29520D01*
X28735Y300253D01*
X27970Y300069D01*
X27243Y299768D01*
X26572Y299357D01*
X25974Y298845D01*
X25462Y298247D01*
X25270Y297933D01*
Y383859D01*
G37*
G36*
X21051D02*X25270D01*
Y297933D01*
X25051Y297576D01*
X24750Y296849D01*
X24566Y296084D01*
X24505Y295299D01*
X24566Y294514D01*
X24750Y293749D01*
X25051Y293022D01*
X25270Y292665D01*
Y287933D01*
X25051Y287576D01*
X24750Y286849D01*
X24566Y286084D01*
X24505Y285299D01*
X24566Y284514D01*
X24750Y283749D01*
X25051Y283022D01*
X25270Y282665D01*
Y277933D01*
X25051Y277576D01*
X24750Y276849D01*
X24566Y276084D01*
X24505Y275299D01*
X24566Y274514D01*
X24750Y273749D01*
X25051Y273022D01*
X25270Y272665D01*
Y267933D01*
X25051Y267576D01*
X24750Y266849D01*
X24566Y266084D01*
X24505Y265299D01*
X24566Y264514D01*
X24750Y263749D01*
X25051Y263022D01*
X25270Y262665D01*
Y257721D01*
X25196Y257671D01*
X25109Y257591D01*
X25036Y257498D01*
X24980Y257395D01*
X24795Y256951D01*
X24658Y256490D01*
X24566Y256018D01*
X24520Y255539D01*
Y255059D01*
X24566Y254580D01*
X24658Y254108D01*
X24795Y253647D01*
X24975Y253201D01*
X25033Y253097D01*
X25106Y253004D01*
X25193Y252924D01*
X25270Y252872D01*
Y248051D01*
X25152Y248042D01*
X25038Y248014D01*
X24928Y247969D01*
X24828Y247908D01*
X24738Y247831D01*
X24661Y247741D01*
X24600Y247641D01*
X24555Y247531D01*
X24527Y247417D01*
X24520Y247299D01*
Y243299D01*
X24527Y243181D01*
X24555Y243067D01*
X24600Y242957D01*
X24661Y242857D01*
X24738Y242767D01*
X24828Y242690D01*
X24928Y242629D01*
X25038Y242584D01*
X25152Y242556D01*
X25270Y242547D01*
Y227085D01*
X25051Y226728D01*
X24750Y226001D01*
X24566Y225236D01*
X24505Y224451D01*
X24566Y223666D01*
X24750Y222901D01*
X25051Y222174D01*
X25270Y221817D01*
Y217085D01*
X25051Y216728D01*
X24750Y216001D01*
X24566Y215236D01*
X24505Y214451D01*
X24566Y213666D01*
X24750Y212901D01*
X25051Y212174D01*
X25270Y211817D01*
Y207085D01*
X25051Y206728D01*
X24750Y206001D01*
X24566Y205236D01*
X24505Y204451D01*
X24566Y203666D01*
X24750Y202901D01*
X25051Y202174D01*
X25270Y201817D01*
Y197085D01*
X25051Y196728D01*
X24750Y196001D01*
X24566Y195236D01*
X24505Y194451D01*
X24566Y193666D01*
X24750Y192901D01*
X25051Y192174D01*
X25270Y191817D01*
Y186873D01*
X25196Y186823D01*
X25109Y186743D01*
X25036Y186650D01*
X24980Y186547D01*
X24795Y186103D01*
X24658Y185642D01*
X24566Y185170D01*
X24520Y184691D01*
Y184211D01*
X24566Y183732D01*
X24658Y183260D01*
X24795Y182799D01*
X24975Y182353D01*
X25033Y182249D01*
X25106Y182156D01*
X25193Y182076D01*
X25270Y182024D01*
Y177203D01*
X25152Y177194D01*
X25038Y177166D01*
X24928Y177121D01*
X24828Y177060D01*
X24738Y176983D01*
X24661Y176893D01*
X24600Y176793D01*
X24555Y176683D01*
X24527Y176569D01*
X24520Y176451D01*
Y172451D01*
X24527Y172333D01*
X24555Y172219D01*
X24600Y172109D01*
X24661Y172009D01*
X24738Y171919D01*
X24828Y171842D01*
X24928Y171781D01*
X25038Y171736D01*
X25152Y171708D01*
X25270Y171699D01*
Y2067D01*
X21051D01*
Y38648D01*
X21237Y38762D01*
X21760Y39209D01*
X22207Y39732D01*
X22566Y40318D01*
X22829Y40954D01*
X22990Y41622D01*
X23030Y42308D01*
X22990Y42994D01*
X22829Y43662D01*
X22566Y44298D01*
X22207Y44884D01*
X21760Y45407D01*
X21237Y45854D01*
X21051Y45968D01*
Y66321D01*
X21119Y66340D01*
X21226Y66389D01*
X21324Y66455D01*
X21411Y66535D01*
X21484Y66628D01*
X21540Y66731D01*
X21725Y67175D01*
X21862Y67636D01*
X21954Y68108D01*
X22000Y68587D01*
Y69067D01*
X21954Y69546D01*
X21862Y70018D01*
X21725Y70479D01*
X21545Y70925D01*
X21487Y71029D01*
X21414Y71122D01*
X21327Y71202D01*
X21228Y71268D01*
X21120Y71318D01*
X21051Y71337D01*
Y75872D01*
X21058Y75879D01*
X21469Y76550D01*
X21770Y77277D01*
X21954Y78042D01*
X22000Y78827D01*
X21954Y79612D01*
X21770Y80377D01*
X21469Y81104D01*
X21058Y81775D01*
X21051Y81782D01*
Y323555D01*
X21237Y323669D01*
X21760Y324116D01*
X22207Y324639D01*
X22566Y325225D01*
X22829Y325861D01*
X22990Y326529D01*
X23030Y327215D01*
X22990Y327901D01*
X22829Y328569D01*
X22566Y329205D01*
X22207Y329791D01*
X21760Y330314D01*
X21237Y330761D01*
X21051Y330875D01*
Y383859D01*
G37*
G36*
Y81782D02*X20546Y82373D01*
X19948Y82885D01*
X19277Y83296D01*
X19096Y83371D01*
Y315626D01*
X19120Y315632D01*
X19192Y315664D01*
X19258Y315707D01*
X19317Y315760D01*
X19366Y315821D01*
X19404Y315890D01*
X19527Y316171D01*
X19621Y316462D01*
X19689Y316762D01*
X19730Y317066D01*
X19743Y317372D01*
X19730Y317678D01*
X19689Y317982D01*
X19621Y318282D01*
X19527Y318573D01*
X19407Y318856D01*
X19368Y318925D01*
X19319Y318986D01*
X19260Y319039D01*
X19193Y319082D01*
X19121Y319114D01*
X19096Y319121D01*
Y322866D01*
X19347Y322886D01*
X20015Y323047D01*
X20651Y323310D01*
X21051Y323555D01*
Y81782D01*
G37*
G36*
Y45968D02*X20651Y46213D01*
X20015Y46476D01*
X19347Y46637D01*
X19096Y46657D01*
Y64281D01*
X19098Y64282D01*
X19202Y64340D01*
X19295Y64413D01*
X19375Y64500D01*
X19441Y64599D01*
X19491Y64707D01*
X19523Y64821D01*
X19537Y64939D01*
X19532Y65058D01*
X19509Y65174D01*
X19468Y65285D01*
X19410Y65389D01*
X19336Y65482D01*
X19249Y65562D01*
X19150Y65628D01*
X19096Y65653D01*
Y72005D01*
X19148Y72029D01*
X19247Y72095D01*
X19333Y72175D01*
X19407Y72267D01*
X19464Y72370D01*
X19505Y72481D01*
X19528Y72597D01*
X19533Y72715D01*
X19519Y72832D01*
X19487Y72946D01*
X19438Y73053D01*
X19372Y73151D01*
X19292Y73238D01*
X19199Y73311D01*
X19096Y73366D01*
Y74283D01*
X19277Y74358D01*
X19948Y74769D01*
X20546Y75281D01*
X21051Y75872D01*
Y71337D01*
X21006Y71350D01*
X20888Y71364D01*
X20769Y71359D01*
X20653Y71336D01*
X20542Y71295D01*
X20438Y71237D01*
X20345Y71163D01*
X20265Y71076D01*
X20199Y70977D01*
X20149Y70870D01*
X20117Y70755D01*
X20103Y70638D01*
X20108Y70519D01*
X20131Y70403D01*
X20174Y70292D01*
X20304Y69982D01*
X20399Y69660D01*
X20464Y69330D01*
X20496Y68995D01*
Y68659D01*
X20464Y68324D01*
X20399Y67994D01*
X20304Y67672D01*
X20178Y67360D01*
X20135Y67250D01*
X20112Y67135D01*
X20107Y67017D01*
X20121Y66899D01*
X20153Y66786D01*
X20202Y66679D01*
X20268Y66580D01*
X20348Y66494D01*
X20440Y66420D01*
X20543Y66363D01*
X20654Y66322D01*
X20770Y66299D01*
X20888Y66294D01*
X21005Y66308D01*
X21051Y66321D01*
Y45968D01*
G37*
G36*
Y2067D02*X19096D01*
Y30719D01*
X19120Y30725D01*
X19192Y30757D01*
X19258Y30800D01*
X19317Y30853D01*
X19366Y30914D01*
X19404Y30983D01*
X19527Y31264D01*
X19621Y31555D01*
X19689Y31855D01*
X19730Y32159D01*
X19743Y32465D01*
X19730Y32771D01*
X19689Y33075D01*
X19621Y33375D01*
X19527Y33666D01*
X19407Y33949D01*
X19368Y34018D01*
X19319Y34079D01*
X19260Y34132D01*
X19193Y34175D01*
X19121Y34207D01*
X19096Y34214D01*
Y37959D01*
X19347Y37979D01*
X20015Y38140D01*
X20651Y38403D01*
X21051Y38648D01*
Y2067D01*
G37*
G36*
X19096Y383859D02*X21051D01*
Y330875D01*
X20651Y331120D01*
X20015Y331383D01*
X19347Y331544D01*
X19096Y331564D01*
Y383859D01*
G37*
G36*
Y83371D02*X18550Y83597D01*
X17785Y83781D01*
X17000Y83842D01*
X16300Y83787D01*
Y313928D01*
X16605Y313941D01*
X16909Y313982D01*
X17209Y314050D01*
X17500Y314144D01*
X17783Y314264D01*
X17852Y314303D01*
X17913Y314352D01*
X17966Y314411D01*
X18009Y314478D01*
X18041Y314550D01*
X18062Y314626D01*
X18070Y314705D01*
X18066Y314784D01*
X18049Y314861D01*
X18021Y314935D01*
X17981Y315003D01*
X17931Y315065D01*
X17873Y315118D01*
X17806Y315161D01*
X17734Y315193D01*
X17658Y315213D01*
X17579Y315222D01*
X17500Y315218D01*
X17423Y315201D01*
X17350Y315171D01*
X17150Y315084D01*
X16944Y315018D01*
X16732Y314970D01*
X16516Y314941D01*
X16300Y314931D01*
Y319813D01*
X16516Y319803D01*
X16732Y319774D01*
X16944Y319726D01*
X17150Y319660D01*
X17351Y319575D01*
X17423Y319545D01*
X17500Y319529D01*
X17579Y319525D01*
X17657Y319533D01*
X17733Y319553D01*
X17805Y319585D01*
X17871Y319628D01*
X17930Y319681D01*
X17979Y319742D01*
X18019Y319810D01*
X18047Y319884D01*
X18063Y319960D01*
X18067Y320039D01*
X18059Y320117D01*
X18039Y320193D01*
X18007Y320265D01*
X17964Y320331D01*
X17911Y320390D01*
X17850Y320439D01*
X17781Y320477D01*
X17500Y320600D01*
X17209Y320694D01*
X16909Y320762D01*
X16605Y320803D01*
X16300Y320816D01*
Y323537D01*
X16671Y323310D01*
X17307Y323047D01*
X17975Y322886D01*
X18661Y322832D01*
X19096Y322866D01*
Y319121D01*
X19045Y319135D01*
X18966Y319143D01*
X18887Y319139D01*
X18810Y319122D01*
X18736Y319094D01*
X18668Y319054D01*
X18606Y319004D01*
X18553Y318946D01*
X18510Y318879D01*
X18478Y318807D01*
X18458Y318731D01*
X18449Y318652D01*
X18453Y318573D01*
X18470Y318496D01*
X18500Y318423D01*
X18587Y318223D01*
X18653Y318017D01*
X18701Y317805D01*
X18730Y317589D01*
X18740Y317372D01*
X18730Y317155D01*
X18701Y316939D01*
X18653Y316727D01*
X18587Y316521D01*
X18502Y316320D01*
X18472Y316248D01*
X18456Y316171D01*
X18452Y316092D01*
X18460Y316014D01*
X18480Y315938D01*
X18512Y315866D01*
X18555Y315800D01*
X18608Y315741D01*
X18669Y315692D01*
X18737Y315652D01*
X18810Y315624D01*
X18887Y315608D01*
X18966Y315604D01*
X19044Y315612D01*
X19096Y315626D01*
Y83371D01*
G37*
G36*
Y73366D02*X19096Y73367D01*
X18652Y73552D01*
X18191Y73689D01*
X17719Y73781D01*
X17240Y73827D01*
X17196D01*
X17785Y73873D01*
X18550Y74057D01*
X19096Y74283D01*
Y73366D01*
G37*
G36*
Y65653D02*X19043Y65678D01*
X18928Y65710D01*
X18811Y65724D01*
X18692Y65719D01*
X18576Y65696D01*
X18465Y65653D01*
X18155Y65523D01*
X17833Y65428D01*
X17503Y65363D01*
X17168Y65331D01*
X16832D01*
X16497Y65363D01*
X16300Y65402D01*
Y72252D01*
X16497Y72291D01*
X16832Y72323D01*
X17168D01*
X17503Y72291D01*
X17833Y72226D01*
X18155Y72131D01*
X18467Y72005D01*
X18577Y71962D01*
X18692Y71939D01*
X18810Y71934D01*
X18928Y71948D01*
X19041Y71980D01*
X19096Y72005D01*
Y65653D01*
G37*
G36*
Y46657D02*X18661Y46691D01*
X17975Y46637D01*
X17307Y46476D01*
X16671Y46213D01*
X16300Y45986D01*
Y63871D01*
X16760Y63827D01*
X17240D01*
X17719Y63873D01*
X18191Y63965D01*
X18652Y64102D01*
X19096Y64281D01*
Y46657D01*
G37*
G36*
Y2067D02*X16300D01*
Y29021D01*
X16605Y29034D01*
X16909Y29075D01*
X17209Y29143D01*
X17500Y29237D01*
X17783Y29357D01*
X17852Y29396D01*
X17913Y29445D01*
X17966Y29504D01*
X18009Y29571D01*
X18041Y29643D01*
X18062Y29719D01*
X18070Y29798D01*
X18066Y29877D01*
X18049Y29954D01*
X18021Y30028D01*
X17981Y30096D01*
X17931Y30158D01*
X17873Y30211D01*
X17806Y30254D01*
X17734Y30286D01*
X17658Y30306D01*
X17579Y30315D01*
X17500Y30311D01*
X17423Y30294D01*
X17350Y30264D01*
X17150Y30177D01*
X16944Y30111D01*
X16732Y30063D01*
X16516Y30034D01*
X16300Y30024D01*
Y34906D01*
X16516Y34896D01*
X16732Y34867D01*
X16944Y34819D01*
X17150Y34753D01*
X17351Y34668D01*
X17423Y34638D01*
X17500Y34622D01*
X17579Y34618D01*
X17657Y34626D01*
X17733Y34646D01*
X17805Y34678D01*
X17871Y34721D01*
X17930Y34774D01*
X17979Y34835D01*
X18019Y34903D01*
X18047Y34977D01*
X18063Y35053D01*
X18067Y35132D01*
X18059Y35210D01*
X18039Y35286D01*
X18007Y35358D01*
X17964Y35424D01*
X17911Y35483D01*
X17850Y35532D01*
X17781Y35570D01*
X17500Y35693D01*
X17209Y35787D01*
X16909Y35855D01*
X16605Y35896D01*
X16300Y35909D01*
Y38630D01*
X16671Y38403D01*
X17307Y38140D01*
X17975Y37979D01*
X18661Y37925D01*
X19096Y37959D01*
Y34214D01*
X19045Y34228D01*
X18966Y34236D01*
X18887Y34232D01*
X18810Y34215D01*
X18736Y34187D01*
X18668Y34147D01*
X18606Y34097D01*
X18553Y34039D01*
X18510Y33972D01*
X18478Y33900D01*
X18458Y33824D01*
X18449Y33745D01*
X18453Y33666D01*
X18470Y33589D01*
X18500Y33516D01*
X18587Y33316D01*
X18653Y33110D01*
X18701Y32898D01*
X18730Y32682D01*
X18740Y32465D01*
X18730Y32248D01*
X18701Y32032D01*
X18653Y31820D01*
X18587Y31614D01*
X18502Y31413D01*
X18472Y31341D01*
X18456Y31264D01*
X18452Y31185D01*
X18460Y31107D01*
X18480Y31031D01*
X18512Y30959D01*
X18555Y30893D01*
X18608Y30834D01*
X18669Y30785D01*
X18737Y30745D01*
X18810Y30717D01*
X18887Y30701D01*
X18966Y30697D01*
X19044Y30705D01*
X19096Y30719D01*
Y2067D01*
G37*
G36*
X16300Y383859D02*X19096D01*
Y331564D01*
X18661Y331598D01*
X17975Y331544D01*
X17307Y331383D01*
X16671Y331120D01*
X16300Y330893D01*
Y383859D01*
G37*
G36*
X13502Y75239D02*X14052Y74769D01*
X14723Y74358D01*
X15450Y74057D01*
X16215Y73873D01*
X16300Y73867D01*
Y73783D01*
X16281Y73781D01*
X15809Y73689D01*
X15348Y73552D01*
X14902Y73372D01*
X14798Y73314D01*
X14705Y73241D01*
X14625Y73154D01*
X14559Y73055D01*
X14509Y72947D01*
X14477Y72833D01*
X14463Y72715D01*
X14468Y72596D01*
X14491Y72480D01*
X14532Y72369D01*
X14590Y72265D01*
X14664Y72172D01*
X14751Y72092D01*
X14850Y72026D01*
X14957Y71976D01*
X15072Y71944D01*
X15189Y71930D01*
X15308Y71935D01*
X15424Y71958D01*
X15535Y72001D01*
X15845Y72131D01*
X16167Y72226D01*
X16300Y72252D01*
Y65402D01*
X16167Y65428D01*
X15845Y65523D01*
X15533Y65649D01*
X15423Y65692D01*
X15308Y65715D01*
X15190Y65720D01*
X15072Y65706D01*
X14959Y65674D01*
X14852Y65625D01*
X14753Y65559D01*
X14667Y65479D01*
X14593Y65387D01*
X14536Y65284D01*
X14495Y65173D01*
X14472Y65057D01*
X14467Y64939D01*
X14481Y64822D01*
X14513Y64708D01*
X14562Y64601D01*
X14628Y64503D01*
X14708Y64416D01*
X14801Y64343D01*
X14904Y64287D01*
X15348Y64102D01*
X15809Y63965D01*
X16281Y63873D01*
X16300Y63871D01*
Y45986D01*
X16085Y45854D01*
X15562Y45407D01*
X15115Y44884D01*
X14756Y44298D01*
X14493Y43662D01*
X14332Y42994D01*
X14278Y42308D01*
X14332Y41622D01*
X14493Y40954D01*
X14756Y40318D01*
X15115Y39732D01*
X15562Y39209D01*
X16085Y38762D01*
X16300Y38630D01*
Y35909D01*
X16299Y35909D01*
X15993Y35896D01*
X15689Y35855D01*
X15389Y35787D01*
X15098Y35693D01*
X14815Y35573D01*
X14746Y35534D01*
X14685Y35485D01*
X14632Y35426D01*
X14589Y35359D01*
X14557Y35287D01*
X14536Y35211D01*
X14528Y35132D01*
X14532Y35053D01*
X14549Y34976D01*
X14577Y34902D01*
X14617Y34834D01*
X14667Y34772D01*
X14725Y34719D01*
X14792Y34676D01*
X14864Y34644D01*
X14940Y34624D01*
X15019Y34615D01*
X15098Y34619D01*
X15175Y34636D01*
X15248Y34666D01*
X15448Y34753D01*
X15654Y34819D01*
X15866Y34867D01*
X16082Y34896D01*
X16299Y34906D01*
X16300Y34906D01*
Y30024D01*
X16299Y30024D01*
X16082Y30034D01*
X15866Y30063D01*
X15654Y30111D01*
X15448Y30177D01*
X15247Y30262D01*
X15175Y30292D01*
X15098Y30308D01*
X15019Y30312D01*
X14941Y30304D01*
X14865Y30284D01*
X14793Y30252D01*
X14727Y30209D01*
X14668Y30156D01*
X14619Y30095D01*
X14579Y30027D01*
X14551Y29954D01*
X14535Y29877D01*
X14531Y29798D01*
X14539Y29720D01*
X14559Y29644D01*
X14591Y29572D01*
X14634Y29506D01*
X14687Y29447D01*
X14748Y29398D01*
X14817Y29360D01*
X15098Y29237D01*
X15389Y29143D01*
X15689Y29075D01*
X15993Y29034D01*
X16299Y29021D01*
X16300Y29021D01*
Y2067D01*
X13502D01*
Y30716D01*
X13553Y30702D01*
X13632Y30694D01*
X13711Y30698D01*
X13788Y30715D01*
X13862Y30743D01*
X13930Y30783D01*
X13992Y30833D01*
X14045Y30891D01*
X14088Y30958D01*
X14120Y31030D01*
X14140Y31106D01*
X14149Y31185D01*
X14145Y31264D01*
X14128Y31341D01*
X14098Y31414D01*
X14011Y31614D01*
X13945Y31820D01*
X13897Y32032D01*
X13868Y32248D01*
X13858Y32465D01*
X13868Y32682D01*
X13897Y32898D01*
X13945Y33110D01*
X14011Y33316D01*
X14096Y33517D01*
X14126Y33589D01*
X14142Y33666D01*
X14146Y33745D01*
X14138Y33823D01*
X14118Y33899D01*
X14086Y33971D01*
X14043Y34037D01*
X13990Y34096D01*
X13929Y34145D01*
X13861Y34185D01*
X13787Y34213D01*
X13711Y34229D01*
X13632Y34233D01*
X13554Y34225D01*
X13502Y34211D01*
Y66383D01*
X13562Y66417D01*
X13655Y66491D01*
X13735Y66578D01*
X13801Y66677D01*
X13851Y66784D01*
X13883Y66899D01*
X13897Y67016D01*
X13892Y67135D01*
X13869Y67251D01*
X13826Y67362D01*
X13696Y67672D01*
X13601Y67994D01*
X13536Y68324D01*
X13504Y68659D01*
Y68995D01*
X13536Y69330D01*
X13601Y69660D01*
X13696Y69982D01*
X13822Y70294D01*
X13865Y70404D01*
X13888Y70519D01*
X13893Y70637D01*
X13879Y70755D01*
X13847Y70868D01*
X13798Y70975D01*
X13732Y71074D01*
X13652Y71160D01*
X13560Y71234D01*
X13502Y71266D01*
Y75239D01*
G37*
G36*
Y383859D02*X16300D01*
Y330893D01*
X16085Y330761D01*
X15562Y330314D01*
X15115Y329791D01*
X14756Y329205D01*
X14493Y328569D01*
X14332Y327901D01*
X14278Y327215D01*
X14332Y326529D01*
X14493Y325861D01*
X14756Y325225D01*
X15115Y324639D01*
X15562Y324116D01*
X16085Y323669D01*
X16300Y323537D01*
Y320816D01*
X16299Y320816D01*
X15993Y320803D01*
X15689Y320762D01*
X15389Y320694D01*
X15098Y320600D01*
X14815Y320480D01*
X14746Y320441D01*
X14685Y320392D01*
X14632Y320333D01*
X14589Y320266D01*
X14557Y320194D01*
X14536Y320118D01*
X14528Y320039D01*
X14532Y319960D01*
X14549Y319883D01*
X14577Y319809D01*
X14617Y319741D01*
X14667Y319679D01*
X14725Y319626D01*
X14792Y319583D01*
X14864Y319551D01*
X14940Y319531D01*
X15019Y319522D01*
X15098Y319526D01*
X15175Y319543D01*
X15248Y319573D01*
X15448Y319660D01*
X15654Y319726D01*
X15866Y319774D01*
X16082Y319803D01*
X16299Y319813D01*
X16300Y319813D01*
Y314931D01*
X16299Y314931D01*
X16082Y314941D01*
X15866Y314970D01*
X15654Y315018D01*
X15448Y315084D01*
X15247Y315169D01*
X15175Y315199D01*
X15098Y315215D01*
X15019Y315219D01*
X14941Y315211D01*
X14865Y315191D01*
X14793Y315159D01*
X14727Y315116D01*
X14668Y315063D01*
X14619Y315002D01*
X14579Y314934D01*
X14551Y314860D01*
X14535Y314784D01*
X14531Y314705D01*
X14539Y314627D01*
X14559Y314551D01*
X14591Y314479D01*
X14634Y314413D01*
X14687Y314354D01*
X14748Y314305D01*
X14817Y314267D01*
X15098Y314144D01*
X15389Y314050D01*
X15689Y313982D01*
X15993Y313941D01*
X16299Y313928D01*
X16300Y313928D01*
Y83787D01*
X16215Y83781D01*
X15450Y83597D01*
X14723Y83296D01*
X14052Y82885D01*
X13502Y82415D01*
Y315623D01*
X13553Y315609D01*
X13632Y315601D01*
X13711Y315605D01*
X13788Y315622D01*
X13862Y315650D01*
X13930Y315690D01*
X13992Y315740D01*
X14045Y315798D01*
X14088Y315865D01*
X14120Y315937D01*
X14140Y316013D01*
X14149Y316092D01*
X14145Y316171D01*
X14128Y316248D01*
X14098Y316321D01*
X14011Y316521D01*
X13945Y316727D01*
X13897Y316939D01*
X13868Y317155D01*
X13858Y317372D01*
X13868Y317589D01*
X13897Y317805D01*
X13945Y318017D01*
X14011Y318223D01*
X14096Y318424D01*
X14126Y318496D01*
X14142Y318573D01*
X14146Y318652D01*
X14138Y318730D01*
X14118Y318806D01*
X14086Y318878D01*
X14043Y318944D01*
X13990Y319003D01*
X13929Y319052D01*
X13861Y319092D01*
X13787Y319120D01*
X13711Y319136D01*
X13632Y319140D01*
X13554Y319132D01*
X13502Y319118D01*
Y383859D01*
G37*
G36*
X1968D02*X13502D01*
Y319118D01*
X13478Y319112D01*
X13406Y319080D01*
X13340Y319037D01*
X13281Y318984D01*
X13232Y318923D01*
X13194Y318854D01*
X13071Y318573D01*
X12977Y318282D01*
X12909Y317982D01*
X12868Y317678D01*
X12855Y317372D01*
X12868Y317066D01*
X12909Y316762D01*
X12977Y316462D01*
X13071Y316171D01*
X13191Y315888D01*
X13230Y315819D01*
X13279Y315758D01*
X13338Y315705D01*
X13405Y315662D01*
X13477Y315630D01*
X13502Y315623D01*
Y82415D01*
X13454Y82373D01*
X12942Y81775D01*
X12531Y81104D01*
X12230Y80377D01*
X12046Y79612D01*
X11985Y78827D01*
X12046Y78042D01*
X12230Y77277D01*
X12531Y76550D01*
X12942Y75879D01*
X13454Y75281D01*
X13502Y75239D01*
Y71266D01*
X13457Y71291D01*
X13346Y71332D01*
X13230Y71355D01*
X13112Y71360D01*
X12995Y71346D01*
X12881Y71314D01*
X12774Y71265D01*
X12676Y71199D01*
X12589Y71119D01*
X12516Y71026D01*
X12460Y70923D01*
X12275Y70479D01*
X12138Y70018D01*
X12046Y69546D01*
X12000Y69067D01*
Y68587D01*
X12046Y68108D01*
X12138Y67636D01*
X12275Y67175D01*
X12455Y66729D01*
X12513Y66625D01*
X12586Y66532D01*
X12673Y66452D01*
X12772Y66386D01*
X12880Y66336D01*
X12994Y66304D01*
X13112Y66290D01*
X13231Y66295D01*
X13347Y66318D01*
X13458Y66359D01*
X13502Y66383D01*
Y34211D01*
X13478Y34205D01*
X13406Y34173D01*
X13340Y34130D01*
X13281Y34077D01*
X13232Y34016D01*
X13194Y33947D01*
X13071Y33666D01*
X12977Y33375D01*
X12909Y33075D01*
X12868Y32771D01*
X12855Y32465D01*
X12868Y32159D01*
X12909Y31855D01*
X12977Y31555D01*
X13071Y31264D01*
X13191Y30981D01*
X13230Y30912D01*
X13279Y30851D01*
X13338Y30798D01*
X13405Y30755D01*
X13477Y30723D01*
X13502Y30716D01*
Y2067D01*
X1968D01*
Y383859D01*
G37*
G54D12*X100368Y320883D02*X138719D01*
X139511Y320091D01*
X82656Y265939D02*X97438Y280721D01*
X149354D01*
X82656Y255939D02*X98400D01*
X108240Y246099D01*
X139728D01*
X43465Y316978D02*X69424D01*
X73661Y321215D01*
X90036D01*
X90368Y320883D01*
X49661Y259215D02*X60612D01*
X61000Y258827D01*
X159197Y320091D02*Y290564D01*
X149354Y280721D01*
X141103Y244990D02*X181915D01*
X196800Y259875D01*
Y301189D01*
X196786Y301203D01*
X221115Y234990D02*X246000Y259875D01*
X231803Y164990D02*X291264Y224451D01*
Y301203D01*
X326688Y192963D02*Y301203D01*
X246000Y259875D02*Y301203D01*
X381103Y204990D02*X381998Y204095D01*
X141103Y164990D02*X231803D01*
X141103Y144990D02*X278715D01*
X326688Y192963D01*
X139728Y246099D02*X140837Y244990D01*
X141103Y102803D02*Y144990D01*
X140522Y155571D02*X141103Y154990D01*
X63685Y45071D02*X102278Y83664D01*
X112121Y44294D02*X121964Y54137D01*
Y83664D01*
X141103Y102803D01*
X63829Y45215D02*X50685Y32071D01*
X43465D01*
X141103Y234990D02*X221115D01*
X29520Y224451D02*X92496D01*
X102336Y234291D01*
X140404D01*
X141103Y234990D01*
X29520Y214451D02*X65104D01*
X123984Y155571D01*
X140522D01*
X29520Y194451D02*X51425D01*
X56661Y189215D01*
X66612D01*
X67000Y188827D01*
X29520Y265299D02*X43577D01*
X49661Y259215D01*
G54D13*X29520Y224451D03*
X82656Y245939D03*
G54D11*G36*
X79156Y269439D02*Y262439D01*
X86156D01*
Y269439D01*
X79156D01*
G37*
G54D13*X82656Y255939D03*
X61000Y248827D03*
Y258827D03*
X29520Y275299D03*
Y285299D03*
Y295299D03*
G54D14*X16299Y317372D03*
X43465Y316978D03*
G54D15*X18661Y327215D03*
X42283D03*
G54D14*X50551Y335679D03*
G54D11*G36*
X26020Y248799D02*Y241799D01*
X33020D01*
Y248799D01*
X26020D01*
G37*
G54D13*X29520Y255299D03*
Y265299D03*
G54D16*X100368Y320883D03*
G54D17*X102278Y83664D03*
X112121Y44294D03*
X121964Y83664D03*
G54D13*X141103Y244990D03*
Y234990D03*
Y224990D03*
Y214990D03*
Y204990D03*
Y194990D03*
Y184990D03*
Y174990D03*
Y164990D03*
Y154990D03*
Y144990D03*
G54D11*G36*
X87368Y323883D02*Y317883D01*
X93368D01*
Y323883D01*
X87368D01*
G37*
G54D17*X139511Y320091D03*
X159197D03*
G54D11*G36*
X242500Y304703D02*Y297703D01*
X249500D01*
Y304703D01*
X242500D01*
G37*
G36*
X287764D02*Y297703D01*
X294764D01*
Y304703D01*
X287764D01*
G37*
G36*
X193286D02*Y297703D01*
X200286D01*
Y304703D01*
X193286D01*
G37*
G54D17*X149354Y280721D03*
G54D13*X381103Y224990D03*
G54D11*G36*
X323188Y304703D02*Y297703D01*
X330188D01*
Y304703D01*
X323188D01*
G37*
G54D13*X381103Y214990D03*
Y204990D03*
Y194990D03*
Y184990D03*
D03*
G54D14*X16299Y32465D03*
X43465Y32071D03*
G54D15*X18661Y42308D03*
X42283D03*
G54D13*X17000Y78827D03*
Y68827D03*
G54D14*X50551Y50772D03*
G54D18*X42335Y104759D03*
Y144759D03*
G54D19*X62335Y114759D03*
Y124759D03*
G54D11*G36*
X85560Y168411D02*Y162411D01*
X91560D01*
Y168411D01*
X85560D01*
G37*
G54D16*X88560Y155411D03*
G54D11*G36*
X26020Y177951D02*Y170951D01*
X33020D01*
Y177951D01*
X26020D01*
G37*
G54D13*X29520Y184451D03*
Y194451D03*
Y204451D03*
Y214451D03*
X67000Y178827D03*
Y188827D03*
X362500Y301327D03*
X392000D03*
G54D20*G54D21*G54D22*G54D21*G54D20*G54D23*G54D24*G54D25*G54D23*G54D24*G54D20*G54D24*G54D25*G54D20*G54D25*G54D21*G54D22*G54D20*G54D21*G54D26*G54D27*G54D23*G54D20*M02*
