G04 start of page 13 for group -4079 idx -4079 *
G04 Title: uhx1_board, topsilk *
G04 Creator: pcb 20110918 *
G04 CreationDate: Thu Mar 28 17:04:58 2013 UTC *
G04 For: alpsayin *
G04 Format: Gerber/RS-274X *
G04 PCB-Dimensions: 472441 385827 *
G04 PCB-Coordinate-Origin: lower left *
%MOIN*%
%FSLAX25Y25*%
%LNTOPSILK*%
%ADD172C,0.0200*%
%ADD171C,0.0165*%
%ADD170C,0.0132*%
%ADD169C,0.0100*%
%ADD168C,0.0150*%
G54D168*X397536Y307107D02*Y295299D01*
X385728D01*
Y307107D01*
X397536D02*X385728D01*
X356208D02*Y295299D01*
X368016D01*
Y307107D01*
X356208D01*
X5904Y379923D02*Y6003D01*
X466416D01*
Y379923D01*
X5904D01*
G54D169*X360176Y313979D02*X360676Y313479D01*
X358676Y313979D02*X360176D01*
X358176Y313479D02*X358676Y313979D01*
X358176Y313479D02*Y310479D01*
X358676Y309979D01*
X360176D01*
X360676Y310479D01*
Y311479D02*Y310479D01*
X360176Y311979D02*X360676Y311479D01*
X359176Y311979D02*X360176D01*
X361876Y313979D02*Y309979D01*
Y313979D02*X364376Y309979D01*
Y313979D02*Y309979D01*
X366076Y313979D02*Y309979D01*
X367376Y313979D02*X368076Y313279D01*
Y310679D01*
X367376Y309979D02*X368076Y310679D01*
X365576Y309979D02*X367376D01*
X365576Y313979D02*X367376D01*
X387728D02*X388228Y313479D01*
X386228Y313979D02*X387728D01*
X385728Y313479D02*X386228Y313979D01*
X385728Y313479D02*Y310479D01*
X386228Y309979D01*
X387728D01*
X388228Y310479D01*
Y311479D02*Y310479D01*
X387728Y311979D02*X388228Y311479D01*
X386728Y311979D02*X387728D01*
X389428Y313979D02*Y309979D01*
Y313979D02*X391928Y309979D01*
Y313979D02*Y309979D01*
X393628Y313979D02*Y309979D01*
X394928Y313979D02*X395628Y313279D01*
Y310679D01*
X394928Y309979D02*X395628Y310679D01*
X393128Y309979D02*X394928D01*
X393128Y313979D02*X394928D01*
G54D170*X23616Y364815D02*X30216D01*
X31866Y363165D01*
Y359865D01*
X30216Y358215D02*X31866Y359865D01*
X25266Y358215D02*X30216D01*
X25266Y364815D02*Y351615D01*
X27906Y358215D02*X31866Y351615D01*
X40776Y358215D02*X42426Y356565D01*
X37476Y358215D02*X40776D01*
X35826Y356565D02*X37476Y358215D01*
X35826Y356565D02*Y353265D01*
X37476Y351615D01*
X42426Y358215D02*Y353265D01*
X44076Y351615D01*
X37476D02*X40776D01*
X42426Y353265D01*
X54636Y364815D02*Y351615D01*
X52986D02*X54636Y353265D01*
X49686Y351615D02*X52986D01*
X48036Y353265D02*X49686Y351615D01*
X48036Y356565D02*Y353265D01*
Y356565D02*X49686Y358215D01*
X52986D01*
X54636Y356565D01*
G54D171*X58596Y361515D02*Y361185D01*
G54D170*Y356565D02*Y351615D01*
X61896Y356565D02*Y353265D01*
Y356565D02*X63546Y358215D01*
X66846D01*
X68496Y356565D01*
Y353265D01*
X66846Y351615D02*X68496Y353265D01*
X63546Y351615D02*X66846D01*
X61896Y353265D02*X63546Y351615D01*
X74106Y356565D02*Y351615D01*
Y356565D02*X75756Y358215D01*
X77406D01*
X79056Y356565D01*
Y351615D01*
Y356565D02*X80706Y358215D01*
X82356D01*
X84006Y356565D01*
Y351615D01*
X72456Y358215D02*X74106Y356565D01*
X89616Y351615D02*X94566D01*
X87966Y353265D02*X89616Y351615D01*
X87966Y356565D02*Y353265D01*
Y356565D02*X89616Y358215D01*
X92916D01*
X94566Y356565D01*
X87966Y354915D02*X94566D01*
Y356565D02*Y354915D01*
X100176Y364815D02*Y353265D01*
X101826Y351615D01*
X98526Y359865D02*X101826D01*
X106776Y356565D02*Y351615D01*
Y356565D02*X108426Y358215D01*
X111726D01*
X105126D02*X106776Y356565D01*
G54D171*X115686Y361515D02*Y361185D01*
G54D170*Y356565D02*Y351615D01*
X118986Y358215D02*X125586Y351615D01*
X118986D02*X125586Y358215D01*
X135486Y364815D02*Y353265D01*
X137136Y351615D01*
X140436D01*
X142086Y353265D01*
Y364815D02*Y353265D01*
X146046Y364815D02*Y351615D01*
X154296Y364815D02*Y351615D01*
X146046Y358215D02*X154296D01*
X158256Y351615D02*X166506Y364815D01*
X158256D02*X166506Y351615D01*
X170466Y362175D02*X173106Y364815D01*
Y351615D01*
X170466D02*X175416D01*
X191916Y364815D02*X193566Y363165D01*
X186966Y364815D02*X191916D01*
X185316Y363165D02*X186966Y364815D01*
X185316Y363165D02*Y359865D01*
X186966Y358215D01*
X191916D01*
X193566Y356565D01*
Y353265D01*
X191916Y351615D02*X193566Y353265D01*
X186966Y351615D02*X191916D01*
X185316Y353265D02*X186966Y351615D01*
X197526Y356565D02*Y353265D01*
Y356565D02*X199176Y358215D01*
X202476D01*
X204126Y356565D01*
Y353265D01*
X202476Y351615D02*X204126Y353265D01*
X199176Y351615D02*X202476D01*
X197526Y353265D02*X199176Y351615D01*
X208086Y358215D02*Y353265D01*
X209736Y351615D01*
X213036D01*
X214686Y353265D01*
Y358215D02*Y353265D01*
X220296Y356565D02*Y351615D01*
Y356565D02*X221946Y358215D01*
X223596D01*
X225246Y356565D01*
Y351615D01*
X218646Y358215D02*X220296Y356565D01*
X235806Y364815D02*Y351615D01*
X234156D02*X235806Y353265D01*
X230856Y351615D02*X234156D01*
X229206Y353265D02*X230856Y351615D01*
X229206Y356565D02*Y353265D01*
Y356565D02*X230856Y358215D01*
X234156D01*
X235806Y356565D01*
X241416D02*Y351615D01*
Y356565D02*X243066Y358215D01*
X244716D01*
X246366Y356565D01*
Y351615D01*
Y356565D02*X248016Y358215D01*
X249666D01*
X251316Y356565D01*
Y351615D01*
X239766Y358215D02*X241416Y356565D01*
X255276D02*Y353265D01*
Y356565D02*X256926Y358215D01*
X260226D01*
X261876Y356565D01*
Y353265D01*
X260226Y351615D02*X261876Y353265D01*
X256926Y351615D02*X260226D01*
X255276Y353265D02*X256926Y351615D01*
X272436Y364815D02*Y351615D01*
X270786D02*X272436Y353265D01*
X267486Y351615D02*X270786D01*
X265836Y353265D02*X267486Y351615D01*
X265836Y356565D02*Y353265D01*
Y356565D02*X267486Y358215D01*
X270786D01*
X272436Y356565D01*
X278046Y351615D02*X282996D01*
X276396Y353265D02*X278046Y351615D01*
X276396Y356565D02*Y353265D01*
Y356565D02*X278046Y358215D01*
X281346D01*
X282996Y356565D01*
X276396Y354915D02*X282996D01*
Y356565D02*Y354915D01*
X288606Y356565D02*Y351615D01*
Y356565D02*X290256Y358215D01*
X291906D01*
X293556Y356565D01*
Y351615D01*
Y356565D02*X295206Y358215D01*
X296856D01*
X298506Y356565D01*
Y351615D01*
X286956Y358215D02*X288606Y356565D01*
X302466Y353265D02*X312366Y363165D01*
X316326Y364815D02*Y353265D01*
X317976Y351615D01*
X321276D01*
X322926Y353265D01*
Y364815D02*Y353265D01*
X326886Y361515D02*Y351615D01*
Y361515D02*X329196Y364815D01*
X332826D01*
X335136Y361515D01*
Y351615D01*
X326886Y358215D02*X335136D01*
X339096Y364815D02*X345696D01*
X347346Y363165D01*
Y359865D01*
X345696Y358215D02*X347346Y359865D01*
X340746Y358215D02*X345696D01*
X340746Y364815D02*Y351615D01*
X343386Y358215D02*X347346Y351615D01*
X351306Y364815D02*X357906D01*
X354606D02*Y351615D01*
X367806Y364815D02*X371106D01*
X369456D02*Y351615D01*
X367806D02*X371106D01*
X376716Y356565D02*Y351615D01*
Y356565D02*X378366Y358215D01*
X380016D01*
X381666Y356565D01*
Y351615D01*
X375066Y358215D02*X376716Y356565D01*
X387276Y364815D02*Y353265D01*
X388926Y351615D01*
X385626Y359865D02*X388926D01*
X393876Y351615D02*X398826D01*
X392226Y353265D02*X393876Y351615D01*
X392226Y356565D02*Y353265D01*
Y356565D02*X393876Y358215D01*
X397176D01*
X398826Y356565D01*
X392226Y354915D02*X398826D01*
Y356565D02*Y354915D01*
X404436Y356565D02*Y351615D01*
Y356565D02*X406086Y358215D01*
X409386D01*
X402786D02*X404436Y356565D01*
X414996Y363165D02*Y351615D01*
Y363165D02*X416646Y364815D01*
X418296D01*
X413346Y358215D02*X416646D01*
X426546D02*X428196Y356565D01*
X423246Y358215D02*X426546D01*
X421596Y356565D02*X423246Y358215D01*
X421596Y356565D02*Y353265D01*
X423246Y351615D01*
X428196Y358215D02*Y353265D01*
X429846Y351615D01*
X423246D02*X426546D01*
X428196Y353265D01*
X435456Y358215D02*X440406D01*
X433806Y356565D02*X435456Y358215D01*
X433806Y356565D02*Y353265D01*
X435456Y351615D01*
X440406D01*
X446016D02*X450966D01*
X444366Y353265D02*X446016Y351615D01*
X444366Y356565D02*Y353265D01*
Y356565D02*X446016Y358215D01*
X449316D01*
X450966Y356565D01*
X444366Y354915D02*X450966D01*
Y356565D02*Y354915D01*
G54D169*X39392Y178187D02*X39892Y177687D01*
X37892Y178187D02*X39392D01*
X37392Y177687D02*X37892Y178187D01*
X37392Y177687D02*Y174687D01*
X37892Y174187D01*
X39392D01*
X39892Y174687D01*
Y175687D02*Y174687D01*
X39392Y176187D02*X39892Y175687D01*
X38392Y176187D02*X39392D01*
X41092Y178187D02*Y174187D01*
Y178187D02*X43592Y174187D01*
Y178187D02*Y174187D01*
X45292Y178187D02*Y174187D01*
X46592Y178187D02*X47292Y177487D01*
Y174887D01*
X46592Y174187D02*X47292Y174887D01*
X44792Y174187D02*X46592D01*
X44792Y178187D02*X46592D01*
X38092Y184027D02*X39392D01*
X37392Y184727D02*X38092Y184027D01*
X37392Y187327D02*Y184727D01*
Y187327D02*X38092Y188027D01*
X39392D01*
X40592D02*X42592D01*
X41592D02*Y184027D01*
X45792Y188027D02*X46292Y187527D01*
X44292Y188027D02*X45792D01*
X43792Y187527D02*X44292Y188027D01*
X43792Y187527D02*Y186527D01*
X44292Y186027D01*
X45792D01*
X46292Y185527D01*
Y184527D01*
X45792Y184027D02*X46292Y184527D01*
X44292Y184027D02*X45792D01*
X43792Y184527D02*X44292Y184027D01*
X37392Y197867D02*X38392Y193867D01*
X39392Y197867D01*
X41292Y193867D02*X42592D01*
X40592Y194567D02*X41292Y193867D01*
X40592Y197167D02*Y194567D01*
Y197167D02*X41292Y197867D01*
X42592D01*
X44492Y193867D02*X45792D01*
X43792Y194567D02*X44492Y193867D01*
X43792Y197167D02*Y194567D01*
Y197167D02*X44492Y197867D01*
X45792D01*
X36776Y206707D02*X38776D01*
X37776D02*Y202707D01*
X39976Y204707D02*X41976Y202707D01*
X39976D02*X41976Y204707D01*
X43676Y206707D02*Y202707D01*
X44976Y206707D02*X45676Y206007D01*
Y203407D01*
X44976Y202707D02*X45676Y203407D01*
X43176Y202707D02*X44976D01*
X43176Y206707D02*X44976D01*
X36776Y215547D02*X38776D01*
X39276Y215047D01*
Y214047D01*
X38776Y213547D02*X39276Y214047D01*
X37276Y213547D02*X38776D01*
X37276Y215547D02*Y211547D01*
X38076Y213547D02*X39276Y211547D01*
X40476Y213547D02*X42476Y211547D01*
X40476D02*X42476Y213547D01*
X44176Y215547D02*Y211547D01*
X45476Y215547D02*X46176Y214847D01*
Y212247D01*
X45476Y211547D02*X46176Y212247D01*
X43676Y211547D02*X45476D01*
X43676Y215547D02*X45476D01*
X36808Y225419D02*X38808D01*
X39308Y224919D01*
Y223919D01*
X38808Y223419D02*X39308Y223919D01*
X37308Y223419D02*X38808D01*
X37308Y225419D02*Y221419D01*
X38108Y223419D02*X39308Y221419D01*
X40508Y225419D02*X42508D01*
X41508D02*Y221419D01*
X45708Y225419D02*X46208Y224919D01*
X44208Y225419D02*X45708D01*
X43708Y224919D02*X44208Y225419D01*
X43708Y224919D02*Y223919D01*
X44208Y223419D01*
X45708D01*
X46208Y222919D01*
Y221919D01*
X45708Y221419D02*X46208Y221919D01*
X44208Y221419D02*X45708D01*
X43708Y221919D02*X44208Y221419D01*
X39392Y249187D02*X39892Y248687D01*
X37892Y249187D02*X39392D01*
X37392Y248687D02*X37892Y249187D01*
X37392Y248687D02*Y245687D01*
X37892Y245187D01*
X39392D01*
X39892Y245687D01*
Y246687D02*Y245687D01*
X39392Y247187D02*X39892Y246687D01*
X38392Y247187D02*X39392D01*
X41092Y249187D02*Y245187D01*
Y249187D02*X43592Y245187D01*
Y249187D02*Y245187D01*
X45292Y249187D02*Y245187D01*
X46592Y249187D02*X47292Y248487D01*
Y245887D01*
X46592Y245187D02*X47292Y245887D01*
X44792Y245187D02*X46592D01*
X44792Y249187D02*X46592D01*
X38092Y255027D02*X39392D01*
X37392Y255727D02*X38092Y255027D01*
X37392Y258327D02*Y255727D01*
Y258327D02*X38092Y259027D01*
X39392D01*
X40592D02*X42592D01*
X41592D02*Y255027D01*
X45792Y259027D02*X46292Y258527D01*
X44292Y259027D02*X45792D01*
X43792Y258527D02*X44292Y259027D01*
X43792Y258527D02*Y257527D01*
X44292Y257027D01*
X45792D01*
X46292Y256527D01*
Y255527D01*
X45792Y255027D02*X46292Y255527D01*
X44292Y255027D02*X45792D01*
X43792Y255527D02*X44292Y255027D01*
X37392Y268867D02*X38392Y264867D01*
X39392Y268867D01*
X41292Y264867D02*X42592D01*
X40592Y265567D02*X41292Y264867D01*
X40592Y268167D02*Y265567D01*
Y268167D02*X41292Y268867D01*
X42592D01*
X44492Y264867D02*X45792D01*
X43792Y265567D02*X44492Y264867D01*
X43792Y268167D02*Y265567D01*
Y268167D02*X44492Y268867D01*
X45792D01*
X36776Y277707D02*X38776D01*
X37776D02*Y273707D01*
X39976Y275707D02*X41976Y273707D01*
X39976D02*X41976Y275707D01*
X43676Y277707D02*Y273707D01*
X44976Y277707D02*X45676Y277007D01*
Y274407D01*
X44976Y273707D02*X45676Y274407D01*
X43176Y273707D02*X44976D01*
X43176Y277707D02*X44976D01*
X36776Y287547D02*X38776D01*
X39276Y287047D01*
Y286047D01*
X38776Y285547D02*X39276Y286047D01*
X37276Y285547D02*X38776D01*
X37276Y287547D02*Y283547D01*
X38076Y285547D02*X39276Y283547D01*
X40476Y285547D02*X42476Y283547D01*
X40476D02*X42476Y285547D01*
X44176Y287547D02*Y283547D01*
X45476Y287547D02*X46176Y286847D01*
Y284247D01*
X45476Y283547D02*X46176Y284247D01*
X43676Y283547D02*X45476D01*
X43676Y287547D02*X45476D01*
X36808Y295419D02*X38808D01*
X39308Y294919D01*
Y293919D01*
X38808Y293419D02*X39308Y293919D01*
X37308Y293419D02*X38808D01*
X37308Y295419D02*Y291419D01*
X38108Y293419D02*X39308Y291419D01*
X40508Y295419D02*X42508D01*
X41508D02*Y291419D01*
X45708Y295419D02*X46208Y294919D01*
X44208Y295419D02*X45708D01*
X43708Y294919D02*X44208Y295419D01*
X43708Y294919D02*Y293919D01*
X44208Y293419D01*
X45708D01*
X46208Y292919D01*
Y291919D01*
X45708Y291419D02*X46208Y291919D01*
X44208Y291419D02*X45708D01*
X43708Y291919D02*X44208Y291419D01*
X104661Y304415D02*X105461Y305215D01*
Y301215D01*
X104661D02*X106161D01*
X107361Y301715D02*X107861Y301215D01*
X107361Y304715D02*Y301715D01*
Y304715D02*X107861Y305215D01*
X108861D01*
X109361Y304715D01*
Y301715D01*
X108861Y301215D02*X109361Y301715D01*
X107861Y301215D02*X108861D01*
X107361Y302215D02*X109361Y304215D01*
X111061Y302715D02*Y301215D01*
Y302715D02*X111561Y303215D01*
X112061D01*
X112561Y302715D01*
Y301215D01*
X110561Y303215D02*X111061Y302715D01*
X147600Y108417D02*X148440Y109257D01*
Y105057D01*
X147600D02*X149175D01*
X150960D02*X152535Y107157D01*
Y108732D02*Y107157D01*
X152010Y109257D02*X152535Y108732D01*
X150960Y109257D02*X152010D01*
X150435Y108732D02*X150960Y109257D01*
X150435Y108732D02*Y107682D01*
X150960Y107157D01*
X152535D01*
X153795Y105057D02*X154320D01*
X155580Y108417D02*X156420Y109257D01*
Y105057D01*
X155580D02*X157155D01*
X158415Y108417D02*X159255Y109257D01*
Y105057D01*
X158415D02*X159990D01*
X161250D02*X161775D01*
X163035Y108732D02*X163560Y109257D01*
X165135D01*
X165660Y108732D01*
Y107682D01*
X163035Y105057D02*X165660Y107682D01*
X163035Y105057D02*X165660D01*
X166920Y105582D02*X167445Y105057D01*
X166920Y108732D02*Y105582D01*
Y108732D02*X167445Y109257D01*
X168495D01*
X169020Y108732D01*
Y105582D01*
X168495Y105057D02*X169020Y105582D01*
X167445Y105057D02*X168495D01*
X166920Y106107D02*X169020Y108207D01*
X170280Y108417D02*X171120Y109257D01*
Y105057D01*
X170280D02*X171855D01*
X173115Y108732D02*X173640Y109257D01*
X175215D01*
X175740Y108732D01*
Y107682D01*
X173115Y105057D02*X175740Y107682D01*
X173115Y105057D02*X175740D01*
X147600Y44767D02*X150200D01*
X150850Y45417D01*
Y46977D02*Y45417D01*
X150200Y47627D02*X150850Y46977D01*
X148250Y47627D02*X150200D01*
X148250Y49967D02*Y44767D01*
X147600Y49967D02*X150200D01*
X150850Y49317D01*
Y48277D01*
X150200Y47627D02*X150850Y48277D01*
X153060Y48667D02*Y48537D01*
Y46717D02*Y43467D01*
X152410Y42817D02*X153060Y43467D01*
X154360Y46717D02*Y45417D01*
Y46717D02*X155010Y47367D01*
X156310D01*
X156960Y46717D01*
Y45417D01*
X156310Y44767D02*X156960Y45417D01*
X155010Y44767D02*X156310D01*
X154360Y45417D02*X155010Y44767D01*
X159170Y46717D02*Y44767D01*
Y46717D02*X159820Y47367D01*
X161120D01*
X158520D02*X159170Y46717D01*
X163330D02*Y44767D01*
Y46717D02*X163980Y47367D01*
X164630D01*
X165280Y46717D01*
Y44767D01*
X162680Y47367D02*X163330Y46717D01*
X169830Y49967D02*Y44767D01*
X169180Y49967D02*X171780D01*
X172430Y49317D01*
Y48017D01*
X171780Y47367D02*X172430Y48017D01*
X169830Y47367D02*X171780D01*
X174640Y44767D02*X176590D01*
X173990Y45417D02*X174640Y44767D01*
X173990Y46717D02*Y45417D01*
Y46717D02*X174640Y47367D01*
X175940D01*
X176590Y46717D01*
X173990Y46067D02*X176590D01*
Y46717D02*Y46067D01*
X178150Y49967D02*Y44767D01*
Y46717D02*X178800Y47367D01*
X180100D01*
X180750Y46717D01*
Y44767D01*
X182960Y46717D02*Y44767D01*
Y46717D02*X183610Y47367D01*
X184910D01*
X182310D02*X182960Y46717D01*
X187120Y44767D02*X189070D01*
X189720Y45417D01*
X189070Y46067D02*X189720Y45417D01*
X187120Y46067D02*X189070D01*
X186470Y46717D02*X187120Y46067D01*
X186470Y46717D02*X187120Y47367D01*
X189070D01*
X189720Y46717D01*
X186470Y45417D02*X187120Y44767D01*
X191280Y46717D02*Y45417D01*
Y46717D02*X191930Y47367D01*
X193230D01*
X193880Y46717D01*
Y45417D01*
X193230Y44767D02*X193880Y45417D01*
X191930Y44767D02*X193230D01*
X191280Y45417D02*X191930Y44767D01*
X196090Y46717D02*Y44767D01*
Y46717D02*X196740Y47367D01*
X197390D01*
X198040Y46717D01*
Y44767D01*
X195440Y47367D02*X196090Y46717D01*
X204672Y49967D02*X207272D01*
X207922Y49317D01*
Y48017D01*
X207272Y47367D02*X207922Y48017D01*
X205322Y47367D02*X207272D01*
X205322Y49967D02*Y44767D01*
X206362Y47367D02*X207922Y44767D01*
X209482Y46717D02*Y45417D01*
Y46717D02*X210132Y47367D01*
X211432D01*
X212082Y46717D01*
Y45417D01*
X211432Y44767D02*X212082Y45417D01*
X210132Y44767D02*X211432D01*
X209482Y45417D02*X210132Y44767D01*
X213642Y49967D02*Y44767D01*
Y45417D02*X214292Y44767D01*
X215592D01*
X216242Y45417D01*
Y46717D02*Y45417D01*
X215592Y47367D02*X216242Y46717D01*
X214292Y47367D02*X215592D01*
X213642Y46717D02*X214292Y47367D01*
X218452Y44767D02*X220402D01*
X217802Y45417D02*X218452Y44767D01*
X217802Y46717D02*Y45417D01*
Y46717D02*X218452Y47367D01*
X219752D01*
X220402Y46717D01*
X217802Y46067D02*X220402D01*
Y46717D02*Y46067D01*
X222612Y46717D02*Y44767D01*
Y46717D02*X223262Y47367D01*
X224562D01*
X221962D02*X222612Y46717D01*
X226772Y49967D02*Y45417D01*
X227422Y44767D01*
X226122Y48017D02*X227422D01*
X231062Y49317D02*Y45417D01*
Y49317D02*X231712Y49967D01*
X233012D01*
X233662Y49317D01*
Y45417D01*
X233012Y44767D02*X233662Y45417D01*
X231712Y44767D02*X233012D01*
X231062Y45417D02*X231712Y44767D01*
X235222Y49967D02*Y45417D01*
X235872Y44767D01*
X237822D02*X239772D01*
X240422Y45417D01*
X239772Y46067D02*X240422Y45417D01*
X237822Y46067D02*X239772D01*
X237172Y46717D02*X237822Y46067D01*
X237172Y46717D02*X237822Y47367D01*
X239772D01*
X240422Y46717D01*
X237172Y45417D02*X237822Y44767D01*
X242632D02*X244582D01*
X245232Y45417D01*
X244582Y46067D02*X245232Y45417D01*
X242632Y46067D02*X244582D01*
X241982Y46717D02*X242632Y46067D01*
X241982Y46717D02*X242632Y47367D01*
X244582D01*
X245232Y46717D01*
X241982Y45417D02*X242632Y44767D01*
X246792Y46717D02*Y45417D01*
Y46717D02*X247442Y47367D01*
X248742D01*
X249392Y46717D01*
Y45417D01*
X248742Y44767D02*X249392Y45417D01*
X247442Y44767D02*X248742D01*
X246792Y45417D02*X247442Y44767D01*
X251602Y46717D02*Y44767D01*
Y46717D02*X252252Y47367D01*
X252902D01*
X253552Y46717D01*
Y44767D01*
X250952Y47367D02*X251602Y46717D01*
X147600Y98767D02*X149300D01*
X148450D02*Y91967D01*
X147600D02*X149300D01*
X151340Y98767D02*Y91967D01*
X154740D01*
X156780Y97917D02*X157630Y98767D01*
X160180D01*
X161030Y97917D01*
Y96217D01*
X156780Y91967D02*X161030Y96217D01*
X156780Y91967D02*X161030D01*
X163070Y97917D02*X163920Y98767D01*
X166470D01*
X167320Y97917D01*
Y96217D01*
X163070Y91967D02*X167320Y96217D01*
X163070Y91967D02*X167320D01*
X169360Y97917D02*X170210Y98767D01*
X172760D01*
X173610Y97917D01*
Y96217D01*
X169360Y91967D02*X173610Y96217D01*
X169360Y91967D02*X173610D01*
X175650D02*X179900Y98767D01*
X175650D02*X179900Y91967D01*
X185000Y98767D02*Y91967D01*
Y98767D02*X187550Y95367D01*
X190100Y98767D01*
Y91967D01*
X194690Y95367D02*X195540Y94517D01*
X192990Y95367D02*X194690D01*
X192140Y94517D02*X192990Y95367D01*
X192140Y94517D02*Y92817D01*
X192990Y91967D01*
X195540Y95367D02*Y92817D01*
X196390Y91967D01*
X192990D02*X194690D01*
X195540Y92817D01*
X199280Y91967D02*X201830D01*
X202680Y92817D01*
X201830Y93667D02*X202680Y92817D01*
X199280Y93667D02*X201830D01*
X198430Y94517D02*X199280Y93667D01*
X198430Y94517D02*X199280Y95367D01*
X201830D01*
X202680Y94517D01*
X198430Y92817D02*X199280Y91967D01*
X205570Y98767D02*Y92817D01*
X206420Y91967D01*
X204720Y96217D02*X206420D01*
X208970Y91967D02*X211520D01*
X208120Y92817D02*X208970Y91967D01*
X208120Y94517D02*Y92817D01*
Y94517D02*X208970Y95367D01*
X210670D01*
X211520Y94517D01*
X208120Y93667D02*X211520D01*
Y94517D02*Y93667D01*
X214410Y94517D02*Y91967D01*
Y94517D02*X215260Y95367D01*
X216960D01*
X213560D02*X214410Y94517D01*
X222060Y98767D02*X225460D01*
X223760D02*Y91967D01*
X227500Y98767D02*Y91967D01*
Y94517D02*X228350Y95367D01*
X230050D01*
X230900Y94517D01*
Y91967D01*
X233790D02*X236340D01*
X232940Y92817D02*X233790Y91967D01*
X232940Y94517D02*Y92817D01*
Y94517D02*X233790Y95367D01*
X235490D01*
X236340Y94517D01*
X232940Y93667D02*X236340D01*
Y94517D02*Y93667D01*
X239230Y91967D02*X241780D01*
X242630Y92817D01*
X241780Y93667D02*X242630Y92817D01*
X239230Y93667D02*X241780D01*
X238380Y94517D02*X239230Y93667D01*
X238380Y94517D02*X239230Y95367D01*
X241780D01*
X242630Y94517D01*
X238380Y92817D02*X239230Y91967D01*
X244670Y97067D02*Y96897D01*
Y94517D02*Y91967D01*
X247220D02*X249770D01*
X250620Y92817D01*
X249770Y93667D02*X250620Y92817D01*
X247220Y93667D02*X249770D01*
X246370Y94517D02*X247220Y93667D01*
X246370Y94517D02*X247220Y95367D01*
X249770D01*
X250620Y94517D01*
X246370Y92817D02*X247220Y91967D01*
X256570Y98767D02*Y91967D01*
X255720Y98767D02*X259120D01*
X259970Y97917D01*
Y96217D01*
X259120Y95367D02*X259970Y96217D01*
X256570Y95367D02*X259120D01*
X262860Y94517D02*Y91967D01*
Y94517D02*X263710Y95367D01*
X265410D01*
X262010D02*X262860Y94517D01*
X267450D02*Y92817D01*
Y94517D02*X268300Y95367D01*
X270000D01*
X270850Y94517D01*
Y92817D01*
X270000Y91967D02*X270850Y92817D01*
X268300Y91967D02*X270000D01*
X267450Y92817D02*X268300Y91967D01*
X273740Y97067D02*Y96897D01*
Y94517D02*Y90267D01*
X272890Y89417D02*X273740Y90267D01*
X276290Y91967D02*X278840D01*
X275440Y92817D02*X276290Y91967D01*
X275440Y94517D02*Y92817D01*
Y94517D02*X276290Y95367D01*
X277990D01*
X278840Y94517D01*
X275440Y93667D02*X278840D01*
Y94517D02*Y93667D01*
X281730Y95367D02*X284280D01*
X280880Y94517D02*X281730Y95367D01*
X280880Y94517D02*Y92817D01*
X281730Y91967D01*
X284280D01*
X287170Y98767D02*Y92817D01*
X288020Y91967D01*
X286320Y96217D02*X288020D01*
X147600Y71783D02*Y67133D01*
Y71783D02*X148685Y73333D01*
X150390D01*
X151475Y71783D01*
Y67133D01*
X147600Y70233D02*X151475D01*
X153335Y73333D02*Y67908D01*
X154110Y67133D01*
X156435Y69458D02*Y64808D01*
X155660Y70233D02*X156435Y69458D01*
X157210Y70233D01*
X158760D01*
X159535Y69458D01*
Y67908D01*
X158760Y67133D02*X159535Y67908D01*
X157210Y67133D02*X158760D01*
X156435Y67908D02*X157210Y67133D01*
X167285Y73333D02*X168060Y72558D01*
X164960Y73333D02*X167285D01*
X164185Y72558D02*X164960Y73333D01*
X164185Y72558D02*Y71008D01*
X164960Y70233D01*
X167285D01*
X168060Y69458D01*
Y67908D01*
X167285Y67133D02*X168060Y67908D01*
X164960Y67133D02*X167285D01*
X164185Y67908D02*X164960Y67133D01*
X172245Y70233D02*X173020Y69458D01*
X170695Y70233D02*X172245D01*
X169920Y69458D02*X170695Y70233D01*
X169920Y69458D02*Y67908D01*
X170695Y67133D01*
X173020Y70233D02*Y67908D01*
X173795Y67133D01*
X170695D02*X172245D01*
X173020Y67908D01*
X175655Y70233D02*Y67908D01*
X176430Y67133D01*
X178755Y70233D02*Y65583D01*
X177980Y64808D02*X178755Y65583D01*
X176430Y64808D02*X177980D01*
X175655Y65583D02*X176430Y64808D01*
Y67133D02*X177980D01*
X178755Y67908D01*
X180615Y71783D02*Y71628D01*
Y69458D02*Y67133D01*
X182940Y69458D02*Y67133D01*
Y69458D02*X183715Y70233D01*
X184490D01*
X185265Y69458D01*
Y67133D01*
X182165Y70233D02*X182940Y69458D01*
X261744Y49967D02*Y44767D01*
X264994Y49967D02*Y44767D01*
X261744Y47367D02*X264994D01*
X268504D02*X269154Y46717D01*
X267204Y47367D02*X268504D01*
X266554Y46717D02*X267204Y47367D01*
X266554Y46717D02*Y45417D01*
X267204Y44767D01*
X269154Y47367D02*Y45417D01*
X269804Y44767D01*
X267204D02*X268504D01*
X269154Y45417D01*
X271364Y49967D02*Y44767D01*
Y46717D02*X273314Y44767D01*
X271364Y46717D02*X272664Y48017D01*
X276824Y47367D02*X277474Y46717D01*
X275524Y47367D02*X276824D01*
X274874Y46717D02*X275524Y47367D01*
X274874Y46717D02*Y45417D01*
X275524Y44767D01*
X277474Y47367D02*Y45417D01*
X278124Y44767D01*
X275524D02*X276824D01*
X277474Y45417D01*
X280334Y46717D02*Y44767D01*
Y46717D02*X280984Y47367D01*
X281634D01*
X282284Y46717D01*
Y44767D01*
X279684Y47367D02*X280334Y46717D01*
X286184Y49317D02*Y45417D01*
Y49317D02*X286834Y49967D01*
X288134D01*
X288784Y49317D01*
Y45417D01*
X288134Y44767D02*X288784Y45417D01*
X286834Y44767D02*X288134D01*
X286184Y45417D02*X286834Y44767D01*
X290344Y49967D02*Y45417D01*
X290994Y44767D01*
X292944D02*X294894D01*
X295544Y45417D01*
X294894Y46067D02*X295544Y45417D01*
X292944Y46067D02*X294894D01*
X292294Y46717D02*X292944Y46067D01*
X292294Y46717D02*X292944Y47367D01*
X294894D01*
X295544Y46717D01*
X292294Y45417D02*X292944Y44767D01*
X297754D02*X299704D01*
X300354Y45417D01*
X299704Y46067D02*X300354Y45417D01*
X297754Y46067D02*X299704D01*
X297104Y46717D02*X297754Y46067D01*
X297104Y46717D02*X297754Y47367D01*
X299704D01*
X300354Y46717D01*
X297104Y45417D02*X297754Y44767D01*
X301914Y46717D02*Y45417D01*
Y46717D02*X302564Y47367D01*
X303864D01*
X304514Y46717D01*
Y45417D01*
X303864Y44767D02*X304514Y45417D01*
X302564Y44767D02*X303864D01*
X301914Y45417D02*X302564Y44767D01*
X306724Y46717D02*Y44767D01*
Y46717D02*X307374Y47367D01*
X308024D01*
X308674Y46717D01*
Y44767D01*
X306074Y47367D02*X306724Y46717D01*
X147600Y84941D02*X149350Y77941D01*
X151100Y84941D01*
X153200D02*Y77941D01*
X157575Y84941D02*Y77941D01*
X153200Y81441D02*X157575D01*
X159675Y84941D02*Y77941D01*
Y84941D02*X163175D01*
X159675Y81791D02*X162300D01*
X165275Y78816D02*X170525Y84066D01*
X172625Y84941D02*Y78816D01*
X173500Y77941D01*
X175250D01*
X176125Y78816D01*
Y84941D02*Y78816D01*
X178225Y84941D02*Y77941D01*
X182600Y84941D02*Y77941D01*
X178225Y81441D02*X182600D01*
X184700Y84941D02*Y77941D01*
Y84941D02*X188200D01*
X184700Y81791D02*X187325D01*
X193450Y84941D02*Y78816D01*
X194325Y77941D01*
X196075D01*
X196950Y78816D01*
Y84941D02*Y78816D01*
X199925Y80566D02*Y75316D01*
X199050Y81441D02*X199925Y80566D01*
X200800Y81441D01*
X202550D01*
X203425Y80566D01*
Y78816D01*
X202550Y77941D02*X203425Y78816D01*
X200800Y77941D02*X202550D01*
X199925Y78816D02*X200800Y77941D01*
X205525Y84941D02*Y78816D01*
X206400Y77941D01*
X208150Y83191D02*Y83016D01*
Y80566D02*Y77941D01*
X210775Y80566D02*Y77941D01*
Y80566D02*X211650Y81441D01*
X212525D01*
X213400Y80566D01*
Y77941D01*
X209900Y81441D02*X210775Y80566D01*
X215500Y84941D02*Y77941D01*
Y80566D02*X218125Y77941D01*
X215500Y80566D02*X217250Y82316D01*
X226875Y84941D02*X227750Y84066D01*
X224250Y84941D02*X226875D01*
X223375Y84066D02*X224250Y84941D01*
X223375Y84066D02*Y82316D01*
X224250Y81441D01*
X226875D01*
X227750Y80566D01*
Y78816D01*
X226875Y77941D02*X227750Y78816D01*
X224250Y77941D02*X226875D01*
X223375Y78816D02*X224250Y77941D01*
X229850Y80566D02*Y78816D01*
Y80566D02*X230725Y81441D01*
X232475D01*
X233350Y80566D01*
Y78816D01*
X232475Y77941D02*X233350Y78816D01*
X230725Y77941D02*X232475D01*
X229850Y78816D02*X230725Y77941D01*
X235450Y84941D02*Y78816D01*
X236325Y77941D01*
X238075Y81441D02*Y78816D01*
X238950Y77941D01*
X240700D01*
X241575Y78816D01*
Y81441D02*Y78816D01*
X244550Y84941D02*Y78816D01*
X245425Y77941D01*
X243675Y82316D02*X245425D01*
X247175Y83191D02*Y83016D01*
Y80566D02*Y77941D01*
X248925Y80566D02*Y78816D01*
Y80566D02*X249800Y81441D01*
X251550D01*
X252425Y80566D01*
Y78816D01*
X251550Y77941D02*X252425Y78816D01*
X249800Y77941D02*X251550D01*
X248925Y78816D02*X249800Y77941D01*
X255400Y80566D02*Y77941D01*
Y80566D02*X256275Y81441D01*
X257150D01*
X258025Y80566D01*
Y77941D01*
X254525Y81441D02*X255400Y80566D01*
X261000Y77941D02*X263625D01*
X264500Y78816D01*
X263625Y79691D02*X264500Y78816D01*
X261000Y79691D02*X263625D01*
X260125Y80566D02*X261000Y79691D01*
X260125Y80566D02*X261000Y81441D01*
X263625D01*
X264500Y80566D01*
X260125Y78816D02*X261000Y77941D01*
X270625Y84066D02*Y77941D01*
Y84066D02*X271500Y84941D01*
X272375D01*
X269750Y81441D02*X271500D01*
X274125Y80566D02*Y78816D01*
Y80566D02*X275000Y81441D01*
X276750D01*
X277625Y80566D01*
Y78816D01*
X276750Y77941D02*X277625Y78816D01*
X275000Y77941D02*X276750D01*
X274125Y78816D02*X275000Y77941D01*
X280600Y80566D02*Y77941D01*
Y80566D02*X281475Y81441D01*
X283225D01*
X279725D02*X280600Y80566D01*
X288475Y84941D02*X291975D01*
X292850Y84066D01*
Y82316D01*
X291975Y81441D02*X292850Y82316D01*
X289350Y81441D02*X291975D01*
X289350Y84941D02*Y77941D01*
X290750Y81441D02*X292850Y77941D01*
X295825D02*X298450D01*
X294950Y78816D02*X295825Y77941D01*
X294950Y80566D02*Y78816D01*
Y80566D02*X295825Y81441D01*
X297575D01*
X298450Y80566D01*
X294950Y79691D02*X298450D01*
Y80566D02*Y79691D01*
X301425Y80566D02*Y77941D01*
Y80566D02*X302300Y81441D01*
X303175D01*
X304050Y80566D01*
Y77941D01*
Y80566D02*X304925Y81441D01*
X305800D01*
X306675Y80566D01*
Y77941D01*
X300550Y81441D02*X301425Y80566D01*
X308775D02*Y78816D01*
Y80566D02*X309650Y81441D01*
X311400D01*
X312275Y80566D01*
Y78816D01*
X311400Y77941D02*X312275Y78816D01*
X309650Y77941D02*X311400D01*
X308775Y78816D02*X309650Y77941D01*
X315250Y84941D02*Y78816D01*
X316125Y77941D01*
X314375Y82316D02*X316125D01*
X318750Y77941D02*X321375D01*
X317875Y78816D02*X318750Y77941D01*
X317875Y80566D02*Y78816D01*
Y80566D02*X318750Y81441D01*
X320500D01*
X321375Y80566D01*
X317875Y79691D02*X321375D01*
Y80566D02*Y79691D01*
X326625Y84941D02*Y81441D01*
X327500Y77941D01*
X329250Y81441D01*
X331000Y77941D01*
X331875Y81441D01*
Y84941D02*Y81441D01*
X333975Y83191D02*Y83016D01*
Y80566D02*Y77941D01*
X336600Y80566D02*Y77941D01*
Y80566D02*X337475Y81441D01*
X339225D01*
X335725D02*X336600Y80566D01*
X342200Y77941D02*X344825D01*
X341325Y78816D02*X342200Y77941D01*
X341325Y80566D02*Y78816D01*
Y80566D02*X342200Y81441D01*
X343950D01*
X344825Y80566D01*
X341325Y79691D02*X344825D01*
Y80566D02*Y79691D01*
X346925Y84941D02*Y78816D01*
X347800Y77941D01*
X350425D02*X353050D01*
X349550Y78816D02*X350425Y77941D01*
X349550Y80566D02*Y78816D01*
Y80566D02*X350425Y81441D01*
X352175D01*
X353050Y80566D01*
X349550Y79691D02*X353050D01*
Y80566D02*Y79691D01*
X356025Y77941D02*X358650D01*
X359525Y78816D01*
X358650Y79691D02*X359525Y78816D01*
X356025Y79691D02*X358650D01*
X355150Y80566D02*X356025Y79691D01*
X355150Y80566D02*X356025Y81441D01*
X358650D01*
X359525Y80566D01*
X355150Y78816D02*X356025Y77941D01*
X362500D02*X365125D01*
X366000Y78816D01*
X365125Y79691D02*X366000Y78816D01*
X362500Y79691D02*X365125D01*
X361625Y80566D02*X362500Y79691D01*
X361625Y80566D02*X362500Y81441D01*
X365125D01*
X366000Y80566D01*
X361625Y78816D02*X362500Y77941D01*
X374750Y84941D02*X375625Y84066D01*
X372125Y84941D02*X374750D01*
X371250Y84066D02*X372125Y84941D01*
X371250Y84066D02*Y82316D01*
X372125Y81441D01*
X374750D01*
X375625Y80566D01*
Y78816D01*
X374750Y77941D02*X375625Y78816D01*
X372125Y77941D02*X374750D01*
X371250Y78816D02*X372125Y77941D01*
X378600D02*X381225D01*
X377725Y78816D02*X378600Y77941D01*
X377725Y80566D02*Y78816D01*
Y80566D02*X378600Y81441D01*
X380350D01*
X381225Y80566D01*
X377725Y79691D02*X381225D01*
Y80566D02*Y79691D01*
X384200Y80566D02*Y77941D01*
Y80566D02*X385075Y81441D01*
X385950D01*
X386825Y80566D01*
Y77941D01*
X383325Y81441D02*X384200Y80566D01*
X389800Y77941D02*X392425D01*
X393300Y78816D01*
X392425Y79691D02*X393300Y78816D01*
X389800Y79691D02*X392425D01*
X388925Y80566D02*X389800Y79691D01*
X388925Y80566D02*X389800Y81441D01*
X392425D01*
X393300Y80566D01*
X388925Y78816D02*X389800Y77941D01*
X395400Y80566D02*Y78816D01*
Y80566D02*X396275Y81441D01*
X398025D01*
X398900Y80566D01*
Y78816D01*
X398025Y77941D02*X398900Y78816D01*
X396275Y77941D02*X398025D01*
X395400Y78816D02*X396275Y77941D01*
X401875Y80566D02*Y77941D01*
Y80566D02*X402750Y81441D01*
X404500D01*
X401000D02*X401875Y80566D01*
X409750Y84941D02*Y77941D01*
Y84941D02*X414125Y77941D01*
Y84941D02*Y77941D01*
X417100D02*X419725D01*
X416225Y78816D02*X417100Y77941D01*
X416225Y80566D02*Y78816D01*
Y80566D02*X417100Y81441D01*
X418850D01*
X419725Y80566D01*
X416225Y79691D02*X419725D01*
Y80566D02*Y79691D01*
X422700Y84941D02*Y78816D01*
X423575Y77941D01*
X421825Y82316D02*X423575D01*
X425325Y81441D02*Y78816D01*
X426200Y77941D01*
X427075D01*
X427950Y78816D01*
Y81441D02*Y78816D01*
X428825Y77941D01*
X429700D01*
X430575Y78816D01*
Y81441D02*Y78816D01*
X432675Y80566D02*Y78816D01*
Y80566D02*X433550Y81441D01*
X435300D01*
X436175Y80566D01*
Y78816D01*
X435300Y77941D02*X436175Y78816D01*
X433550Y77941D02*X435300D01*
X432675Y78816D02*X433550Y77941D01*
X439150Y80566D02*Y77941D01*
Y80566D02*X440025Y81441D01*
X441775D01*
X438275D02*X439150Y80566D01*
X443875Y84941D02*Y77941D01*
Y80566D02*X446500Y77941D01*
X443875Y80566D02*X445625Y82316D01*
X449475Y77941D02*X452100D01*
X452975Y78816D01*
X452100Y79691D02*X452975Y78816D01*
X449475Y79691D02*X452100D01*
X448600Y80566D02*X449475Y79691D01*
X448600Y80566D02*X449475Y81441D01*
X452100D01*
X452975Y80566D01*
X448600Y78816D02*X449475Y77941D01*
X147600Y61575D02*Y55575D01*
Y58575D02*X150600Y61575D01*
X147600Y58575D02*X150600Y55575D01*
X152400Y61575D02*X155400D01*
X153900D02*Y55575D01*
X157200Y61575D02*Y55575D01*
X160950Y61575D02*Y55575D01*
X157200Y58575D02*X160950D01*
X165450Y61575D02*X168450D01*
X169200Y60825D01*
Y59325D01*
X168450Y58575D02*X169200Y59325D01*
X166200Y58575D02*X168450D01*
X166200Y61575D02*Y55575D01*
X167400Y58575D02*X169200Y55575D01*
X171000Y57825D02*Y56325D01*
Y57825D02*X171750Y58575D01*
X173250D01*
X174000Y57825D01*
Y56325D01*
X173250Y55575D02*X174000Y56325D01*
X171750Y55575D02*X173250D01*
X171000Y56325D02*X171750Y55575D01*
X175800Y58575D02*Y56325D01*
X176550Y55575D01*
X178800Y58575D02*Y54075D01*
X178050Y53325D02*X178800Y54075D01*
X176550Y53325D02*X178050D01*
X175800Y54075D02*X176550Y53325D01*
Y55575D02*X178050D01*
X178800Y56325D01*
X182850Y58575D02*X183600Y57825D01*
X181350Y58575D02*X182850D01*
X180600Y57825D02*X181350Y58575D01*
X180600Y57825D02*Y56325D01*
X181350Y55575D01*
X183600Y58575D02*Y56325D01*
X184350Y55575D01*
X181350D02*X182850D01*
X183600Y56325D01*
X186150Y61575D02*Y56325D01*
X186900Y55575D01*
X191100Y61575D02*X192600D01*
X191850D02*Y55575D01*
X191100D02*X192600D01*
X195150Y57825D02*Y55575D01*
Y57825D02*X195900Y58575D01*
X196650D01*
X197400Y57825D01*
Y55575D01*
X194400Y58575D02*X195150Y57825D01*
X199950Y55575D02*X202200D01*
X202950Y56325D01*
X202200Y57075D02*X202950Y56325D01*
X199950Y57075D02*X202200D01*
X199200Y57825D02*X199950Y57075D01*
X199200Y57825D02*X199950Y58575D01*
X202200D01*
X202950Y57825D01*
X199200Y56325D02*X199950Y55575D01*
X205500Y61575D02*Y56325D01*
X206250Y55575D01*
X204750Y59325D02*X206250D01*
X207750Y60075D02*Y59925D01*
Y57825D02*Y55575D01*
X210000Y61575D02*Y56325D01*
X210750Y55575D01*
X209250Y59325D02*X210750D01*
X212250Y58575D02*Y56325D01*
X213000Y55575D01*
X214500D01*
X215250Y56325D01*
Y58575D02*Y56325D01*
X217800Y61575D02*Y56325D01*
X218550Y55575D01*
X217050Y59325D02*X218550D01*
X220800Y55575D02*X223050D01*
X220050Y56325D02*X220800Y55575D01*
X220050Y57825D02*Y56325D01*
Y57825D02*X220800Y58575D01*
X222300D01*
X223050Y57825D01*
X220050Y57075D02*X223050D01*
Y57825D02*Y57075D01*
X227550Y57825D02*Y56325D01*
Y57825D02*X228300Y58575D01*
X229800D01*
X230550Y57825D01*
Y56325D01*
X229800Y55575D02*X230550Y56325D01*
X228300Y55575D02*X229800D01*
X227550Y56325D02*X228300Y55575D01*
X233100Y60825D02*Y55575D01*
Y60825D02*X233850Y61575D01*
X234600D01*
X232350Y58575D02*X233850D01*
X238800Y61575D02*X241800D01*
X240300D02*Y55575D01*
X244350D02*X246600D01*
X243600Y56325D02*X244350Y55575D01*
X243600Y57825D02*Y56325D01*
Y57825D02*X244350Y58575D01*
X245850D01*
X246600Y57825D01*
X243600Y57075D02*X246600D01*
Y57825D02*Y57075D01*
X249150Y58575D02*X251400D01*
X248400Y57825D02*X249150Y58575D01*
X248400Y57825D02*Y56325D01*
X249150Y55575D01*
X251400D01*
X253200Y61575D02*Y55575D01*
Y57825D02*X253950Y58575D01*
X255450D01*
X256200Y57825D01*
Y55575D01*
X258750Y57825D02*Y55575D01*
Y57825D02*X259500Y58575D01*
X260250D01*
X261000Y57825D01*
Y55575D01*
X258000Y58575D02*X258750Y57825D01*
X262800D02*Y56325D01*
Y57825D02*X263550Y58575D01*
X265050D01*
X265800Y57825D01*
Y56325D01*
X265050Y55575D02*X265800Y56325D01*
X263550Y55575D02*X265050D01*
X262800Y56325D02*X263550Y55575D01*
X267600Y61575D02*Y56325D01*
X268350Y55575D01*
X269850Y57825D02*Y56325D01*
Y57825D02*X270600Y58575D01*
X272100D01*
X272850Y57825D01*
Y56325D01*
X272100Y55575D02*X272850Y56325D01*
X270600Y55575D02*X272100D01*
X269850Y56325D02*X270600Y55575D01*
X276900Y58575D02*X277650Y57825D01*
X275400Y58575D02*X276900D01*
X274650Y57825D02*X275400Y58575D01*
X274650Y57825D02*Y56325D01*
X275400Y55575D01*
X276900D01*
X277650Y56325D01*
X274650Y54075D02*X275400Y53325D01*
X276900D01*
X277650Y54075D01*
Y58575D02*Y54075D01*
X279450Y58575D02*Y56325D01*
X280200Y55575D01*
X282450Y58575D02*Y54075D01*
X281700Y53325D02*X282450Y54075D01*
X280200Y53325D02*X281700D01*
X279450Y54075D02*X280200Y53325D01*
Y55575D02*X281700D01*
X282450Y56325D01*
X284250Y54075D02*X285750Y55575D01*
X293250Y61575D02*X294000Y60825D01*
X291000Y61575D02*X293250D01*
X290250Y60825D02*X291000Y61575D01*
X290250Y60825D02*Y59325D01*
X291000Y58575D01*
X293250D01*
X294000Y57825D01*
Y56325D01*
X293250Y55575D02*X294000Y56325D01*
X291000Y55575D02*X293250D01*
X290250Y56325D02*X291000Y55575D01*
X296550Y61575D02*Y56325D01*
X297300Y55575D01*
X295800Y59325D02*X297300D01*
X298800Y57825D02*Y56325D01*
Y57825D02*X299550Y58575D01*
X301050D01*
X301800Y57825D01*
Y56325D01*
X301050Y55575D02*X301800Y56325D01*
X299550Y55575D02*X301050D01*
X298800Y56325D02*X299550Y55575D01*
X304350Y58575D02*X306600D01*
X303600Y57825D02*X304350Y58575D01*
X303600Y57825D02*Y56325D01*
X304350Y55575D01*
X306600D01*
X308400Y61575D02*Y55575D01*
Y57825D02*X310650Y55575D01*
X308400Y57825D02*X309900Y59325D01*
X312450Y61575D02*Y55575D01*
Y57825D02*X313200Y58575D01*
X314700D01*
X315450Y57825D01*
Y55575D01*
X317250Y57825D02*Y56325D01*
Y57825D02*X318000Y58575D01*
X319500D01*
X320250Y57825D01*
Y56325D01*
X319500Y55575D02*X320250Y56325D01*
X318000Y55575D02*X319500D01*
X317250Y56325D02*X318000Y55575D01*
X322050Y61575D02*Y56325D01*
X322800Y55575D01*
X325050Y57825D02*Y55575D01*
Y57825D02*X325800Y58575D01*
X326550D01*
X327300Y57825D01*
Y55575D01*
Y57825D02*X328050Y58575D01*
X328800D01*
X329550Y57825D01*
Y55575D01*
X324300Y58575D02*X325050Y57825D01*
X331350Y54075D02*X332850Y55575D01*
X340350Y61575D02*X341100Y60825D01*
X338100Y61575D02*X340350D01*
X337350Y60825D02*X338100Y61575D01*
X337350Y60825D02*Y59325D01*
X338100Y58575D01*
X340350D01*
X341100Y57825D01*
Y56325D01*
X340350Y55575D02*X341100Y56325D01*
X338100Y55575D02*X340350D01*
X337350Y56325D02*X338100Y55575D01*
X342900Y58575D02*Y56325D01*
X343650Y55575D01*
X344400D01*
X345150Y56325D01*
Y58575D02*Y56325D01*
X345900Y55575D01*
X346650D01*
X347400Y56325D01*
Y58575D02*Y56325D01*
X349950Y55575D02*X352200D01*
X349200Y56325D02*X349950Y55575D01*
X349200Y57825D02*Y56325D01*
Y57825D02*X349950Y58575D01*
X351450D01*
X352200Y57825D01*
X349200Y57075D02*X352200D01*
Y57825D02*Y57075D01*
X357000Y61575D02*Y55575D01*
X356250D02*X357000Y56325D01*
X354750Y55575D02*X356250D01*
X354000Y56325D02*X354750Y55575D01*
X354000Y57825D02*Y56325D01*
Y57825D02*X354750Y58575D01*
X356250D01*
X357000Y57825D01*
X359550Y55575D02*X361800D01*
X358800Y56325D02*X359550Y55575D01*
X358800Y57825D02*Y56325D01*
Y57825D02*X359550Y58575D01*
X361050D01*
X361800Y57825D01*
X358800Y57075D02*X361800D01*
Y57825D02*Y57075D01*
X364350Y57825D02*Y55575D01*
Y57825D02*X365100Y58575D01*
X365850D01*
X366600Y57825D01*
Y55575D01*
X363600Y58575D02*X364350Y57825D01*
X23616Y81595D02*X24616Y77595D01*
X25616Y81595D01*
X27516Y77595D02*X28816D01*
X26816Y78295D02*X27516Y77595D01*
X26816Y80895D02*Y78295D01*
Y80895D02*X27516Y81595D01*
X28816D01*
X30716Y77595D02*X32016D01*
X30016Y78295D02*X30716Y77595D01*
X30016Y80895D02*Y78295D01*
Y80895D02*X30716Y81595D01*
X32016D01*
X25616Y69787D02*X26116Y69287D01*
X24116Y69787D02*X25616D01*
X23616Y69287D02*X24116Y69787D01*
X23616Y69287D02*Y66287D01*
X24116Y65787D01*
X25616D01*
X26116Y66287D01*
Y67287D02*Y66287D01*
X25616Y67787D02*X26116Y67287D01*
X24616Y67787D02*X25616D01*
X27316Y69787D02*Y65787D01*
Y69787D02*X29816Y65787D01*
Y69787D02*Y65787D01*
X31516Y69787D02*Y65787D01*
X32816Y69787D02*X33516Y69087D01*
Y66487D01*
X32816Y65787D02*X33516Y66487D01*
X31016Y65787D02*X32816D01*
X31016Y69787D02*X32816D01*
X92661Y139415D02*X93461Y140215D01*
Y136215D01*
X92661D02*X94161D01*
X95361Y136715D02*X95861Y136215D01*
X95361Y139715D02*Y136715D01*
Y139715D02*X95861Y140215D01*
X96861D01*
X97361Y139715D01*
Y136715D01*
X96861Y136215D02*X97361Y136715D01*
X95861Y136215D02*X96861D01*
X95361Y137215D02*X97361Y139215D01*
X99061Y137715D02*Y136215D01*
Y137715D02*X99561Y138215D01*
X100061D01*
X100561Y137715D01*
Y136215D01*
X98561Y138215D02*X99061Y137715D01*
G54D172*X77656Y265939D02*Y245939D01*
X87656Y265939D02*Y245939D01*
G54D169*X77656Y260939D02*X87656D01*
G54D172*Y265939D02*G75*G03X77656Y265939I-5000J0D01*G01*
Y245939D02*G75*G03X87656Y245939I5000J0D01*G01*
G54D169*X85368Y320883D02*G75*G03X85368Y320883I10000J0D01*G01*
X147385Y324028D02*X151323D01*
X130063D02*X132819D01*
X130063D02*Y280721D01*
X141086D01*
X157622D02*X168645D01*
Y324028D02*Y280721D01*
X166283Y324028D02*X168645D01*
G54D172*X34520Y224451D02*Y174451D01*
X24520Y224451D02*Y174451D01*
G54D169*Y179451D02*X34520D01*
G54D172*X24520Y174451D02*G75*G03X34520Y174451I5000J0D01*G01*
Y224451D02*G75*G03X24520Y224451I-5000J0D01*G01*
G54D169*X88560Y170411D02*G75*G03X88560Y170411I0J-10000D01*G01*
G54D168*X62000Y193827D02*Y173827D01*
X72000D01*
Y193827D02*Y173827D01*
X62000Y193827D02*X72000D01*
G54D169*X281103Y254990D02*X396103D01*
Y134990D01*
X128103D02*X396103D01*
X128103Y254990D02*Y134990D01*
Y254990D02*X282103D01*
G54D172*X326688Y296203D03*
Y306203D03*
G54D169*X331688D02*Y296203D01*
G54D172*X326688Y306203D02*G75*G03X326688Y296203I0J-5000D01*G01*
G75*G03X326688Y306203I0J5000D01*G01*
X246000Y296203D03*
Y306203D03*
G54D169*X251000D02*Y296203D01*
G54D172*X246000Y306203D02*G75*G03X246000Y296203I0J-5000D01*G01*
G75*G03X246000Y306203I0J5000D01*G01*
X291264Y296203D03*
Y306203D03*
G54D169*X296264D02*Y296203D01*
G54D172*X291264Y306203D02*G75*G03X291264Y296203I0J-5000D01*G01*
G75*G03X291264Y306203I0J5000D01*G01*
X196786Y296203D03*
Y306203D03*
G54D169*X201786D02*Y296203D01*
G54D172*X196786Y306203D02*G75*G03X196786Y296203I0J-5000D01*G01*
G75*G03X196786Y306203I0J5000D01*G01*
X34520Y295299D02*Y245299D01*
X24520Y295299D02*Y245299D01*
G54D169*Y250299D02*X34520D01*
G54D172*X24520Y245299D02*G75*G03X34520Y245299I5000J0D01*G01*
Y295299D02*G75*G03X24520Y295299I-5000J0D01*G01*
G54D169*X54291Y338632D02*Y313632D01*
X8819D01*
Y338632D01*
Y339813D02*X54291D01*
X8819Y338435D02*Y339813D01*
X54291Y338435D02*Y339813D01*
X110152Y87601D02*X114090D01*
X92830D02*X95586D01*
X92830D02*Y44294D01*
X103853D01*
X120389D02*X131412D01*
Y87601D02*Y44294D01*
X129050Y87601D02*X131412D01*
X54291Y53725D02*Y28725D01*
X8819D01*
Y53725D01*
Y54906D02*X54291D01*
X8819Y53528D02*Y54906D01*
X54291Y53528D02*Y54906D01*
X12217Y132672D02*Y99405D01*
X67256D01*
Y150271D02*Y99405D01*
X12217Y150271D02*X67256D01*
X12217D02*Y132200D01*
G54D168*X22000Y83827D02*Y63827D01*
X12000Y83827D02*X22000D01*
X12000D02*Y63827D01*
X22000D01*
X56000Y263827D02*Y243827D01*
X66000D01*
Y263827D02*Y243827D01*
X56000Y263827D02*X66000D01*
G54D169*X92656Y269939D02*Y267939D01*
X88656Y268939D02*X92656D01*
X88656Y266739D02*X92656Y264239D01*
Y266739D02*X88656Y264239D01*
Y263039D02*Y261039D01*
X92656Y257839D02*X92156Y257339D01*
X92656Y259339D02*Y257839D01*
X92156Y259839D02*X92656Y259339D01*
X91156Y259839D02*X92156D01*
X91156D02*X90656Y259339D01*
Y257839D01*
X90156Y257339D01*
X89156D02*X90156D01*
X88656Y257839D02*X89156Y257339D01*
X88656Y259339D02*Y257839D01*
X89156Y259839D02*X88656Y259339D01*
X90656Y256139D02*X92656D01*
X90656D02*X88656Y255639D01*
X90656Y254639D01*
X88656Y253639D01*
X90656Y253139D01*
X92656D01*
X106068Y307883D02*X107368D01*
X105368Y308583D02*X106068Y307883D01*
X105368Y311183D02*Y308583D01*
Y311183D02*X106068Y311883D01*
X107368D01*
X108568Y311083D02*X109368Y311883D01*
Y307883D01*
X108568D02*X110068D01*
X138905Y301961D02*X140905D01*
X141405Y301461D01*
Y300461D01*
X140905Y299961D02*X141405Y300461D01*
X139405Y299961D02*X140905D01*
X139405Y301961D02*Y297961D01*
X140205Y299961D02*X141405Y297961D01*
X142605Y301161D02*X143405Y301961D01*
Y297961D01*
X142605D02*X144105D01*
X267103Y180990D02*Y177490D01*
X267603Y176990D01*
X268603D01*
X269103Y177490D01*
Y180990D02*Y177490D01*
X270303Y180990D02*Y176990D01*
X272803Y180990D02*Y176990D01*
X270303Y178990D02*X272803D01*
X274003Y176990D02*X276503Y180990D01*
X274003D02*X276503Y176990D01*
X277703Y180190D02*X278503Y180990D01*
Y176990D01*
X277703D02*X279203D01*
X242000Y311203D02*X244000D01*
X243000D02*Y307203D01*
X245200Y309203D02*X247200Y307203D01*
X245200D02*X247200Y309203D01*
X248400Y309403D02*X249900D01*
X248400Y307203D02*X250400D01*
X248400Y311203D02*Y307203D01*
Y311203D02*X250400D01*
X251600Y307203D02*X253600D01*
X254800Y311203D02*X256800D01*
X255800D02*Y307203D01*
X258500D02*X260000D01*
X258000Y307703D02*X258500Y307203D01*
X258000Y308703D02*Y307703D01*
Y308703D02*X258500Y309203D01*
X259500D01*
X260000Y308703D01*
X258000Y308203D02*X260000D01*
Y308703D02*Y308203D01*
X261700Y307203D02*X263200D01*
X263700Y307703D01*
X263200Y308203D02*X263700Y307703D01*
X261700Y308203D02*X263200D01*
X261200Y308703D02*X261700Y308203D01*
X261200Y308703D02*X261700Y309203D01*
X263200D01*
X263700Y308703D01*
X261200Y307703D02*X261700Y307203D01*
X265400Y311203D02*Y307703D01*
X265900Y307203D01*
X264900Y309703D02*X265900D01*
X192786Y311203D02*X194786D01*
X193786D02*Y307203D01*
X195986Y309203D02*X197986Y307203D01*
X195986D02*X197986Y309203D01*
X199686Y311203D02*Y307203D01*
X200986Y311203D02*X201686Y310503D01*
Y307903D01*
X200986Y307203D02*X201686Y307903D01*
X199186Y307203D02*X200986D01*
X199186Y311203D02*X200986D01*
X202886Y307203D02*X204886D01*
X206086Y311203D02*X208086D01*
X207086D02*Y307203D01*
X209786D02*X211286D01*
X209286Y307703D02*X209786Y307203D01*
X209286Y308703D02*Y307703D01*
Y308703D02*X209786Y309203D01*
X210786D01*
X211286Y308703D01*
X209286Y308203D02*X211286D01*
Y308703D02*Y308203D01*
X212986Y307203D02*X214486D01*
X214986Y307703D01*
X214486Y308203D02*X214986Y307703D01*
X212986Y308203D02*X214486D01*
X212486Y308703D02*X212986Y308203D01*
X212486Y308703D02*X212986Y309203D01*
X214486D01*
X214986Y308703D01*
X212486Y307703D02*X212986Y307203D01*
X216686Y311203D02*Y307703D01*
X217186Y307203D01*
X216186Y309703D02*X217186D01*
X22597Y162356D02*X23897D01*
X21897Y163056D02*X22597Y162356D01*
X21897Y165656D02*Y163056D01*
Y165656D02*X22597Y166356D01*
X23897D01*
X25097Y165856D02*Y162856D01*
Y165856D02*X25597Y166356D01*
X26597D01*
X27097Y165856D01*
Y162856D01*
X26597Y162356D02*X27097Y162856D01*
X25597Y162356D02*X26597D01*
X25097Y162856D02*X25597Y162356D01*
X28297Y166356D02*Y162356D01*
Y166356D02*X30797Y162356D01*
Y166356D02*Y162356D01*
X31997Y166356D02*Y162356D01*
Y166356D02*X34497Y162356D01*
Y166356D02*Y162356D01*
X35697D02*X37697D01*
X39397Y166356D02*Y162356D01*
X40697Y166356D02*X41397Y165656D01*
Y163056D01*
X40697Y162356D02*X41397Y163056D01*
X38897Y162356D02*X40697D01*
X38897Y166356D02*X40697D01*
X42597Y165356D02*Y162356D01*
Y165356D02*X43297Y166356D01*
X44397D01*
X45097Y165356D01*
Y162356D01*
X42597Y164356D02*X45097D01*
X46297Y166356D02*X48297D01*
X47297D02*Y162356D01*
X49497Y165356D02*Y162356D01*
Y165356D02*X50197Y166356D01*
X51297D01*
X51997Y165356D01*
Y162356D01*
X49497Y164356D02*X51997D01*
X99138Y65388D02*X101138D01*
X101638Y64888D01*
Y63888D01*
X101138Y63388D02*X101638Y63888D01*
X99638Y63388D02*X101138D01*
X99638Y65388D02*Y61388D01*
X100438Y63388D02*X101638Y61388D01*
X102838Y64888D02*X103338Y65388D01*
X104838D01*
X105338Y64888D01*
Y63888D01*
X102838Y61388D02*X105338Y63888D01*
X102838Y61388D02*X105338D01*
X25142Y25780D02*Y22780D01*
Y25780D02*X25842Y26780D01*
X26942D01*
X27642Y25780D01*
Y22780D01*
X25142Y24780D02*X27642D01*
X28842Y26780D02*Y23280D01*
X29342Y22780D01*
X30342D01*
X30842Y23280D01*
Y26780D02*Y23280D01*
X32542Y26780D02*Y22780D01*
X33842Y26780D02*X34542Y26080D01*
Y23480D01*
X33842Y22780D02*X34542Y23480D01*
X32042Y22780D02*X33842D01*
X32042Y26780D02*X33842D01*
X35742D02*X36742D01*
X36242D02*Y22780D01*
X35742D02*X36742D01*
X37942Y26280D02*Y23280D01*
Y26280D02*X38442Y26780D01*
X39442D01*
X39942Y26280D01*
Y23280D01*
X39442Y22780D02*X39942Y23280D01*
X38442Y22780D02*X39442D01*
X37942Y23280D02*X38442Y22780D01*
X41142D02*X43142D01*
X44342Y26780D02*Y22780D01*
Y26780D02*X45842Y24780D01*
X47342Y26780D01*
Y22780D01*
X48542Y26780D02*X49542D01*
X49042D02*Y22780D01*
X48542D02*X49542D01*
X51442D02*X52742D01*
X50742Y23480D02*X51442Y22780D01*
X50742Y26080D02*Y23480D01*
Y26080D02*X51442Y26780D01*
X52742D01*
X23512Y123462D02*X25512D01*
X26012Y123962D01*
Y125162D02*Y123962D01*
X25512Y125662D02*X26012Y125162D01*
X24012Y125662D02*X25512D01*
X24012Y127462D02*Y123462D01*
X23512Y127462D02*X25512D01*
X26012Y126962D01*
Y126162D01*
X25512Y125662D02*X26012Y126162D01*
X27212Y127462D02*Y123462D01*
Y127462D02*X29712Y123462D01*
Y127462D02*Y123462D01*
X31612D02*X32912D01*
X30912Y124162D02*X31612Y123462D01*
X30912Y126762D02*Y124162D01*
Y126762D02*X31612Y127462D01*
X32912D01*
X93165Y143114D02*X94465D01*
X92465Y143814D02*X93165Y143114D01*
X92465Y146414D02*Y143814D01*
Y146414D02*X93165Y147114D01*
X94465D01*
X95665Y146614D02*X96165Y147114D01*
X97665D01*
X98165Y146614D01*
Y145614D01*
X95665Y143114D02*X98165Y145614D01*
X95665Y143114D02*X98165D01*
X322688Y310203D02*Y307203D01*
Y310203D02*X323388Y311203D01*
X324488D01*
X325188Y310203D01*
Y307203D01*
X322688Y309203D02*X325188D01*
X326388Y311203D02*Y307203D01*
Y311203D02*X328388D01*
X326388Y309403D02*X327888D01*
X329588Y307203D02*X331588D01*
X332788Y311203D02*X334788D01*
X333788D02*Y307203D01*
X336488D02*X337988D01*
X335988Y307703D02*X336488Y307203D01*
X335988Y308703D02*Y307703D01*
Y308703D02*X336488Y309203D01*
X337488D01*
X337988Y308703D01*
X335988Y308203D02*X337988D01*
Y308703D02*Y308203D01*
X339688Y307203D02*X341188D01*
X341688Y307703D01*
X341188Y308203D02*X341688Y307703D01*
X339688Y308203D02*X341188D01*
X339188Y308703D02*X339688Y308203D01*
X339188Y308703D02*X339688Y309203D01*
X341188D01*
X341688Y308703D01*
X339188Y307703D02*X339688Y307203D01*
X343388Y311203D02*Y307703D01*
X343888Y307203D01*
X342888Y309703D02*X343888D01*
X287264Y311203D02*X289264D01*
X289764Y310703D01*
Y309703D01*
X289264Y309203D02*X289764Y309703D01*
X287764Y309203D02*X289264D01*
X287764Y311203D02*Y307203D01*
X288564Y309203D02*X289764Y307203D01*
X292964Y311203D02*X293464Y310703D01*
X291464Y311203D02*X292964D01*
X290964Y310703D02*X291464Y311203D01*
X290964Y310703D02*Y309703D01*
X291464Y309203D01*
X292964D01*
X293464Y308703D01*
Y307703D01*
X292964Y307203D02*X293464Y307703D01*
X291464Y307203D02*X292964D01*
X290964Y307703D02*X291464Y307203D01*
X296664Y311203D02*X297164Y310703D01*
X295164Y311203D02*X296664D01*
X294664Y310703D02*X295164Y311203D01*
X294664Y310703D02*Y309703D01*
X295164Y309203D01*
X296664D01*
X297164Y308703D01*
Y307703D01*
X296664Y307203D02*X297164Y307703D01*
X295164Y307203D02*X296664D01*
X294664Y307703D02*X295164Y307203D01*
X298364Y311203D02*X299364D01*
X298864D02*Y307203D01*
X298364D02*X299364D01*
X300564D02*X302564D01*
X303764Y311203D02*X305764D01*
X304764D02*Y307203D01*
X307464D02*X308964D01*
X306964Y307703D02*X307464Y307203D01*
X306964Y308703D02*Y307703D01*
Y308703D02*X307464Y309203D01*
X308464D01*
X308964Y308703D01*
X306964Y308203D02*X308964D01*
Y308703D02*Y308203D01*
X310664Y307203D02*X312164D01*
X312664Y307703D01*
X312164Y308203D02*X312664Y307703D01*
X310664Y308203D02*X312164D01*
X310164Y308703D02*X310664Y308203D01*
X310164Y308703D02*X310664Y309203D01*
X312164D01*
X312664Y308703D01*
X310164Y307703D02*X310664Y307203D01*
X314364Y311203D02*Y307703D01*
X314864Y307203D01*
X313864Y309703D02*X314864D01*
X21142Y310687D02*Y307687D01*
Y310687D02*X21842Y311687D01*
X22942D01*
X23642Y310687D01*
Y307687D01*
X21142Y309687D02*X23642D01*
X24842Y311687D02*Y308187D01*
X25342Y307687D01*
X26342D01*
X26842Y308187D01*
Y311687D02*Y308187D01*
X28542Y311687D02*Y307687D01*
X29842Y311687D02*X30542Y310987D01*
Y308387D01*
X29842Y307687D02*X30542Y308387D01*
X28042Y307687D02*X29842D01*
X28042Y311687D02*X29842D01*
X31742D02*X32742D01*
X32242D02*Y307687D01*
X31742D02*X32742D01*
X33942Y311187D02*Y308187D01*
Y311187D02*X34442Y311687D01*
X35442D01*
X35942Y311187D01*
Y308187D01*
X35442Y307687D02*X35942Y308187D01*
X34442Y307687D02*X35442D01*
X33942Y308187D02*X34442Y307687D01*
X37142D02*X39142D01*
X42342Y311687D02*X42842Y311187D01*
X40842Y311687D02*X42342D01*
X40342Y311187D02*X40842Y311687D01*
X40342Y311187D02*Y310187D01*
X40842Y309687D01*
X42342D01*
X42842Y309187D01*
Y308187D01*
X42342Y307687D02*X42842Y308187D01*
X40842Y307687D02*X42342D01*
X40342Y308187D02*X40842Y307687D01*
X44542Y311687D02*Y307687D01*
X44042Y311687D02*X46042D01*
X46542Y311187D01*
Y310187D01*
X46042Y309687D02*X46542Y310187D01*
X44542Y309687D02*X46042D01*
X47742Y311687D02*Y307687D01*
Y309687D02*X49742Y311687D01*
X47742Y309687D02*X49742Y307687D01*
X50942Y311687D02*X52942D01*
X53442Y311187D01*
Y310187D01*
X52942Y309687D02*X53442Y310187D01*
X51442Y309687D02*X52942D01*
X51442Y311687D02*Y307687D01*
X52242Y309687D02*X53442Y307687D01*
X23445Y233356D02*X24745D01*
X22745Y234056D02*X23445Y233356D01*
X22745Y236656D02*Y234056D01*
Y236656D02*X23445Y237356D01*
X24745D01*
X25945Y236856D02*Y233856D01*
Y236856D02*X26445Y237356D01*
X27445D01*
X27945Y236856D01*
Y233856D01*
X27445Y233356D02*X27945Y233856D01*
X26445Y233356D02*X27445D01*
X25945Y233856D02*X26445Y233356D01*
X29145Y237356D02*Y233356D01*
Y237356D02*X31645Y233356D01*
Y237356D02*Y233356D01*
X32845Y237356D02*Y233356D01*
Y237356D02*X35345Y233356D01*
Y237356D02*Y233356D01*
X36545D02*X38545D01*
X40245Y237356D02*Y233356D01*
X39745Y237356D02*X41745D01*
X42245Y236856D01*
Y235856D01*
X41745Y235356D02*X42245Y235856D01*
X40245Y235356D02*X41745D01*
X43445Y237356D02*X45445D01*
X45945Y236856D01*
Y235856D01*
X45445Y235356D02*X45945Y235856D01*
X43945Y235356D02*X45445D01*
X43945Y237356D02*Y233356D01*
X44745Y235356D02*X45945Y233356D01*
X49145Y237356D02*X49645Y236856D01*
X47645Y237356D02*X49145D01*
X47145Y236856D02*X47645Y237356D01*
X47145Y236856D02*Y233856D01*
X47645Y233356D01*
X49145D01*
X49645Y233856D01*
Y234856D02*Y233856D01*
X49145Y235356D02*X49645Y234856D01*
X48145Y235356D02*X49145D01*
X66300Y200227D02*X67100D01*
Y196727D01*
X66600Y196227D02*X67100Y196727D01*
X66100Y196227D02*X66600D01*
X65600Y196727D02*X66100Y196227D01*
X65600Y197227D02*Y196727D01*
X68300Y199427D02*X69100Y200227D01*
Y196227D01*
X68300D02*X69800D01*
X60300Y271227D02*X61100D01*
Y267727D01*
X60600Y267227D02*X61100Y267727D01*
X60100Y267227D02*X60600D01*
X59600Y267727D02*X60100Y267227D01*
X59600Y268227D02*Y267727D01*
X62300D02*X62800Y267227D01*
X62300Y270727D02*Y267727D01*
Y270727D02*X62800Y271227D01*
X63800D01*
X64300Y270727D01*
Y267727D01*
X63800Y267227D02*X64300Y267727D01*
X62800Y267227D02*X63800D01*
X62300Y268227D02*X64300Y270227D01*
X18300Y91227D02*X19100D01*
Y87727D01*
X18600Y87227D02*X19100Y87727D01*
X18100Y87227D02*X18600D01*
X17600Y87727D02*X18100Y87227D01*
X17600Y88227D02*Y87727D01*
X20300Y90727D02*X20800Y91227D01*
X22300D01*
X22800Y90727D01*
Y89727D01*
X20300Y87227D02*X22800Y89727D01*
X20300Y87227D02*X22800D01*
M02*
