M48
INCH
T149C0.036
T148C0.079
T147C0.045
T146C0.063
T145C0.030
T144C0.063
T143C0.040
T142C0.038
%
T145
X010037Y032088
X009037Y032088
X008856Y016541
X008856Y015541
T149
X006234Y011476
X006234Y012476
T142
X002952Y022445
X008266Y024594
X008266Y026594
X008266Y025594
X006100Y024883
X006100Y025883
X002952Y027530
X002952Y028530
X002952Y029530
X002952Y024530
X002952Y025530
X002952Y026530
X024600Y030120
X029126Y030120
X019679Y030120
X032669Y030120
X001700Y007883
X001700Y006883
X002952Y017445
X002952Y018445
X002952Y019445
X002952Y020445
X002952Y021445
X006700Y017883
X006700Y018883
X036250Y030133
X039200Y030133
T143
X001630Y031737
X004346Y031698
X005055Y033568
X001630Y003246
X004346Y003207
X005055Y005077
T147
X014110Y024499
X014110Y023499
X014110Y022499
X014110Y021499
X014110Y020499
X014110Y019499
X014110Y018499
X014110Y017499
X014110Y016499
X014110Y015499
X014110Y014499
X038110Y022499
X038110Y021499
X038110Y020499
X038110Y019499
X038110Y018499
X038110Y017499
T146
X010228Y008366
X011212Y004429
X012196Y008366
X013951Y032009
X015920Y032009
X014935Y028072
T144
X001866Y032722
X004228Y032722
X001866Y004231
X004228Y004231
T148
X004234Y010476
X004234Y014476
M30
