M48
INCH
T175C0.020
T174C0.030
T173C0.028
T172C0.045
T171C0.038
T170C0.063
T169C0.036
T168C0.079
T167C0.040
T166C0.063
%
T175
X036211Y030120
X039163Y030120
T173
X008266Y026594
X002952Y027530
X002952Y028530
X002952Y029530
X032669Y030120
X029126Y030120
X024600Y030120
X019679Y030120
X002952Y017445
X002952Y018445
X002952Y019445
X002952Y020445
X002952Y021445
X002952Y022445
X008266Y024594
X008266Y025594
X002952Y024530
X002952Y025530
X002952Y026530
T174
X009037Y032088
X010037Y032088
X008856Y016541
X008856Y015541
T169
X006234Y012476
X006234Y011476
T171
X001700Y007883
X006100Y024883
X006100Y025883
X006700Y017883
X001700Y008883
X006700Y018883
T167
X005055Y033068
X001630Y031237
X001630Y004546
X004346Y004507
X004346Y031198
X005055Y006377
T172
X038110Y016499
X014110Y024499
X014110Y023499
X014110Y022499
X014110Y019499
X014110Y018499
X014110Y017499
X014110Y016499
X014110Y015499
X014110Y014499
X014110Y021499
X038110Y021499
X014110Y020499
X038110Y020499
X038110Y019499
X038110Y018499
X038110Y017499
T166
X015920Y032009
X013951Y032009
X014935Y028072
X010228Y008366
X011212Y004429
X012196Y008366
T170
X001866Y005531
X004228Y032222
X004228Y005531
X001866Y032222
T168
X004234Y010476
X004234Y014476
M30
