G04 start of page 4 for group 2 idx 2 *
G04 Title: uhx1_board, GND *
G04 Creator: pcb 20110918 *
G04 CreationDate: Wed Nov 21 15:50:15 2012 UTC *
G04 For: alpsayin *
G04 Format: Gerber/RS-274X *
G04 PCB-Dimensions: 472441 385827 *
G04 PCB-Coordinate-Origin: lower left *
%MOIN*%
%FSLAX25Y25*%
%LNGROUP2*%
%ADD70C,0.0300*%
%ADD69C,0.0280*%
%ADD68C,0.0450*%
%ADD67C,0.0380*%
%ADD66C,0.0634*%
%ADD65C,0.0358*%
%ADD64C,0.0793*%
%ADD63C,0.0398*%
%ADD62C,0.0630*%
%ADD61C,0.0200*%
%ADD60C,0.0360*%
%ADD59C,0.0001*%
%ADD58C,0.0600*%
%ADD57C,0.0700*%
%ADD56C,0.0674*%
%ADD55C,0.0472*%
%ADD54C,0.0833*%
%ADD53C,0.0488*%
%ADD52C,0.1417*%
G54D52*X102278Y83664D03*
X112121Y44294D03*
X121964Y83664D03*
G54D53*X16299Y45465D03*
X43465Y45071D03*
G54D54*X42335Y104759D03*
G54D55*X62335Y114759D03*
Y124759D03*
G54D56*X18661Y55308D03*
G54D57*X17000Y88827D03*
Y78827D03*
G54D56*X42283Y55308D03*
G54D53*X50551Y63772D03*
G54D57*X141103Y214990D03*
X381103D03*
X141103Y204990D03*
X381103D03*
Y194990D03*
Y184990D03*
Y174990D03*
Y164990D03*
G54D53*X16299Y312372D03*
X43465Y311978D03*
G54D52*X149354Y280721D03*
G54D58*X29520Y275299D03*
Y285299D03*
Y295299D03*
G54D56*X18661Y322215D03*
G54D59*G36*
X87368Y323883D02*Y317883D01*
X93368D01*
Y323883D01*
X87368D01*
G37*
G54D58*X100368Y320883D03*
G54D52*X139511Y320091D03*
X159197D03*
G54D56*X42283Y322215D03*
G54D53*X50551Y330679D03*
G54D59*G36*
X323688Y304203D02*Y298203D01*
X329688D01*
Y304203D01*
X323688D01*
G37*
G36*
X288264D02*Y298203D01*
X294264D01*
Y304203D01*
X288264D01*
G37*
G36*
X243000D02*Y298203D01*
X249000D01*
Y304203D01*
X243000D01*
G37*
G36*
X193786D02*Y298203D01*
X199786D01*
Y304203D01*
X193786D01*
G37*
G36*
X26520Y177451D02*Y171451D01*
X32520D01*
Y177451D01*
X26520D01*
G37*
G54D58*X29520Y184451D03*
Y194451D03*
Y204451D03*
Y214451D03*
G54D57*X141103Y194990D03*
Y184990D03*
Y174990D03*
Y164990D03*
Y154990D03*
Y144990D03*
G54D54*X42335Y144759D03*
G54D59*G36*
X85560Y168411D02*Y162411D01*
X91560D01*
Y168411D01*
X85560D01*
G37*
G54D58*X88560Y155411D03*
G54D57*X67000Y178827D03*
Y188827D03*
G54D58*X29520Y224451D03*
X82656Y245939D03*
G54D57*X141103Y244990D03*
Y234990D03*
Y224990D03*
G54D59*G36*
X79656Y268939D02*Y262939D01*
X85656D01*
Y268939D01*
X79656D01*
G37*
G54D58*X82656Y255939D03*
G54D59*G36*
X26520Y248299D02*Y242299D01*
X32520D01*
Y248299D01*
X26520D01*
G37*
G54D58*X29520Y255299D03*
Y265299D03*
G54D57*X61000Y248827D03*
Y258827D03*
G54D60*X362112Y301203D03*
X391632D03*
G54D61*G54D62*G54D63*G54D64*G54D65*G54D66*G54D67*G54D66*G54D63*G54D68*G54D63*G54D62*G54D69*G54D66*G54D70*G54D62*G54D66*G54D63*G54D69*G54D68*G54D64*G54D70*G54D67*G54D69*G54D68*G54D69*G54D67*M02*
