G04 start of page 17 for group -3984 idx -3984 *
G04 Title: uhx1_board, fab *
G04 Creator: pcb 20110918 *
G04 CreationDate: Thu Mar 28 17:04:58 2013 UTC *
G04 For: alpsayin *
G04 Format: Gerber/RS-274X *
G04 PCB-Dimensions: 472441 385827 *
G04 PCB-Coordinate-Origin: lower left *
%MOIN*%
%FSLAX25Y25*%
%LNFAB*%
%ADD176C,0.0100*%
%ADD175C,0.0075*%
%ADD174C,0.0060*%
%ADD173C,0.0080*%
G54D173*X42335Y107959D02*Y101559D01*
X39135Y104759D02*X45535D01*
X40735Y106359D02*X43935D01*
X40735D02*Y103159D01*
X43935D01*
Y106359D02*Y103159D01*
X42335Y147959D02*Y141559D01*
X39135Y144759D02*X45535D01*
X40735Y146359D02*X43935D01*
X40735D02*Y143159D01*
X43935D01*
Y146359D02*Y143159D01*
X15000Y400277D02*Y393877D01*
X11800Y397077D02*X18200D01*
X13400Y398677D02*X16600D01*
X13400D02*Y395477D01*
X16600D01*
Y398677D02*Y395477D01*
G54D174*X135000Y399327D02*X136500Y396327D01*
X138000Y399327D01*
X136500Y396327D02*Y393327D01*
X139800Y396627D02*X142050D01*
X139800Y393327D02*X142800D01*
X139800Y399327D02*Y393327D01*
Y399327D02*X142800D01*
X147600D02*X148350Y398577D01*
X145350Y399327D02*X147600D01*
X144600Y398577D02*X145350Y399327D01*
X144600Y398577D02*Y397077D01*
X145350Y396327D01*
X147600D01*
X148350Y395577D01*
Y394077D01*
X147600Y393327D02*X148350Y394077D01*
X145350Y393327D02*X147600D01*
X144600Y394077D02*X145350Y393327D01*
X98000Y398577D02*X98750Y399327D01*
X101000D01*
X101750Y398577D01*
Y397077D01*
X98000Y393327D02*X101750Y397077D01*
X98000Y393327D02*X101750D01*
X45000Y394077D02*X45750Y393327D01*
X45000Y398577D02*Y394077D01*
Y398577D02*X45750Y399327D01*
X47250D01*
X48000Y398577D01*
Y394077D01*
X47250Y393327D02*X48000Y394077D01*
X45750Y393327D02*X47250D01*
X45000Y394827D02*X48000Y397827D01*
X49800Y393327D02*X50550D01*
X52350Y394077D02*X53100Y393327D01*
X52350Y398577D02*Y394077D01*
Y398577D02*X53100Y399327D01*
X54600D01*
X55350Y398577D01*
Y394077D01*
X54600Y393327D02*X55350Y394077D01*
X53100Y393327D02*X54600D01*
X52350Y394827D02*X55350Y397827D01*
X57150Y394077D02*X57900Y393327D01*
X57150Y395277D02*Y394077D01*
Y395277D02*X58200Y396327D01*
X59100D01*
X60150Y395277D01*
Y394077D01*
X59400Y393327D02*X60150Y394077D01*
X57900Y393327D02*X59400D01*
X57150Y397377D02*X58200Y396327D01*
X57150Y398577D02*Y397377D01*
Y398577D02*X57900Y399327D01*
X59400D01*
X60150Y398577D01*
Y397377D01*
X59100Y396327D02*X60150Y397377D01*
X61950Y394077D02*X62700Y393327D01*
X61950Y398577D02*Y394077D01*
Y398577D02*X62700Y399327D01*
X64200D01*
X64950Y398577D01*
Y394077D01*
X64200Y393327D02*X64950Y394077D01*
X62700Y393327D02*X64200D01*
X61950Y394827D02*X64950Y397827D01*
X139511Y320091D02*Y316891D01*
Y320091D02*X142284Y321691D01*
X139511Y320091D02*X136738Y321691D01*
X137911Y320091D02*G75*G03X141111Y320091I1600J0D01*G01*
G75*G03X137911Y320091I-1600J0D01*G01*
X149354Y280721D02*Y277521D01*
Y280721D02*X152127Y282321D01*
X149354Y280721D02*X146581Y282321D01*
X147754Y280721D02*G75*G03X150954Y280721I1600J0D01*G01*
G75*G03X147754Y280721I-1600J0D01*G01*
X159197Y320091D02*Y316891D01*
Y320091D02*X161970Y321691D01*
X159197Y320091D02*X156424Y321691D01*
X157597Y320091D02*G75*G03X160797Y320091I1600J0D01*G01*
G75*G03X157597Y320091I-1600J0D01*G01*
X102278Y83664D02*Y80464D01*
Y83664D02*X105051Y85264D01*
X102278Y83664D02*X99505Y85264D01*
X100678Y83664D02*G75*G03X103878Y83664I1600J0D01*G01*
G75*G03X100678Y83664I-1600J0D01*G01*
X112121Y44294D02*Y41094D01*
Y44294D02*X114894Y45894D01*
X112121Y44294D02*X109348Y45894D01*
X110521Y44294D02*G75*G03X113721Y44294I1600J0D01*G01*
G75*G03X110521Y44294I-1600J0D01*G01*
X121964Y83664D02*Y80464D01*
Y83664D02*X124737Y85264D01*
X121964Y83664D02*X119191Y85264D01*
X120364Y83664D02*G75*G03X123564Y83664I1600J0D01*G01*
G75*G03X120364Y83664I-1600J0D01*G01*
X18661Y42308D02*Y39108D01*
Y42308D02*X21434Y43908D01*
X18661Y42308D02*X15888Y43908D01*
X17061Y42308D02*G75*G03X20261Y42308I1600J0D01*G01*
G75*G03X17061Y42308I-1600J0D01*G01*
X42283D02*Y39108D01*
Y42308D02*X45056Y43908D01*
X42283Y42308D02*X39510Y43908D01*
X40683Y42308D02*G75*G03X43883Y42308I1600J0D01*G01*
G75*G03X40683Y42308I-1600J0D01*G01*
X18661Y327215D02*Y324015D01*
Y327215D02*X21434Y328815D01*
X18661Y327215D02*X15888Y328815D01*
X17061Y327215D02*G75*G03X20261Y327215I1600J0D01*G01*
G75*G03X17061Y327215I-1600J0D01*G01*
X42283D02*Y324015D01*
Y327215D02*X45056Y328815D01*
X42283Y327215D02*X39510Y328815D01*
X40683Y327215D02*G75*G03X43883Y327215I1600J0D01*G01*
G75*G03X40683Y327215I-1600J0D01*G01*
X15000Y412077D02*Y408877D01*
Y412077D02*X17773Y413677D01*
X15000Y412077D02*X12227Y413677D01*
X13400Y412077D02*G75*G03X16600Y412077I1600J0D01*G01*
G75*G03X13400Y412077I-1600J0D01*G01*
X135000Y414327D02*X136500Y411327D01*
X138000Y414327D01*
X136500Y411327D02*Y408327D01*
X139800Y411627D02*X142050D01*
X139800Y408327D02*X142800D01*
X139800Y414327D02*Y408327D01*
Y414327D02*X142800D01*
X147600D02*X148350Y413577D01*
X145350Y414327D02*X147600D01*
X144600Y413577D02*X145350Y414327D01*
X144600Y413577D02*Y412077D01*
X145350Y411327D01*
X147600D01*
X148350Y410577D01*
Y409077D01*
X147600Y408327D02*X148350Y409077D01*
X145350Y408327D02*X147600D01*
X144600Y409077D02*X145350Y408327D01*
X98000Y413127D02*X99200Y414327D01*
Y408327D01*
X98000D02*X100250D01*
X102050Y409077D02*X102800Y408327D01*
X102050Y413577D02*Y409077D01*
Y413577D02*X102800Y414327D01*
X104300D01*
X105050Y413577D01*
Y409077D01*
X104300Y408327D02*X105050Y409077D01*
X102800Y408327D02*X104300D01*
X102050Y409827D02*X105050Y412827D01*
X45000Y409077D02*X45750Y408327D01*
X45000Y413577D02*Y409077D01*
Y413577D02*X45750Y414327D01*
X47250D01*
X48000Y413577D01*
Y409077D01*
X47250Y408327D02*X48000Y409077D01*
X45750Y408327D02*X47250D01*
X45000Y409827D02*X48000Y412827D01*
X49800Y408327D02*X50550D01*
X52350Y409077D02*X53100Y408327D01*
X52350Y413577D02*Y409077D01*
Y413577D02*X53100Y414327D01*
X54600D01*
X55350Y413577D01*
Y409077D01*
X54600Y408327D02*X55350Y409077D01*
X53100Y408327D02*X54600D01*
X52350Y409827D02*X55350Y412827D01*
X59400Y414327D02*X60150Y413577D01*
X57900Y414327D02*X59400D01*
X57150Y413577D02*X57900Y414327D01*
X57150Y413577D02*Y409077D01*
X57900Y408327D01*
X59400Y411627D02*X60150Y410877D01*
X57150Y411627D02*X59400D01*
X57900Y408327D02*X59400D01*
X60150Y409077D01*
Y410877D02*Y409077D01*
X61950Y413577D02*X62700Y414327D01*
X64200D01*
X64950Y413577D01*
X64200Y408327D02*X64950Y409077D01*
X62700Y408327D02*X64200D01*
X61950Y409077D02*X62700Y408327D01*
Y411627D02*X64200D01*
X64950Y413577D02*Y412377D01*
Y410877D02*Y409077D01*
Y410877D02*X64200Y411627D01*
X64950Y412377D02*X64200Y411627D01*
X139503Y246590D02*X142703D01*
X139503D02*Y243390D01*
X142703D01*
Y246590D02*Y243390D01*
X139503Y236590D02*X142703D01*
X139503D02*Y233390D01*
X142703D01*
Y236590D02*Y233390D01*
X139503Y226590D02*X142703D01*
X139503D02*Y223390D01*
X142703D01*
Y226590D02*Y223390D01*
X139503Y216590D02*X142703D01*
X139503D02*Y213390D01*
X142703D01*
Y216590D02*Y213390D01*
X139503Y206590D02*X142703D01*
X139503D02*Y203390D01*
X142703D01*
Y206590D02*Y203390D01*
X139503Y196590D02*X142703D01*
X139503D02*Y193390D01*
X142703D01*
Y196590D02*Y193390D01*
X139503Y186590D02*X142703D01*
X139503D02*Y183390D01*
X142703D01*
Y186590D02*Y183390D01*
X139503Y176590D02*X142703D01*
X139503D02*Y173390D01*
X142703D01*
Y176590D02*Y173390D01*
X139503Y166590D02*X142703D01*
X139503D02*Y163390D01*
X142703D01*
Y166590D02*Y163390D01*
X139503Y156590D02*X142703D01*
X139503D02*Y153390D01*
X142703D01*
Y156590D02*Y153390D01*
X139503Y146590D02*X142703D01*
X139503D02*Y143390D01*
X142703D01*
Y146590D02*Y143390D01*
X379503Y226590D02*X382703D01*
X379503D02*Y223390D01*
X382703D01*
Y226590D02*Y223390D01*
X379503Y216590D02*X382703D01*
X379503D02*Y213390D01*
X382703D01*
Y216590D02*Y213390D01*
X379503Y206590D02*X382703D01*
X379503D02*Y203390D01*
X382703D01*
Y206590D02*Y203390D01*
X379503Y196590D02*X382703D01*
X379503D02*Y193390D01*
X382703D01*
Y196590D02*Y193390D01*
X379503Y186590D02*X382703D01*
X379503D02*Y183390D01*
X382703D01*
Y186590D02*Y183390D01*
X379503Y186590D02*X382703D01*
X379503D02*Y183390D01*
X382703D01*
Y186590D02*Y183390D01*
X13400Y428677D02*X16600D01*
X13400D02*Y425477D01*
X16600D01*
Y428677D02*Y425477D01*
X135000Y429327D02*X136500Y426327D01*
X138000Y429327D01*
X136500Y426327D02*Y423327D01*
X139800Y426627D02*X142050D01*
X139800Y423327D02*X142800D01*
X139800Y429327D02*Y423327D01*
Y429327D02*X142800D01*
X147600D02*X148350Y428577D01*
X145350Y429327D02*X147600D01*
X144600Y428577D02*X145350Y429327D01*
X144600Y428577D02*Y427077D01*
X145350Y426327D01*
X147600D01*
X148350Y425577D01*
Y424077D01*
X147600Y423327D02*X148350Y424077D01*
X145350Y423327D02*X147600D01*
X144600Y424077D02*X145350Y423327D01*
X98000Y428127D02*X99200Y429327D01*
Y423327D01*
X98000D02*X100250D01*
X102800D02*X105800Y429327D01*
X102050D02*X105800D01*
X45000Y424077D02*X45750Y423327D01*
X45000Y428577D02*Y424077D01*
Y428577D02*X45750Y429327D01*
X47250D01*
X48000Y428577D01*
Y424077D01*
X47250Y423327D02*X48000Y424077D01*
X45750Y423327D02*X47250D01*
X45000Y424827D02*X48000Y427827D01*
X49800Y423327D02*X50550D01*
X52350Y424077D02*X53100Y423327D01*
X52350Y428577D02*Y424077D01*
Y428577D02*X53100Y429327D01*
X54600D01*
X55350Y428577D01*
Y424077D01*
X54600Y423327D02*X55350Y424077D01*
X53100Y423327D02*X54600D01*
X52350Y424827D02*X55350Y427827D01*
X57150Y425577D02*X60150Y429327D01*
X57150Y425577D02*X60900D01*
X60150Y429327D02*Y423327D01*
X62700Y429327D02*X65700D01*
X62700D02*Y426327D01*
X63450Y427077D01*
X64950D01*
X65700Y426327D01*
Y424077D01*
X64950Y423327D02*X65700Y424077D01*
X63450Y423327D02*X64950D01*
X62700Y424077D02*X63450Y423327D01*
X15499Y32465D02*G75*G03X17099Y32465I800J0D01*G01*
G75*G03X15499Y32465I-800J0D01*G01*
X42665Y32071D02*G75*G03X44265Y32071I800J0D01*G01*
G75*G03X42665Y32071I-800J0D01*G01*
X49751Y50772D02*G75*G03X51351Y50772I800J0D01*G01*
G75*G03X49751Y50772I-800J0D01*G01*
X15499Y317372D02*G75*G03X17099Y317372I800J0D01*G01*
G75*G03X15499Y317372I-800J0D01*G01*
X42665Y316978D02*G75*G03X44265Y316978I800J0D01*G01*
G75*G03X42665Y316978I-800J0D01*G01*
X49751Y335679D02*G75*G03X51351Y335679I800J0D01*G01*
G75*G03X49751Y335679I-800J0D01*G01*
X14200Y442077D02*G75*G03X15800Y442077I800J0D01*G01*
G75*G03X14200Y442077I-800J0D01*G01*
X135000Y444327D02*X136500Y441327D01*
X138000Y444327D01*
X136500Y441327D02*Y438327D01*
X139800Y441627D02*X142050D01*
X139800Y438327D02*X142800D01*
X139800Y444327D02*Y438327D01*
Y444327D02*X142800D01*
X147600D02*X148350Y443577D01*
X145350Y444327D02*X147600D01*
X144600Y443577D02*X145350Y444327D01*
X144600Y443577D02*Y442077D01*
X145350Y441327D01*
X147600D01*
X148350Y440577D01*
Y439077D01*
X147600Y438327D02*X148350Y439077D01*
X145350Y438327D02*X147600D01*
X144600Y439077D02*X145350Y438327D01*
X100250Y444327D02*X101000Y443577D01*
X98750Y444327D02*X100250D01*
X98000Y443577D02*X98750Y444327D01*
X98000Y443577D02*Y439077D01*
X98750Y438327D01*
X100250Y441627D02*X101000Y440877D01*
X98000Y441627D02*X100250D01*
X98750Y438327D02*X100250D01*
X101000Y439077D01*
Y440877D02*Y439077D01*
X45000D02*X45750Y438327D01*
X45000Y443577D02*Y439077D01*
Y443577D02*X45750Y444327D01*
X47250D01*
X48000Y443577D01*
Y439077D01*
X47250Y438327D02*X48000Y439077D01*
X45750Y438327D02*X47250D01*
X45000Y439827D02*X48000Y442827D01*
X49800Y438327D02*X50550D01*
X52350Y439077D02*X53100Y438327D01*
X52350Y443577D02*Y439077D01*
Y443577D02*X53100Y444327D01*
X54600D01*
X55350Y443577D01*
Y439077D01*
X54600Y438327D02*X55350Y439077D01*
X53100Y438327D02*X54600D01*
X52350Y439827D02*X55350Y442827D01*
X57150Y440577D02*X60150Y444327D01*
X57150Y440577D02*X60900D01*
X60150Y444327D02*Y438327D01*
X62700Y439077D02*X63450Y438327D01*
X62700Y443577D02*Y439077D01*
Y443577D02*X63450Y444327D01*
X64950D01*
X65700Y443577D01*
Y439077D01*
X64950Y438327D02*X65700Y439077D01*
X63450Y438327D02*X64950D01*
X62700Y439827D02*X65700Y442827D01*
X28320Y175651D02*X30720Y173251D01*
X28320D02*X30720Y175651D01*
X28320Y185651D02*X30720Y183251D01*
X28320D02*X30720Y185651D01*
X28320Y195651D02*X30720Y193251D01*
X28320D02*X30720Y195651D01*
X28320Y205651D02*X30720Y203251D01*
X28320D02*X30720Y205651D01*
X28320Y215651D02*X30720Y213251D01*
X28320D02*X30720Y215651D01*
X28320Y225651D02*X30720Y223251D01*
X28320D02*X30720Y225651D01*
X81456Y267139D02*X83856Y264739D01*
X81456D02*X83856Y267139D01*
X81456Y257139D02*X83856Y254739D01*
X81456D02*X83856Y257139D01*
X81456Y247139D02*X83856Y244739D01*
X81456D02*X83856Y247139D01*
X325488Y302403D02*X327888Y300003D01*
X325488D02*X327888Y302403D01*
X244800D02*X247200Y300003D01*
X244800D02*X247200Y302403D01*
X290064D02*X292464Y300003D01*
X290064D02*X292464Y302403D01*
X195586D02*X197986Y300003D01*
X195586D02*X197986Y302403D01*
X28320Y246499D02*X30720Y244099D01*
X28320D02*X30720Y246499D01*
X28320Y256499D02*X30720Y254099D01*
X28320D02*X30720Y256499D01*
X28320Y266499D02*X30720Y264099D01*
X28320D02*X30720Y266499D01*
X28320Y276499D02*X30720Y274099D01*
X28320D02*X30720Y276499D01*
X28320Y286499D02*X30720Y284099D01*
X28320D02*X30720Y286499D01*
X28320Y296499D02*X30720Y294099D01*
X28320D02*X30720Y296499D01*
X15800Y80027D02*X18200Y77627D01*
X15800D02*X18200Y80027D01*
X15800Y70027D02*X18200Y67627D01*
X15800D02*X18200Y70027D01*
X65800Y180027D02*X68200Y177627D01*
X65800D02*X68200Y180027D01*
X65800Y190027D02*X68200Y187627D01*
X65800D02*X68200Y190027D01*
X59800Y250027D02*X62200Y247627D01*
X59800D02*X62200Y250027D01*
X59800Y260027D02*X62200Y257627D01*
X59800D02*X62200Y260027D01*
X361300Y302527D02*X363700Y300127D01*
X361300D02*X363700Y302527D01*
X390800D02*X393200Y300127D01*
X390800D02*X393200Y302527D01*
X13800Y458277D02*X16200Y455877D01*
X13800D02*X16200Y458277D01*
X135000Y459327D02*X136500Y456327D01*
X138000Y459327D01*
X136500Y456327D02*Y453327D01*
X139800Y456627D02*X142050D01*
X139800Y453327D02*X142800D01*
X139800Y459327D02*Y453327D01*
Y459327D02*X142800D01*
X147600D02*X148350Y458577D01*
X145350Y459327D02*X147600D01*
X144600Y458577D02*X145350Y459327D01*
X144600Y458577D02*Y457077D01*
X145350Y456327D01*
X147600D01*
X148350Y455577D01*
Y454077D01*
X147600Y453327D02*X148350Y454077D01*
X145350Y453327D02*X147600D01*
X144600Y454077D02*X145350Y453327D01*
X98000Y458577D02*X98750Y459327D01*
X101000D01*
X101750Y458577D01*
Y457077D01*
X98000Y453327D02*X101750Y457077D01*
X98000Y453327D02*X101750D01*
X104300D02*X107300Y459327D01*
X103550D02*X107300D01*
X45000Y454077D02*X45750Y453327D01*
X45000Y458577D02*Y454077D01*
Y458577D02*X45750Y459327D01*
X47250D01*
X48000Y458577D01*
Y454077D01*
X47250Y453327D02*X48000Y454077D01*
X45750Y453327D02*X47250D01*
X45000Y454827D02*X48000Y457827D01*
X49800Y453327D02*X50550D01*
X52350Y454077D02*X53100Y453327D01*
X52350Y458577D02*Y454077D01*
Y458577D02*X53100Y459327D01*
X54600D01*
X55350Y458577D01*
Y454077D01*
X54600Y453327D02*X55350Y454077D01*
X53100Y453327D02*X54600D01*
X52350Y454827D02*X55350Y457827D01*
X57150Y458577D02*X57900Y459327D01*
X59400D01*
X60150Y458577D01*
X59400Y453327D02*X60150Y454077D01*
X57900Y453327D02*X59400D01*
X57150Y454077D02*X57900Y453327D01*
Y456627D02*X59400D01*
X60150Y458577D02*Y457377D01*
Y455877D02*Y454077D01*
Y455877D02*X59400Y456627D01*
X60150Y457377D02*X59400Y456627D01*
X61950Y454077D02*X62700Y453327D01*
X61950Y455277D02*Y454077D01*
Y455277D02*X63000Y456327D01*
X63900D01*
X64950Y455277D01*
Y454077D01*
X64200Y453327D02*X64950Y454077D01*
X62700Y453327D02*X64200D01*
X61950Y457377D02*X63000Y456327D01*
X61950Y458577D02*Y457377D01*
Y458577D02*X62700Y459327D01*
X64200D01*
X64950Y458577D01*
Y457377D01*
X63900Y456327D02*X64950Y457377D01*
X62335Y116359D02*Y113159D01*
X60735Y114759D02*X63935D01*
X62335Y126359D02*Y123159D01*
X60735Y124759D02*X63935D01*
X15000Y473677D02*Y470477D01*
X13400Y472077D02*X16600D01*
X135000Y474327D02*X136500Y471327D01*
X138000Y474327D01*
X136500Y471327D02*Y468327D01*
X139800Y471627D02*X142050D01*
X139800Y468327D02*X142800D01*
X139800Y474327D02*Y468327D01*
Y474327D02*X142800D01*
X147600D02*X148350Y473577D01*
X145350Y474327D02*X147600D01*
X144600Y473577D02*X145350Y474327D01*
X144600Y473577D02*Y472077D01*
X145350Y471327D01*
X147600D01*
X148350Y470577D01*
Y469077D01*
X147600Y468327D02*X148350Y469077D01*
X145350Y468327D02*X147600D01*
X144600Y469077D02*X145350Y468327D01*
X98000Y473577D02*X98750Y474327D01*
X101000D01*
X101750Y473577D01*
Y472077D01*
X98000Y468327D02*X101750Y472077D01*
X98000Y468327D02*X101750D01*
X45000Y469077D02*X45750Y468327D01*
X45000Y473577D02*Y469077D01*
Y473577D02*X45750Y474327D01*
X47250D01*
X48000Y473577D01*
Y469077D01*
X47250Y468327D02*X48000Y469077D01*
X45750Y468327D02*X47250D01*
X45000Y469827D02*X48000Y472827D01*
X49800Y468327D02*X50550D01*
X52350Y469077D02*X53100Y468327D01*
X52350Y473577D02*Y469077D01*
Y473577D02*X53100Y474327D01*
X54600D01*
X55350Y473577D01*
Y469077D01*
X54600Y468327D02*X55350Y469077D01*
X53100Y468327D02*X54600D01*
X52350Y469827D02*X55350Y472827D01*
X57150Y473577D02*X57900Y474327D01*
X59400D01*
X60150Y473577D01*
X59400Y468327D02*X60150Y469077D01*
X57900Y468327D02*X59400D01*
X57150Y469077D02*X57900Y468327D01*
Y471627D02*X59400D01*
X60150Y473577D02*Y472377D01*
Y470877D02*Y469077D01*
Y470877D02*X59400Y471627D01*
X60150Y472377D02*X59400Y471627D01*
X64200Y474327D02*X64950Y473577D01*
X62700Y474327D02*X64200D01*
X61950Y473577D02*X62700Y474327D01*
X61950Y473577D02*Y469077D01*
X62700Y468327D01*
X64200Y471627D02*X64950Y470877D01*
X61950Y471627D02*X64200D01*
X62700Y468327D02*X64200D01*
X64950Y469077D01*
Y470877D02*Y469077D01*
X90368Y320883D02*Y319283D01*
Y320883D02*X91755Y321683D01*
X90368Y320883D02*X88981Y321683D01*
X100368Y320883D02*Y319283D01*
Y320883D02*X101755Y321683D01*
X100368Y320883D02*X98981Y321683D01*
X88560Y165411D02*Y163811D01*
Y165411D02*X89947Y166211D01*
X88560Y165411D02*X87173Y166211D01*
X88560Y155411D02*Y153811D01*
Y155411D02*X89947Y156211D01*
X88560Y155411D02*X87173Y156211D01*
X15000Y487077D02*Y485477D01*
Y487077D02*X16387Y487877D01*
X15000Y487077D02*X13613Y487877D01*
X135000Y489327D02*X136500Y486327D01*
X138000Y489327D01*
X136500Y486327D02*Y483327D01*
X139800Y486627D02*X142050D01*
X139800Y483327D02*X142800D01*
X139800Y489327D02*Y483327D01*
Y489327D02*X142800D01*
X147600D02*X148350Y488577D01*
X145350Y489327D02*X147600D01*
X144600Y488577D02*X145350Y489327D01*
X144600Y488577D02*Y487077D01*
X145350Y486327D01*
X147600D01*
X148350Y485577D01*
Y484077D01*
X147600Y483327D02*X148350Y484077D01*
X145350Y483327D02*X147600D01*
X144600Y484077D02*X145350Y483327D01*
X98000Y485577D02*X101000Y489327D01*
X98000Y485577D02*X101750D01*
X101000Y489327D02*Y483327D01*
X45000Y484077D02*X45750Y483327D01*
X45000Y488577D02*Y484077D01*
Y488577D02*X45750Y489327D01*
X47250D01*
X48000Y488577D01*
Y484077D01*
X47250Y483327D02*X48000Y484077D01*
X45750Y483327D02*X47250D01*
X45000Y484827D02*X48000Y487827D01*
X49800Y483327D02*X50550D01*
X52350Y484077D02*X53100Y483327D01*
X52350Y488577D02*Y484077D01*
Y488577D02*X53100Y489327D01*
X54600D01*
X55350Y488577D01*
Y484077D01*
X54600Y483327D02*X55350Y484077D01*
X53100Y483327D02*X54600D01*
X52350Y484827D02*X55350Y487827D01*
X57150Y488577D02*X57900Y489327D01*
X59400D01*
X60150Y488577D01*
X59400Y483327D02*X60150Y484077D01*
X57900Y483327D02*X59400D01*
X57150Y484077D02*X57900Y483327D01*
Y486627D02*X59400D01*
X60150Y488577D02*Y487377D01*
Y485877D02*Y484077D01*
Y485877D02*X59400Y486627D01*
X60150Y487377D02*X59400Y486627D01*
X61950Y484077D02*X62700Y483327D01*
X61950Y488577D02*Y484077D01*
Y488577D02*X62700Y489327D01*
X64200D01*
X64950Y488577D01*
Y484077D01*
X64200Y483327D02*X64950Y484077D01*
X62700Y483327D02*X64200D01*
X61950Y484827D02*X64950Y487827D01*
X3000Y504327D02*X3750Y503577D01*
X750Y504327D02*X3000D01*
X0Y503577D02*X750Y504327D01*
X0Y503577D02*Y502077D01*
X750Y501327D01*
X3000D01*
X3750Y500577D01*
Y499077D01*
X3000Y498327D02*X3750Y499077D01*
X750Y498327D02*X3000D01*
X0Y499077D02*X750Y498327D01*
X5550Y501327D02*Y499077D01*
X6300Y498327D01*
X8550Y501327D02*Y496827D01*
X7800Y496077D02*X8550Y496827D01*
X6300Y496077D02*X7800D01*
X5550Y496827D02*X6300Y496077D01*
Y498327D02*X7800D01*
X8550Y499077D01*
X11100Y500577D02*Y498327D01*
Y500577D02*X11850Y501327D01*
X12600D01*
X13350Y500577D01*
Y498327D01*
Y500577D02*X14100Y501327D01*
X14850D01*
X15600Y500577D01*
Y498327D01*
X10350Y501327D02*X11100Y500577D01*
X17400Y504327D02*Y498327D01*
Y499077D02*X18150Y498327D01*
X19650D01*
X20400Y499077D01*
Y500577D02*Y499077D01*
X19650Y501327D02*X20400Y500577D01*
X18150Y501327D02*X19650D01*
X17400Y500577D02*X18150Y501327D01*
X22200Y500577D02*Y499077D01*
Y500577D02*X22950Y501327D01*
X24450D01*
X25200Y500577D01*
Y499077D01*
X24450Y498327D02*X25200Y499077D01*
X22950Y498327D02*X24450D01*
X22200Y499077D02*X22950Y498327D01*
X27000Y504327D02*Y499077D01*
X27750Y498327D01*
X0Y495077D02*X29250D01*
X41750Y504327D02*Y498327D01*
X43700Y504327D02*X44750Y503277D01*
Y499377D01*
X43700Y498327D02*X44750Y499377D01*
X41000Y498327D02*X43700D01*
X41000Y504327D02*X43700D01*
G54D175*X46550Y502827D02*Y502677D01*
G54D174*Y500577D02*Y498327D01*
X50300Y501327D02*X51050Y500577D01*
X48800Y501327D02*X50300D01*
X48050Y500577D02*X48800Y501327D01*
X48050Y500577D02*Y499077D01*
X48800Y498327D01*
X51050Y501327D02*Y499077D01*
X51800Y498327D01*
X48800D02*X50300D01*
X51050Y499077D01*
X54350Y500577D02*Y498327D01*
Y500577D02*X55100Y501327D01*
X55850D01*
X56600Y500577D01*
Y498327D01*
Y500577D02*X57350Y501327D01*
X58100D01*
X58850Y500577D01*
Y498327D01*
X53600Y501327D02*X54350Y500577D01*
X60650Y498327D02*X61400D01*
X65900Y499077D02*X66650Y498327D01*
X65900Y503577D02*X66650Y504327D01*
X65900Y503577D02*Y499077D01*
X68450Y504327D02*X69950D01*
X69200D02*Y498327D01*
X68450D02*X69950D01*
X72500Y500577D02*Y498327D01*
Y500577D02*X73250Y501327D01*
X74000D01*
X74750Y500577D01*
Y498327D01*
X71750Y501327D02*X72500Y500577D01*
X77300Y501327D02*X79550D01*
X76550Y500577D02*X77300Y501327D01*
X76550Y500577D02*Y499077D01*
X77300Y498327D01*
X79550D01*
X81350Y504327D02*Y498327D01*
Y500577D02*X82100Y501327D01*
X83600D01*
X84350Y500577D01*
Y498327D01*
X86150Y504327D02*X86900Y503577D01*
Y499077D01*
X86150Y498327D02*X86900Y499077D01*
X41000Y495077D02*X88700D01*
X96050Y498327D02*X98000D01*
X95000Y499377D02*X96050Y498327D01*
X95000Y503277D02*Y499377D01*
Y503277D02*X96050Y504327D01*
X98000D01*
X99800Y500577D02*Y499077D01*
Y500577D02*X100550Y501327D01*
X102050D01*
X102800Y500577D01*
Y499077D01*
X102050Y498327D02*X102800Y499077D01*
X100550Y498327D02*X102050D01*
X99800Y499077D02*X100550Y498327D01*
X104600Y501327D02*Y499077D01*
X105350Y498327D01*
X106850D01*
X107600Y499077D01*
Y501327D02*Y499077D01*
X110150Y500577D02*Y498327D01*
Y500577D02*X110900Y501327D01*
X111650D01*
X112400Y500577D01*
Y498327D01*
X109400Y501327D02*X110150Y500577D01*
X114950Y504327D02*Y499077D01*
X115700Y498327D01*
X114200Y502077D02*X115700D01*
X95000Y495077D02*X117200D01*
X130750Y504327D02*Y498327D01*
X130000Y504327D02*X133000D01*
X133750Y503577D01*
Y502077D01*
X133000Y501327D02*X133750Y502077D01*
X130750Y501327D02*X133000D01*
X135550Y504327D02*Y499077D01*
X136300Y498327D01*
X140050Y501327D02*X140800Y500577D01*
X138550Y501327D02*X140050D01*
X137800Y500577D02*X138550Y501327D01*
X137800Y500577D02*Y499077D01*
X138550Y498327D01*
X140800Y501327D02*Y499077D01*
X141550Y498327D01*
X138550D02*X140050D01*
X140800Y499077D01*
X144100Y504327D02*Y499077D01*
X144850Y498327D01*
X143350Y502077D02*X144850D01*
X147100Y498327D02*X149350D01*
X146350Y499077D02*X147100Y498327D01*
X146350Y500577D02*Y499077D01*
Y500577D02*X147100Y501327D01*
X148600D01*
X149350Y500577D01*
X146350Y499827D02*X149350D01*
Y500577D02*Y499827D01*
X154150Y504327D02*Y498327D01*
X153400D02*X154150Y499077D01*
X151900Y498327D02*X153400D01*
X151150Y499077D02*X151900Y498327D01*
X151150Y500577D02*Y499077D01*
Y500577D02*X151900Y501327D01*
X153400D01*
X154150Y500577D01*
X157450Y501327D02*Y500577D01*
Y499077D02*Y498327D01*
X155950Y503577D02*Y502827D01*
Y503577D02*X156700Y504327D01*
X158200D01*
X158950Y503577D01*
Y502827D01*
X157450Y501327D02*X158950Y502827D01*
X130000Y495077D02*X160750D01*
X0Y519327D02*X3000D01*
X1500D02*Y513327D01*
X4800Y519327D02*Y513327D01*
Y515577D02*X5550Y516327D01*
X7050D01*
X7800Y515577D01*
Y513327D01*
X10350D02*X12600D01*
X9600Y514077D02*X10350Y513327D01*
X9600Y515577D02*Y514077D01*
Y515577D02*X10350Y516327D01*
X11850D01*
X12600Y515577D01*
X9600Y514827D02*X12600D01*
Y515577D02*Y514827D01*
X15150Y515577D02*Y513327D01*
Y515577D02*X15900Y516327D01*
X17400D01*
X14400D02*X15150Y515577D01*
X19950Y513327D02*X22200D01*
X19200Y514077D02*X19950Y513327D01*
X19200Y515577D02*Y514077D01*
Y515577D02*X19950Y516327D01*
X21450D01*
X22200Y515577D01*
X19200Y514827D02*X22200D01*
Y515577D02*Y514827D01*
X28950Y516327D02*X29700Y515577D01*
X27450Y516327D02*X28950D01*
X26700Y515577D02*X27450Y516327D01*
X26700Y515577D02*Y514077D01*
X27450Y513327D01*
X29700Y516327D02*Y514077D01*
X30450Y513327D01*
X27450D02*X28950D01*
X29700Y514077D01*
X33000Y515577D02*Y513327D01*
Y515577D02*X33750Y516327D01*
X35250D01*
X32250D02*X33000Y515577D01*
X37800Y513327D02*X40050D01*
X37050Y514077D02*X37800Y513327D01*
X37050Y515577D02*Y514077D01*
Y515577D02*X37800Y516327D01*
X39300D01*
X40050Y515577D01*
X37050Y514827D02*X40050D01*
Y515577D02*Y514827D01*
X45300Y513327D02*X48300Y519327D01*
X44550D02*X48300D01*
X55800D02*Y513327D01*
X55050D02*X55800Y514077D01*
X53550Y513327D02*X55050D01*
X52800Y514077D02*X53550Y513327D01*
X52800Y515577D02*Y514077D01*
Y515577D02*X53550Y516327D01*
X55050D01*
X55800Y515577D01*
G54D175*X57600Y517827D02*Y517677D01*
G54D174*Y515577D02*Y513327D01*
X59850Y518577D02*Y513327D01*
Y518577D02*X60600Y519327D01*
X61350D01*
X59100Y516327D02*X60600D01*
X63600Y518577D02*Y513327D01*
Y518577D02*X64350Y519327D01*
X65100D01*
X62850Y516327D02*X64350D01*
X67350Y513327D02*X69600D01*
X66600Y514077D02*X67350Y513327D01*
X66600Y515577D02*Y514077D01*
Y515577D02*X67350Y516327D01*
X68850D01*
X69600Y515577D01*
X66600Y514827D02*X69600D01*
Y515577D02*Y514827D01*
X72150Y515577D02*Y513327D01*
Y515577D02*X72900Y516327D01*
X74400D01*
X71400D02*X72150Y515577D01*
X76950Y513327D02*X79200D01*
X76200Y514077D02*X76950Y513327D01*
X76200Y515577D02*Y514077D01*
Y515577D02*X76950Y516327D01*
X78450D01*
X79200Y515577D01*
X76200Y514827D02*X79200D01*
Y515577D02*Y514827D01*
X81750Y515577D02*Y513327D01*
Y515577D02*X82500Y516327D01*
X83250D01*
X84000Y515577D01*
Y513327D01*
X81000Y516327D02*X81750Y515577D01*
X86550Y519327D02*Y514077D01*
X87300Y513327D01*
X85800Y517077D02*X87300D01*
X94500Y519327D02*Y513327D01*
X93750D02*X94500Y514077D01*
X92250Y513327D02*X93750D01*
X91500Y514077D02*X92250Y513327D01*
X91500Y515577D02*Y514077D01*
Y515577D02*X92250Y516327D01*
X93750D01*
X94500Y515577D01*
X97050D02*Y513327D01*
Y515577D02*X97800Y516327D01*
X99300D01*
X96300D02*X97050Y515577D01*
G54D175*X101100Y517827D02*Y517677D01*
G54D174*Y515577D02*Y513327D01*
X102600Y519327D02*Y514077D01*
X103350Y513327D01*
X104850Y519327D02*Y514077D01*
X105600Y513327D01*
X110550D02*X112800D01*
X113550Y514077D01*
X112800Y514827D02*X113550Y514077D01*
X110550Y514827D02*X112800D01*
X109800Y515577D02*X110550Y514827D01*
X109800Y515577D02*X110550Y516327D01*
X112800D01*
X113550Y515577D01*
X109800Y514077D02*X110550Y513327D01*
G54D175*X115350Y517827D02*Y517677D01*
G54D174*Y515577D02*Y513327D01*
X116850Y516327D02*X119850D01*
X116850Y513327D02*X119850Y516327D01*
X116850Y513327D02*X119850D01*
X122400D02*X124650D01*
X121650Y514077D02*X122400Y513327D01*
X121650Y515577D02*Y514077D01*
Y515577D02*X122400Y516327D01*
X123900D01*
X124650Y515577D01*
X121650Y514827D02*X124650D01*
Y515577D02*Y514827D01*
X127200Y513327D02*X129450D01*
X130200Y514077D01*
X129450Y514827D02*X130200Y514077D01*
X127200Y514827D02*X129450D01*
X126450Y515577D02*X127200Y514827D01*
X126450Y515577D02*X127200Y516327D01*
X129450D01*
X130200Y515577D01*
X126450Y514077D02*X127200Y513327D01*
X134700Y516327D02*Y514077D01*
X135450Y513327D01*
X136950D01*
X137700Y514077D01*
Y516327D02*Y514077D01*
X140250Y513327D02*X142500D01*
X143250Y514077D01*
X142500Y514827D02*X143250Y514077D01*
X140250Y514827D02*X142500D01*
X139500Y515577D02*X140250Y514827D01*
X139500Y515577D02*X140250Y516327D01*
X142500D01*
X143250Y515577D01*
X139500Y514077D02*X140250Y513327D01*
X145800D02*X148050D01*
X145050Y514077D02*X145800Y513327D01*
X145050Y515577D02*Y514077D01*
Y515577D02*X145800Y516327D01*
X147300D01*
X148050Y515577D01*
X145050Y514827D02*X148050D01*
Y515577D02*Y514827D01*
X152850Y519327D02*Y513327D01*
X152100D02*X152850Y514077D01*
X150600Y513327D02*X152100D01*
X149850Y514077D02*X150600Y513327D01*
X149850Y515577D02*Y514077D01*
Y515577D02*X150600Y516327D01*
X152100D01*
X152850Y515577D01*
G54D175*X157350Y517827D02*Y517677D01*
G54D174*Y515577D02*Y513327D01*
X159600Y515577D02*Y513327D01*
Y515577D02*X160350Y516327D01*
X161100D01*
X161850Y515577D01*
Y513327D01*
X158850Y516327D02*X159600Y515577D01*
X167100Y519327D02*Y514077D01*
X167850Y513327D01*
X166350Y517077D02*X167850D01*
X169350Y519327D02*Y513327D01*
Y515577D02*X170100Y516327D01*
X171600D01*
X172350Y515577D01*
Y513327D01*
G54D175*X174150Y517827D02*Y517677D01*
G54D174*Y515577D02*Y513327D01*
X176400D02*X178650D01*
X179400Y514077D01*
X178650Y514827D02*X179400Y514077D01*
X176400Y514827D02*X178650D01*
X175650Y515577D02*X176400Y514827D01*
X175650Y515577D02*X176400Y516327D01*
X178650D01*
X179400Y515577D01*
X175650Y514077D02*X176400Y513327D01*
X183900Y519327D02*Y514077D01*
X184650Y513327D01*
X188400Y516327D02*X189150Y515577D01*
X186900Y516327D02*X188400D01*
X186150Y515577D02*X186900Y516327D01*
X186150Y515577D02*Y514077D01*
X186900Y513327D01*
X189150Y516327D02*Y514077D01*
X189900Y513327D01*
X186900D02*X188400D01*
X189150Y514077D01*
X191700Y516327D02*Y514077D01*
X192450Y513327D01*
X194700Y516327D02*Y511827D01*
X193950Y511077D02*X194700Y511827D01*
X192450Y511077D02*X193950D01*
X191700Y511827D02*X192450Y511077D01*
Y513327D02*X193950D01*
X194700Y514077D01*
X196500Y515577D02*Y514077D01*
Y515577D02*X197250Y516327D01*
X198750D01*
X199500Y515577D01*
Y514077D01*
X198750Y513327D02*X199500Y514077D01*
X197250Y513327D02*X198750D01*
X196500Y514077D02*X197250Y513327D01*
X201300Y516327D02*Y514077D01*
X202050Y513327D01*
X203550D01*
X204300Y514077D01*
Y516327D02*Y514077D01*
X206850Y519327D02*Y514077D01*
X207600Y513327D01*
X206100Y517077D02*X207600D01*
X209100Y511827D02*X210600Y513327D01*
X217350Y519327D02*X218100Y518577D01*
X215850Y519327D02*X217350D01*
X215100Y518577D02*X215850Y519327D01*
X215100Y518577D02*Y514077D01*
X215850Y513327D01*
X217350Y516627D02*X218100Y515877D01*
X215100Y516627D02*X217350D01*
X215850Y513327D02*X217350D01*
X218100Y514077D01*
Y515877D02*Y514077D01*
X219900D02*X220650Y513327D01*
X219900Y515277D02*Y514077D01*
Y515277D02*X220950Y516327D01*
X221850D01*
X222900Y515277D01*
Y514077D01*
X222150Y513327D02*X222900Y514077D01*
X220650Y513327D02*X222150D01*
X219900Y517377D02*X220950Y516327D01*
X219900Y518577D02*Y517377D01*
Y518577D02*X220650Y519327D01*
X222150D01*
X222900Y518577D01*
Y517377D01*
X221850Y516327D02*X222900Y517377D01*
X227400Y519327D02*Y513327D01*
Y515577D02*X228150Y516327D01*
X229650D01*
X230400Y515577D01*
Y513327D01*
X232200Y515577D02*Y514077D01*
Y515577D02*X232950Y516327D01*
X234450D01*
X235200Y515577D01*
Y514077D01*
X234450Y513327D02*X235200Y514077D01*
X232950Y513327D02*X234450D01*
X232200Y514077D02*X232950Y513327D01*
X237000Y519327D02*Y514077D01*
X237750Y513327D01*
X240000D02*X242250D01*
X239250Y514077D02*X240000Y513327D01*
X239250Y515577D02*Y514077D01*
Y515577D02*X240000Y516327D01*
X241500D01*
X242250Y515577D01*
X239250Y514827D02*X242250D01*
Y515577D02*Y514827D01*
X244800Y513327D02*X247050D01*
X247800Y514077D01*
X247050Y514827D02*X247800Y514077D01*
X244800Y514827D02*X247050D01*
X244050Y515577D02*X244800Y514827D01*
X244050Y515577D02*X244800Y516327D01*
X247050D01*
X247800Y515577D01*
X244050Y514077D02*X244800Y513327D01*
X253050Y519327D02*Y514077D01*
X253800Y513327D01*
X252300Y517077D02*X253800D01*
X255300Y515577D02*Y514077D01*
Y515577D02*X256050Y516327D01*
X257550D01*
X258300Y515577D01*
Y514077D01*
X257550Y513327D02*X258300Y514077D01*
X256050Y513327D02*X257550D01*
X255300Y514077D02*X256050Y513327D01*
X260850Y519327D02*Y514077D01*
X261600Y513327D01*
X260100Y517077D02*X261600D01*
X265350Y516327D02*X266100Y515577D01*
X263850Y516327D02*X265350D01*
X263100Y515577D02*X263850Y516327D01*
X263100Y515577D02*Y514077D01*
X263850Y513327D01*
X266100Y516327D02*Y514077D01*
X266850Y513327D01*
X263850D02*X265350D01*
X266100Y514077D01*
X268650Y519327D02*Y514077D01*
X269400Y513327D01*
G54D176*X0Y385827D02*X472441D01*
X0D02*Y0D01*
X472441Y385827D02*Y0D01*
X0D02*X472441D01*
G54D174*X200000Y399327D02*Y393327D01*
Y399327D02*X202250Y396327D01*
X204500Y399327D01*
Y393327D01*
X208550Y396327D02*X209300Y395577D01*
X207050Y396327D02*X208550D01*
X206300Y395577D02*X207050Y396327D01*
X206300Y395577D02*Y394077D01*
X207050Y393327D01*
X209300Y396327D02*Y394077D01*
X210050Y393327D01*
X207050D02*X208550D01*
X209300Y394077D01*
X211850Y396327D02*X214850Y393327D01*
X211850D02*X214850Y396327D01*
G54D175*X216650Y397827D02*Y397677D01*
G54D174*Y395577D02*Y393327D01*
X218900Y395577D02*Y393327D01*
Y395577D02*X219650Y396327D01*
X220400D01*
X221150Y395577D01*
Y393327D01*
Y395577D02*X221900Y396327D01*
X222650D01*
X223400Y395577D01*
Y393327D01*
X218150Y396327D02*X218900Y395577D01*
X225200Y396327D02*Y394077D01*
X225950Y393327D01*
X227450D01*
X228200Y394077D01*
Y396327D02*Y394077D01*
X230750Y395577D02*Y393327D01*
Y395577D02*X231500Y396327D01*
X232250D01*
X233000Y395577D01*
Y393327D01*
Y395577D02*X233750Y396327D01*
X234500D01*
X235250Y395577D01*
Y393327D01*
X230000Y396327D02*X230750Y395577D01*
X240500Y399327D02*Y393327D01*
X242450Y399327D02*X243500Y398277D01*
Y394377D01*
X242450Y393327D02*X243500Y394377D01*
X239750Y393327D02*X242450D01*
X239750Y399327D02*X242450D01*
G54D175*X245300Y397827D02*Y397677D01*
G54D174*Y395577D02*Y393327D01*
X247550Y395577D02*Y393327D01*
Y395577D02*X248300Y396327D01*
X249050D01*
X249800Y395577D01*
Y393327D01*
Y395577D02*X250550Y396327D01*
X251300D01*
X252050Y395577D01*
Y393327D01*
X246800Y396327D02*X247550Y395577D01*
X254600Y393327D02*X256850D01*
X253850Y394077D02*X254600Y393327D01*
X253850Y395577D02*Y394077D01*
Y395577D02*X254600Y396327D01*
X256100D01*
X256850Y395577D01*
X253850Y394827D02*X256850D01*
Y395577D02*Y394827D01*
X259400Y395577D02*Y393327D01*
Y395577D02*X260150Y396327D01*
X260900D01*
X261650Y395577D01*
Y393327D01*
X258650Y396327D02*X259400Y395577D01*
X264200Y393327D02*X266450D01*
X267200Y394077D01*
X266450Y394827D02*X267200Y394077D01*
X264200Y394827D02*X266450D01*
X263450Y395577D02*X264200Y394827D01*
X263450Y395577D02*X264200Y396327D01*
X266450D01*
X267200Y395577D01*
X263450Y394077D02*X264200Y393327D01*
G54D175*X269000Y397827D02*Y397677D01*
G54D174*Y395577D02*Y393327D01*
X270500Y395577D02*Y394077D01*
Y395577D02*X271250Y396327D01*
X272750D01*
X273500Y395577D01*
Y394077D01*
X272750Y393327D02*X273500Y394077D01*
X271250Y393327D02*X272750D01*
X270500Y394077D02*X271250Y393327D01*
X276050Y395577D02*Y393327D01*
Y395577D02*X276800Y396327D01*
X277550D01*
X278300Y395577D01*
Y393327D01*
X275300Y396327D02*X276050Y395577D01*
X280850Y393327D02*X283100D01*
X283850Y394077D01*
X283100Y394827D02*X283850Y394077D01*
X280850Y394827D02*X283100D01*
X280100Y395577D02*X280850Y394827D01*
X280100Y395577D02*X280850Y396327D01*
X283100D01*
X283850Y395577D01*
X280100Y394077D02*X280850Y393327D01*
X285650Y397077D02*X286400D01*
X285650Y395577D02*X286400D01*
X290900D02*X293900Y399327D01*
X290900Y395577D02*X294650D01*
X293900Y399327D02*Y393327D01*
X297200D02*X300200Y399327D01*
X296450D02*X300200D01*
X302000Y398577D02*X302750Y399327D01*
X305000D01*
X305750Y398577D01*
Y397077D01*
X302000Y393327D02*X305750Y397077D01*
X302000Y393327D02*X305750D01*
X307550Y395577D02*X310550Y399327D01*
X307550Y395577D02*X311300D01*
X310550Y399327D02*Y393327D01*
X313100D02*X313850D01*
X315650Y395577D02*X318650Y399327D01*
X315650Y395577D02*X319400D01*
X318650Y399327D02*Y393327D01*
X321200Y398127D02*X322400Y399327D01*
Y393327D01*
X321200D02*X323450D01*
X325250Y394077D02*X326000Y393327D01*
X325250Y398577D02*Y394077D01*
Y398577D02*X326000Y399327D01*
X327500D01*
X328250Y398577D01*
Y394077D01*
X327500Y393327D02*X328250Y394077D01*
X326000Y393327D02*X327500D01*
X325250Y394827D02*X328250Y397827D01*
X330050Y394077D02*X330800Y393327D01*
X330050Y398577D02*Y394077D01*
Y398577D02*X330800Y399327D01*
X332300D01*
X333050Y398577D01*
Y394077D01*
X332300Y393327D02*X333050Y394077D01*
X330800Y393327D02*X332300D01*
X330050Y394827D02*X333050Y397827D01*
X334850Y394077D02*X335600Y393327D01*
X334850Y398577D02*Y394077D01*
Y398577D02*X335600Y399327D01*
X337100D01*
X337850Y398577D01*
Y394077D01*
X337100Y393327D02*X337850Y394077D01*
X335600Y393327D02*X337100D01*
X334850Y394827D02*X337850Y397827D01*
X339650Y394077D02*X340400Y393327D01*
X339650Y398577D02*Y394077D01*
Y398577D02*X340400Y399327D01*
X341900D01*
X342650Y398577D01*
Y394077D01*
X341900Y393327D02*X342650Y394077D01*
X340400Y393327D02*X341900D01*
X339650Y394827D02*X342650Y397827D01*
X347900Y395577D02*Y393327D01*
Y395577D02*X348650Y396327D01*
X349400D01*
X350150Y395577D01*
Y393327D01*
Y395577D02*X350900Y396327D01*
X351650D01*
X352400Y395577D01*
Y393327D01*
X347150Y396327D02*X347900Y395577D01*
G54D175*X354200Y397827D02*Y397677D01*
G54D174*Y395577D02*Y393327D01*
X355700Y399327D02*Y394077D01*
X356450Y393327D01*
X358700D02*X360950D01*
X361700Y394077D01*
X360950Y394827D02*X361700Y394077D01*
X358700Y394827D02*X360950D01*
X357950Y395577D02*X358700Y394827D01*
X357950Y395577D02*X358700Y396327D01*
X360950D01*
X361700Y395577D01*
X357950Y394077D02*X358700Y393327D01*
X366200Y396327D02*Y394077D01*
X366950Y393327D01*
X367700D01*
X368450Y394077D01*
Y396327D02*Y394077D01*
X369200Y393327D01*
X369950D01*
X370700Y394077D01*
Y396327D02*Y394077D01*
G54D175*X372500Y397827D02*Y397677D01*
G54D174*Y395577D02*Y393327D01*
X377000Y399327D02*Y393327D01*
X376250D02*X377000Y394077D01*
X374750Y393327D02*X376250D01*
X374000Y394077D02*X374750Y393327D01*
X374000Y395577D02*Y394077D01*
Y395577D02*X374750Y396327D01*
X376250D01*
X377000Y395577D01*
X379550Y393327D02*X381800D01*
X378800Y394077D02*X379550Y393327D01*
X378800Y395577D02*Y394077D01*
Y395577D02*X379550Y396327D01*
X381050D01*
X381800Y395577D01*
X378800Y394827D02*X381800D01*
Y395577D02*Y394827D01*
X383600Y391827D02*X385100Y393327D01*
X389600Y398577D02*X390350Y399327D01*
X391850D01*
X392600Y398577D01*
X391850Y393327D02*X392600Y394077D01*
X390350Y393327D02*X391850D01*
X389600Y394077D02*X390350Y393327D01*
Y396627D02*X391850D01*
X392600Y398577D02*Y397377D01*
Y395877D02*Y394077D01*
Y395877D02*X391850Y396627D01*
X392600Y397377D02*X391850Y396627D01*
X394400Y394077D02*X395150Y393327D01*
X394400Y395277D02*Y394077D01*
Y395277D02*X395450Y396327D01*
X396350D01*
X397400Y395277D01*
Y394077D01*
X396650Y393327D02*X397400Y394077D01*
X395150Y393327D02*X396650D01*
X394400Y397377D02*X395450Y396327D01*
X394400Y398577D02*Y397377D01*
Y398577D02*X395150Y399327D01*
X396650D01*
X397400Y398577D01*
Y397377D01*
X396350Y396327D02*X397400Y397377D01*
X399200Y399327D02*X402200D01*
X399200D02*Y396327D01*
X399950Y397077D01*
X401450D01*
X402200Y396327D01*
Y394077D01*
X401450Y393327D02*X402200Y394077D01*
X399950Y393327D02*X401450D01*
X399200Y394077D02*X399950Y393327D01*
X404000Y394077D02*X404750Y393327D01*
X404000Y395277D02*Y394077D01*
Y395277D02*X405050Y396327D01*
X405950D01*
X407000Y395277D01*
Y394077D01*
X406250Y393327D02*X407000Y394077D01*
X404750Y393327D02*X406250D01*
X404000Y397377D02*X405050Y396327D01*
X404000Y398577D02*Y397377D01*
Y398577D02*X404750Y399327D01*
X406250D01*
X407000Y398577D01*
Y397377D01*
X405950Y396327D02*X407000Y397377D01*
X408800Y393327D02*X409550D01*
X411350Y398577D02*X412100Y399327D01*
X414350D01*
X415100Y398577D01*
Y397077D01*
X411350Y393327D02*X415100Y397077D01*
X411350Y393327D02*X415100D01*
X417650D02*X420650Y399327D01*
X416900D02*X420650D01*
X422450Y394077D02*X423200Y393327D01*
X422450Y398577D02*Y394077D01*
Y398577D02*X423200Y399327D01*
X424700D01*
X425450Y398577D01*
Y394077D01*
X424700Y393327D02*X425450Y394077D01*
X423200Y393327D02*X424700D01*
X422450Y394827D02*X425450Y397827D01*
X427250Y394077D02*X428000Y393327D01*
X427250Y398577D02*Y394077D01*
Y398577D02*X428000Y399327D01*
X429500D01*
X430250Y398577D01*
Y394077D01*
X429500Y393327D02*X430250Y394077D01*
X428000Y393327D02*X429500D01*
X427250Y394827D02*X430250Y397827D01*
X432050Y394077D02*X432800Y393327D01*
X432050Y398577D02*Y394077D01*
Y398577D02*X432800Y399327D01*
X434300D01*
X435050Y398577D01*
Y394077D01*
X434300Y393327D02*X435050Y394077D01*
X432800Y393327D02*X434300D01*
X432050Y394827D02*X435050Y397827D01*
X436850Y394077D02*X437600Y393327D01*
X436850Y398577D02*Y394077D01*
Y398577D02*X437600Y399327D01*
X439100D01*
X439850Y398577D01*
Y394077D01*
X439100Y393327D02*X439850Y394077D01*
X437600Y393327D02*X439100D01*
X436850Y394827D02*X439850Y397827D01*
X445100Y395577D02*Y393327D01*
Y395577D02*X445850Y396327D01*
X446600D01*
X447350Y395577D01*
Y393327D01*
Y395577D02*X448100Y396327D01*
X448850D01*
X449600Y395577D01*
Y393327D01*
X444350Y396327D02*X445100Y395577D01*
G54D175*X451400Y397827D02*Y397677D01*
G54D174*Y395577D02*Y393327D01*
X452900Y399327D02*Y394077D01*
X453650Y393327D01*
X455900D02*X458150D01*
X458900Y394077D01*
X458150Y394827D02*X458900Y394077D01*
X455900Y394827D02*X458150D01*
X455150Y395577D02*X455900Y394827D01*
X455150Y395577D02*X455900Y396327D01*
X458150D01*
X458900Y395577D01*
X455150Y394077D02*X455900Y393327D01*
X463400Y399327D02*Y393327D01*
Y395577D02*X464150Y396327D01*
X465650D01*
X466400Y395577D01*
Y393327D01*
G54D175*X468200Y397827D02*Y397677D01*
G54D174*Y395577D02*Y393327D01*
X471950Y396327D02*X472700Y395577D01*
X470450Y396327D02*X471950D01*
X469700Y395577D02*X470450Y396327D01*
X469700Y395577D02*Y394077D01*
X470450Y393327D01*
X471950D01*
X472700Y394077D01*
X469700Y391827D02*X470450Y391077D01*
X471950D01*
X472700Y391827D01*
Y396327D02*Y391827D01*
X474500Y399327D02*Y393327D01*
Y395577D02*X475250Y396327D01*
X476750D01*
X477500Y395577D01*
Y393327D01*
X31245Y-9500D02*X34245D01*
X34995Y-8750D01*
Y-6950D02*Y-8750D01*
X34245Y-6200D02*X34995Y-6950D01*
X31995Y-6200D02*X34245D01*
X31995Y-3500D02*Y-9500D01*
X31245Y-3500D02*X34245D01*
X34995Y-4250D01*
Y-5450D01*
X34245Y-6200D02*X34995Y-5450D01*
X36795Y-7250D02*Y-8750D01*
Y-7250D02*X37545Y-6500D01*
X39045D01*
X39795Y-7250D01*
Y-8750D01*
X39045Y-9500D02*X39795Y-8750D01*
X37545Y-9500D02*X39045D01*
X36795Y-8750D02*X37545Y-9500D01*
X43845Y-6500D02*X44595Y-7250D01*
X42345Y-6500D02*X43845D01*
X41595Y-7250D02*X42345Y-6500D01*
X41595Y-7250D02*Y-8750D01*
X42345Y-9500D01*
X44595Y-6500D02*Y-8750D01*
X45345Y-9500D01*
X42345D02*X43845D01*
X44595Y-8750D01*
X47895Y-7250D02*Y-9500D01*
Y-7250D02*X48645Y-6500D01*
X50145D01*
X47145D02*X47895Y-7250D01*
X54945Y-3500D02*Y-9500D01*
X54195D02*X54945Y-8750D01*
X52695Y-9500D02*X54195D01*
X51945Y-8750D02*X52695Y-9500D01*
X51945Y-7250D02*Y-8750D01*
Y-7250D02*X52695Y-6500D01*
X54195D01*
X54945Y-7250D01*
X59445D02*Y-8750D01*
Y-7250D02*X60195Y-6500D01*
X61695D01*
X62445Y-7250D01*
Y-8750D01*
X61695Y-9500D02*X62445Y-8750D01*
X60195Y-9500D02*X61695D01*
X59445Y-8750D02*X60195Y-9500D01*
X64245Y-6500D02*Y-8750D01*
X64995Y-9500D01*
X66495D01*
X67245Y-8750D01*
Y-6500D02*Y-8750D01*
X69795Y-3500D02*Y-8750D01*
X70545Y-9500D01*
X69045Y-5750D02*X70545D01*
X72045Y-3500D02*Y-8750D01*
X72795Y-9500D01*
G54D175*X74295Y-5000D02*Y-5150D01*
G54D174*Y-7250D02*Y-9500D01*
X76545Y-7250D02*Y-9500D01*
Y-7250D02*X77295Y-6500D01*
X78045D01*
X78795Y-7250D01*
Y-9500D01*
X75795Y-6500D02*X76545Y-7250D01*
X81345Y-9500D02*X83595D01*
X80595Y-8750D02*X81345Y-9500D01*
X80595Y-7250D02*Y-8750D01*
Y-7250D02*X81345Y-6500D01*
X82845D01*
X83595Y-7250D01*
X80595Y-8000D02*X83595D01*
Y-7250D02*Y-8000D01*
G54D175*X88095Y-5000D02*Y-5150D01*
G54D174*Y-7250D02*Y-9500D01*
X90345D02*X92595D01*
X93345Y-8750D01*
X92595Y-8000D02*X93345Y-8750D01*
X90345Y-8000D02*X92595D01*
X89595Y-7250D02*X90345Y-8000D01*
X89595Y-7250D02*X90345Y-6500D01*
X92595D01*
X93345Y-7250D01*
X89595Y-8750D02*X90345Y-9500D01*
X98595Y-3500D02*Y-8750D01*
X99345Y-9500D01*
X97845Y-5750D02*X99345D01*
X100845Y-3500D02*Y-9500D01*
Y-7250D02*X101595Y-6500D01*
X103095D01*
X103845Y-7250D01*
Y-9500D01*
X106395D02*X108645D01*
X105645Y-8750D02*X106395Y-9500D01*
X105645Y-7250D02*Y-8750D01*
Y-7250D02*X106395Y-6500D01*
X107895D01*
X108645Y-7250D01*
X105645Y-8000D02*X108645D01*
Y-7250D02*Y-8000D01*
X113895Y-6500D02*X116145D01*
X113145Y-7250D02*X113895Y-6500D01*
X113145Y-7250D02*Y-8750D01*
X113895Y-9500D01*
X116145D01*
X118695D02*X120945D01*
X117945Y-8750D02*X118695Y-9500D01*
X117945Y-7250D02*Y-8750D01*
Y-7250D02*X118695Y-6500D01*
X120195D01*
X120945Y-7250D01*
X117945Y-8000D02*X120945D01*
Y-7250D02*Y-8000D01*
X123495Y-7250D02*Y-9500D01*
Y-7250D02*X124245Y-6500D01*
X124995D01*
X125745Y-7250D01*
Y-9500D01*
X122745Y-6500D02*X123495Y-7250D01*
X128295Y-3500D02*Y-8750D01*
X129045Y-9500D01*
X127545Y-5750D02*X129045D01*
X131295Y-9500D02*X133545D01*
X130545Y-8750D02*X131295Y-9500D01*
X130545Y-7250D02*Y-8750D01*
Y-7250D02*X131295Y-6500D01*
X132795D01*
X133545Y-7250D01*
X130545Y-8000D02*X133545D01*
Y-7250D02*Y-8000D01*
X136095Y-7250D02*Y-9500D01*
Y-7250D02*X136845Y-6500D01*
X138345D01*
X135345D02*X136095Y-7250D01*
X140145Y-3500D02*Y-8750D01*
X140895Y-9500D01*
G54D175*X142395Y-5000D02*Y-5150D01*
G54D174*Y-7250D02*Y-9500D01*
X144645Y-7250D02*Y-9500D01*
Y-7250D02*X145395Y-6500D01*
X146145D01*
X146895Y-7250D01*
Y-9500D01*
X143895Y-6500D02*X144645Y-7250D01*
X149445Y-9500D02*X151695D01*
X148695Y-8750D02*X149445Y-9500D01*
X148695Y-7250D02*Y-8750D01*
Y-7250D02*X149445Y-6500D01*
X150945D01*
X151695Y-7250D01*
X148695Y-8000D02*X151695D01*
Y-7250D02*Y-8000D01*
X156195Y-7250D02*Y-8750D01*
Y-7250D02*X156945Y-6500D01*
X158445D01*
X159195Y-7250D01*
Y-8750D01*
X158445Y-9500D02*X159195Y-8750D01*
X156945Y-9500D02*X158445D01*
X156195Y-8750D02*X156945Y-9500D01*
X161745Y-4250D02*Y-9500D01*
Y-4250D02*X162495Y-3500D01*
X163245D01*
X160995Y-6500D02*X162495D01*
X168195Y-3500D02*Y-8750D01*
X168945Y-9500D01*
X167445Y-5750D02*X168945D01*
X170445Y-3500D02*Y-9500D01*
Y-7250D02*X171195Y-6500D01*
X172695D01*
X173445Y-7250D01*
Y-9500D01*
G54D175*X175245Y-5000D02*Y-5150D01*
G54D174*Y-7250D02*Y-9500D01*
X177495D02*X179745D01*
X180495Y-8750D01*
X179745Y-8000D02*X180495Y-8750D01*
X177495Y-8000D02*X179745D01*
X176745Y-7250D02*X177495Y-8000D01*
X176745Y-7250D02*X177495Y-6500D01*
X179745D01*
X180495Y-7250D01*
X176745Y-8750D02*X177495Y-9500D01*
X184995Y-8750D02*X185745Y-9500D01*
X184995Y-7550D02*Y-8750D01*
Y-7550D02*X186045Y-6500D01*
X186945D01*
X187995Y-7550D01*
Y-8750D01*
X187245Y-9500D02*X187995Y-8750D01*
X185745Y-9500D02*X187245D01*
X184995Y-5450D02*X186045Y-6500D01*
X184995Y-4250D02*Y-5450D01*
Y-4250D02*X185745Y-3500D01*
X187245D01*
X187995Y-4250D01*
Y-5450D01*
X186945Y-6500D02*X187995Y-5450D01*
X189795Y-9500D02*X190545D01*
X192345Y-8750D02*X193095Y-9500D01*
X192345Y-4250D02*Y-8750D01*
Y-4250D02*X193095Y-3500D01*
X194595D01*
X195345Y-4250D01*
Y-8750D01*
X194595Y-9500D02*X195345Y-8750D01*
X193095Y-9500D02*X194595D01*
X192345Y-8000D02*X195345Y-5000D01*
X197145Y-8750D02*X197895Y-9500D01*
X197145Y-4250D02*Y-8750D01*
Y-4250D02*X197895Y-3500D01*
X199395D01*
X200145Y-4250D01*
Y-8750D01*
X199395Y-9500D02*X200145Y-8750D01*
X197895Y-9500D02*X199395D01*
X197145Y-8000D02*X200145Y-5000D01*
X201945Y-8750D02*X202695Y-9500D01*
X201945Y-4250D02*Y-8750D01*
Y-4250D02*X202695Y-3500D01*
X204195D01*
X204945Y-4250D01*
Y-8750D01*
X204195Y-9500D02*X204945Y-8750D01*
X202695Y-9500D02*X204195D01*
X201945Y-8000D02*X204945Y-5000D01*
X206745Y-8750D02*X207495Y-9500D01*
X206745Y-4250D02*Y-8750D01*
Y-4250D02*X207495Y-3500D01*
X208995D01*
X209745Y-4250D01*
Y-8750D01*
X208995Y-9500D02*X209745Y-8750D01*
X207495Y-9500D02*X208995D01*
X206745Y-8000D02*X209745Y-5000D01*
X211545Y-8750D02*X212295Y-9500D01*
X211545Y-4250D02*Y-8750D01*
Y-4250D02*X212295Y-3500D01*
X213795D01*
X214545Y-4250D01*
Y-8750D01*
X213795Y-9500D02*X214545Y-8750D01*
X212295Y-9500D02*X213795D01*
X211545Y-8000D02*X214545Y-5000D01*
X216345Y-8750D02*X217095Y-9500D01*
X216345Y-4250D02*Y-8750D01*
Y-4250D02*X217095Y-3500D01*
X218595D01*
X219345Y-4250D01*
Y-8750D01*
X218595Y-9500D02*X219345Y-8750D01*
X217095Y-9500D02*X218595D01*
X216345Y-8000D02*X219345Y-5000D01*
X224595Y-7250D02*Y-9500D01*
Y-7250D02*X225345Y-6500D01*
X226095D01*
X226845Y-7250D01*
Y-9500D01*
Y-7250D02*X227595Y-6500D01*
X228345D01*
X229095Y-7250D01*
Y-9500D01*
X223845Y-6500D02*X224595Y-7250D01*
G54D175*X230895Y-5000D02*Y-5150D01*
G54D174*Y-7250D02*Y-9500D01*
X232396Y-3500D02*Y-8750D01*
X233146Y-9500D01*
X238096Y-7250D02*Y-9500D01*
Y-7250D02*X238846Y-6500D01*
X240346D01*
X237346D02*X238096Y-7250D01*
X242896Y-9500D02*X245146D01*
X242146Y-8750D02*X242896Y-9500D01*
X242146Y-7250D02*Y-8750D01*
Y-7250D02*X242896Y-6500D01*
X244396D01*
X245146Y-7250D01*
X242146Y-8000D02*X245146D01*
Y-7250D02*Y-8000D01*
X247696Y-6500D02*X249946D01*
X246946Y-7250D02*X247696Y-6500D01*
X246946Y-7250D02*Y-8750D01*
X247696Y-9500D01*
X249946D01*
X252496Y-3500D02*Y-8750D01*
X253246Y-9500D01*
X251746Y-5750D02*X253246D01*
X256996Y-6500D02*X257746Y-7250D01*
X255496Y-6500D02*X256996D01*
X254746Y-7250D02*X255496Y-6500D01*
X254746Y-7250D02*Y-8750D01*
X255496Y-9500D01*
X257746Y-6500D02*Y-8750D01*
X258496Y-9500D01*
X255496D02*X256996D01*
X257746Y-8750D01*
X261046Y-7250D02*Y-9500D01*
Y-7250D02*X261796Y-6500D01*
X262546D01*
X263296Y-7250D01*
Y-9500D01*
X260296Y-6500D02*X261046Y-7250D01*
X267346Y-6500D02*X268096Y-7250D01*
X265846Y-6500D02*X267346D01*
X265096Y-7250D02*X265846Y-6500D01*
X265096Y-7250D02*Y-8750D01*
X265846Y-9500D01*
X267346D01*
X268096Y-8750D01*
X265096Y-11000D02*X265846Y-11750D01*
X267346D01*
X268096Y-11000D01*
Y-6500D02*Y-11000D01*
X269896Y-3500D02*Y-8750D01*
X270646Y-9500D01*
X272896D02*X275146D01*
X272146Y-8750D02*X272896Y-9500D01*
X272146Y-7250D02*Y-8750D01*
Y-7250D02*X272896Y-6500D01*
X274396D01*
X275146Y-7250D01*
X272146Y-8000D02*X275146D01*
Y-7250D02*Y-8000D01*
X279646Y-6500D02*X282646D01*
X287146Y-8750D02*X287896Y-9500D01*
X287146Y-4250D02*Y-8750D01*
Y-4250D02*X287896Y-3500D01*
X289396D01*
X290146Y-4250D01*
Y-8750D01*
X289396Y-9500D02*X290146Y-8750D01*
X287896Y-9500D02*X289396D01*
X287146Y-8000D02*X290146Y-5000D01*
X291946Y-11000D02*X293446Y-9500D01*
X295246Y-8750D02*X295996Y-9500D01*
X295246Y-4250D02*Y-8750D01*
Y-4250D02*X295996Y-3500D01*
X297496D01*
X298246Y-4250D01*
Y-8750D01*
X297496Y-9500D02*X298246Y-8750D01*
X295996Y-9500D02*X297496D01*
X295246Y-8000D02*X298246Y-5000D01*
X303496Y-3500D02*Y-8750D01*
X304246Y-9500D01*
X302746Y-5750D02*X304246D01*
X305746Y-7250D02*Y-8750D01*
Y-7250D02*X306496Y-6500D01*
X307996D01*
X308746Y-7250D01*
Y-8750D01*
X307996Y-9500D02*X308746Y-8750D01*
X306496Y-9500D02*X307996D01*
X305746Y-8750D02*X306496Y-9500D01*
X313246Y-7250D02*X316246Y-3500D01*
X313246Y-7250D02*X316996D01*
X316246Y-3500D02*Y-9500D01*
X319546D02*X322546Y-3500D01*
X318796D02*X322546D01*
X324346Y-4250D02*X325096Y-3500D01*
X327346D01*
X328096Y-4250D01*
Y-5750D01*
X324346Y-9500D02*X328096Y-5750D01*
X324346Y-9500D02*X328096D01*
X329896Y-7250D02*X332896Y-3500D01*
X329896Y-7250D02*X333646D01*
X332896Y-3500D02*Y-9500D01*
X335446D02*X336196D01*
X337996Y-7250D02*X340996Y-3500D01*
X337996Y-7250D02*X341746D01*
X340996Y-3500D02*Y-9500D01*
X343546Y-4700D02*X344746Y-3500D01*
Y-9500D01*
X343546D02*X345796D01*
X347596Y-8750D02*X348346Y-9500D01*
X347596Y-4250D02*Y-8750D01*
Y-4250D02*X348346Y-3500D01*
X349846D01*
X350596Y-4250D01*
Y-8750D01*
X349846Y-9500D02*X350596Y-8750D01*
X348346Y-9500D02*X349846D01*
X347596Y-8000D02*X350596Y-5000D01*
X352396Y-8750D02*X353146Y-9500D01*
X352396Y-4250D02*Y-8750D01*
Y-4250D02*X353146Y-3500D01*
X354646D01*
X355396Y-4250D01*
Y-8750D01*
X354646Y-9500D02*X355396Y-8750D01*
X353146Y-9500D02*X354646D01*
X352396Y-8000D02*X355396Y-5000D01*
X357196Y-8750D02*X357946Y-9500D01*
X357196Y-4250D02*Y-8750D01*
Y-4250D02*X357946Y-3500D01*
X359446D01*
X360196Y-4250D01*
Y-8750D01*
X359446Y-9500D02*X360196Y-8750D01*
X357946Y-9500D02*X359446D01*
X357196Y-8000D02*X360196Y-5000D01*
X361996Y-8750D02*X362746Y-9500D01*
X361996Y-4250D02*Y-8750D01*
Y-4250D02*X362746Y-3500D01*
X364246D01*
X364996Y-4250D01*
Y-8750D01*
X364246Y-9500D02*X364996Y-8750D01*
X362746Y-9500D02*X364246D01*
X361996Y-8000D02*X364996Y-5000D01*
X366796Y-11000D02*X368296Y-9500D01*
X370096Y-4250D02*X370846Y-3500D01*
X372346D01*
X373096Y-4250D01*
X372346Y-9500D02*X373096Y-8750D01*
X370846Y-9500D02*X372346D01*
X370096Y-8750D02*X370846Y-9500D01*
Y-6200D02*X372346D01*
X373096Y-4250D02*Y-5450D01*
Y-6950D02*Y-8750D01*
Y-6950D02*X372346Y-6200D01*
X373096Y-5450D02*X372346Y-6200D01*
X374896Y-8750D02*X375646Y-9500D01*
X374896Y-7550D02*Y-8750D01*
Y-7550D02*X375946Y-6500D01*
X376846D01*
X377896Y-7550D01*
Y-8750D01*
X377146Y-9500D02*X377896Y-8750D01*
X375646Y-9500D02*X377146D01*
X374896Y-5450D02*X375946Y-6500D01*
X374896Y-4250D02*Y-5450D01*
Y-4250D02*X375646Y-3500D01*
X377146D01*
X377896Y-4250D01*
Y-5450D01*
X376846Y-6500D02*X377896Y-5450D01*
X379696Y-3500D02*X382696D01*
X379696D02*Y-6500D01*
X380446Y-5750D01*
X381946D01*
X382696Y-6500D01*
Y-8750D01*
X381946Y-9500D02*X382696Y-8750D01*
X380446Y-9500D02*X381946D01*
X379696Y-8750D02*X380446Y-9500D01*
X384496Y-8750D02*X385246Y-9500D01*
X384496Y-7550D02*Y-8750D01*
Y-7550D02*X385546Y-6500D01*
X386446D01*
X387496Y-7550D01*
Y-8750D01*
X386746Y-9500D02*X387496Y-8750D01*
X385246Y-9500D02*X386746D01*
X384496Y-5450D02*X385546Y-6500D01*
X384496Y-4250D02*Y-5450D01*
Y-4250D02*X385246Y-3500D01*
X386746D01*
X387496Y-4250D01*
Y-5450D01*
X386446Y-6500D02*X387496Y-5450D01*
X389296Y-9500D02*X390046D01*
X391846Y-4250D02*X392596Y-3500D01*
X394846D01*
X395596Y-4250D01*
Y-5750D01*
X391846Y-9500D02*X395596Y-5750D01*
X391846Y-9500D02*X395596D01*
X398146D02*X401146Y-3500D01*
X397396D02*X401146D01*
X402946Y-8750D02*X403696Y-9500D01*
X402946Y-4250D02*Y-8750D01*
Y-4250D02*X403696Y-3500D01*
X405196D01*
X405946Y-4250D01*
Y-8750D01*
X405196Y-9500D02*X405946Y-8750D01*
X403696Y-9500D02*X405196D01*
X402946Y-8000D02*X405946Y-5000D01*
X407746Y-8750D02*X408496Y-9500D01*
X407746Y-4250D02*Y-8750D01*
Y-4250D02*X408496Y-3500D01*
X409996D01*
X410746Y-4250D01*
Y-8750D01*
X409996Y-9500D02*X410746Y-8750D01*
X408496Y-9500D02*X409996D01*
X407746Y-8000D02*X410746Y-5000D01*
X412546Y-8750D02*X413296Y-9500D01*
X412546Y-4250D02*Y-8750D01*
Y-4250D02*X413296Y-3500D01*
X414796D01*
X415546Y-4250D01*
Y-8750D01*
X414796Y-9500D02*X415546Y-8750D01*
X413296Y-9500D02*X414796D01*
X412546Y-8000D02*X415546Y-5000D01*
X417346Y-8750D02*X418096Y-9500D01*
X417346Y-4250D02*Y-8750D01*
Y-4250D02*X418096Y-3500D01*
X419596D01*
X420346Y-4250D01*
Y-8750D01*
X419596Y-9500D02*X420346Y-8750D01*
X418096Y-9500D02*X419596D01*
X417346Y-8000D02*X420346Y-5000D01*
X425596Y-7250D02*Y-9500D01*
Y-7250D02*X426346Y-6500D01*
X427096D01*
X427846Y-7250D01*
Y-9500D01*
Y-7250D02*X428596Y-6500D01*
X429346D01*
X430096Y-7250D01*
Y-9500D01*
X424846Y-6500D02*X425596Y-7250D01*
G54D175*X431896Y-5000D02*Y-5150D01*
G54D174*Y-7250D02*Y-9500D01*
X433396Y-3500D02*Y-8750D01*
X434146Y-9500D01*
X436396D02*X438646D01*
X439396Y-8750D01*
X438646Y-8000D02*X439396Y-8750D01*
X436396Y-8000D02*X438646D01*
X435646Y-7250D02*X436396Y-8000D01*
X435646Y-7250D02*X436396Y-6500D01*
X438646D01*
X439396Y-7250D01*
X435646Y-8750D02*X436396Y-9500D01*
X200750Y414327D02*Y408327D01*
X202700Y414327D02*X203750Y413277D01*
Y409377D01*
X202700Y408327D02*X203750Y409377D01*
X200000Y408327D02*X202700D01*
X200000Y414327D02*X202700D01*
X207800Y411327D02*X208550Y410577D01*
X206300Y411327D02*X207800D01*
X205550Y410577D02*X206300Y411327D01*
X205550Y410577D02*Y409077D01*
X206300Y408327D01*
X208550Y411327D02*Y409077D01*
X209300Y408327D01*
X206300D02*X207800D01*
X208550Y409077D01*
X211850Y414327D02*Y409077D01*
X212600Y408327D01*
X211100Y412077D02*X212600D01*
X214850Y408327D02*X217100D01*
X214100Y409077D02*X214850Y408327D01*
X214100Y410577D02*Y409077D01*
Y410577D02*X214850Y411327D01*
X216350D01*
X217100Y410577D01*
X214100Y409827D02*X217100D01*
Y410577D02*Y409827D01*
X218900Y412077D02*X219650D01*
X218900Y410577D02*X219650D01*
X224150Y414327D02*X227150D01*
X225650D02*Y408327D01*
X228950Y414327D02*Y408327D01*
Y410577D02*X229700Y411327D01*
X231200D01*
X231950Y410577D01*
Y408327D01*
X233750Y411327D02*Y409077D01*
X234500Y408327D01*
X236000D01*
X236750Y409077D01*
Y411327D02*Y409077D01*
X241250Y414327D02*Y408327D01*
Y414327D02*X243500Y411327D01*
X245750Y414327D01*
Y408327D01*
X249800Y411327D02*X250550Y410577D01*
X248300Y411327D02*X249800D01*
X247550Y410577D02*X248300Y411327D01*
X247550Y410577D02*Y409077D01*
X248300Y408327D01*
X250550Y411327D02*Y409077D01*
X251300Y408327D01*
X248300D02*X249800D01*
X250550Y409077D01*
X253850Y410577D02*Y408327D01*
Y410577D02*X254600Y411327D01*
X256100D01*
X253100D02*X253850Y410577D01*
X260600Y413577D02*X261350Y414327D01*
X263600D01*
X264350Y413577D01*
Y412077D01*
X260600Y408327D02*X264350Y412077D01*
X260600Y408327D02*X264350D01*
X266150Y409077D02*X266900Y408327D01*
X266150Y410277D02*Y409077D01*
Y410277D02*X267200Y411327D01*
X268100D01*
X269150Y410277D01*
Y409077D01*
X268400Y408327D02*X269150Y409077D01*
X266900Y408327D02*X268400D01*
X266150Y412377D02*X267200Y411327D01*
X266150Y413577D02*Y412377D01*
Y413577D02*X266900Y414327D01*
X268400D01*
X269150Y413577D01*
Y412377D01*
X268100Y411327D02*X269150Y412377D01*
X273650Y413127D02*X274850Y414327D01*
Y408327D01*
X273650D02*X275900D01*
X278450D02*X281450Y414327D01*
X277700D02*X281450D01*
X283250Y412077D02*X284000D01*
X283250Y410577D02*X284000D01*
X285800Y409077D02*X286550Y408327D01*
X285800Y413577D02*Y409077D01*
Y413577D02*X286550Y414327D01*
X288050D01*
X288800Y413577D01*
Y409077D01*
X288050Y408327D02*X288800Y409077D01*
X286550Y408327D02*X288050D01*
X285800Y409827D02*X288800Y412827D01*
X290600Y410577D02*X293600Y414327D01*
X290600Y410577D02*X294350D01*
X293600Y414327D02*Y408327D01*
X296150Y412077D02*X296900D01*
X296150Y410577D02*X296900D01*
X298700Y414327D02*X301700D01*
X298700D02*Y411327D01*
X299450Y412077D01*
X300950D01*
X301700Y411327D01*
Y409077D01*
X300950Y408327D02*X301700Y409077D01*
X299450Y408327D02*X300950D01*
X298700Y409077D02*X299450Y408327D01*
X303500Y409077D02*X304250Y408327D01*
X303500Y410277D02*Y409077D01*
Y410277D02*X304550Y411327D01*
X305450D01*
X306500Y410277D01*
Y409077D01*
X305750Y408327D02*X306500Y409077D01*
X304250Y408327D02*X305750D01*
X303500Y412377D02*X304550Y411327D01*
X303500Y413577D02*Y412377D01*
Y413577D02*X304250Y414327D01*
X305750D01*
X306500Y413577D01*
Y412377D01*
X305450Y411327D02*X306500Y412377D01*
X311000Y413577D02*X311750Y414327D01*
X314000D01*
X314750Y413577D01*
Y412077D01*
X311000Y408327D02*X314750Y412077D01*
X311000Y408327D02*X314750D01*
X316550Y409077D02*X317300Y408327D01*
X316550Y413577D02*Y409077D01*
Y413577D02*X317300Y414327D01*
X318800D01*
X319550Y413577D01*
Y409077D01*
X318800Y408327D02*X319550Y409077D01*
X317300Y408327D02*X318800D01*
X316550Y409827D02*X319550Y412827D01*
X321350Y413127D02*X322550Y414327D01*
Y408327D01*
X321350D02*X323600D01*
X325400Y413577D02*X326150Y414327D01*
X327650D01*
X328400Y413577D01*
X327650Y408327D02*X328400Y409077D01*
X326150Y408327D02*X327650D01*
X325400Y409077D02*X326150Y408327D01*
Y411627D02*X327650D01*
X328400Y413577D02*Y412377D01*
Y410877D02*Y409077D01*
Y410877D02*X327650Y411627D01*
X328400Y412377D02*X327650Y411627D01*
X332900Y414327D02*Y409077D01*
X333650Y408327D01*
X335150D01*
X335900Y409077D01*
Y414327D02*Y409077D01*
X337700Y414327D02*X340700D01*
X339200D02*Y408327D01*
X343550D02*X345500D01*
X342500Y409377D02*X343550Y408327D01*
X342500Y413277D02*Y409377D01*
Y413277D02*X343550Y414327D01*
X345500D01*
X200000Y427827D02*Y423327D01*
Y427827D02*X201050Y429327D01*
X202700D01*
X203750Y427827D01*
Y423327D01*
X200000Y426327D02*X203750D01*
X205550D02*Y424077D01*
X206300Y423327D01*
X207800D01*
X208550Y424077D01*
Y426327D02*Y424077D01*
X211100Y429327D02*Y424077D01*
X211850Y423327D01*
X210350Y427077D02*X211850D01*
X213350Y429327D02*Y423327D01*
Y425577D02*X214100Y426327D01*
X215600D01*
X216350Y425577D01*
Y423327D01*
X218150Y425577D02*Y424077D01*
Y425577D02*X218900Y426327D01*
X220400D01*
X221150Y425577D01*
Y424077D01*
X220400Y423327D02*X221150Y424077D01*
X218900Y423327D02*X220400D01*
X218150Y424077D02*X218900Y423327D01*
X223700Y425577D02*Y423327D01*
Y425577D02*X224450Y426327D01*
X225950D01*
X222950D02*X223700Y425577D01*
X227750Y427077D02*X228500D01*
X227750Y425577D02*X228500D01*
X233000Y427827D02*Y423327D01*
Y427827D02*X234050Y429327D01*
X235700D01*
X236750Y427827D01*
Y423327D01*
X233000Y426327D02*X236750D01*
X238550Y429327D02*Y424077D01*
X239300Y423327D01*
X241550Y425577D02*Y421077D01*
X240800Y426327D02*X241550Y425577D01*
X242300Y426327D01*
X243800D01*
X244550Y425577D01*
Y424077D01*
X243800Y423327D02*X244550Y424077D01*
X242300Y423327D02*X243800D01*
X241550Y424077D02*X242300Y423327D01*
X252050Y429327D02*X252800Y428577D01*
X249800Y429327D02*X252050D01*
X249050Y428577D02*X249800Y429327D01*
X249050Y428577D02*Y427077D01*
X249800Y426327D01*
X252050D01*
X252800Y425577D01*
Y424077D01*
X252050Y423327D02*X252800Y424077D01*
X249800Y423327D02*X252050D01*
X249050Y424077D02*X249800Y423327D01*
X256850Y426327D02*X257600Y425577D01*
X255350Y426327D02*X256850D01*
X254600Y425577D02*X255350Y426327D01*
X254600Y425577D02*Y424077D01*
X255350Y423327D01*
X257600Y426327D02*Y424077D01*
X258350Y423327D01*
X255350D02*X256850D01*
X257600Y424077D01*
X260150Y426327D02*Y424077D01*
X260900Y423327D01*
X263150Y426327D02*Y421827D01*
X262400Y421077D02*X263150Y421827D01*
X260900Y421077D02*X262400D01*
X260150Y421827D02*X260900Y421077D01*
Y423327D02*X262400D01*
X263150Y424077D01*
G54D175*X264950Y427827D02*Y427677D01*
G54D174*Y425577D02*Y423327D01*
X267200Y425577D02*Y423327D01*
Y425577D02*X267950Y426327D01*
X268700D01*
X269450Y425577D01*
Y423327D01*
X266450Y426327D02*X267200Y425577D01*
X200000Y444327D02*X203000D01*
X201500D02*Y438327D01*
G54D175*X204800Y442827D02*Y442677D01*
G54D174*Y440577D02*Y438327D01*
X207050Y444327D02*Y439077D01*
X207800Y438327D01*
X206300Y442077D02*X207800D01*
X209300Y444327D02*Y439077D01*
X210050Y438327D01*
X212300D02*X214550D01*
X211550Y439077D02*X212300Y438327D01*
X211550Y440577D02*Y439077D01*
Y440577D02*X212300Y441327D01*
X213800D01*
X214550Y440577D01*
X211550Y439827D02*X214550D01*
Y440577D02*Y439827D01*
X216350Y442077D02*X217100D01*
X216350Y440577D02*X217100D01*
X221600Y441327D02*Y439077D01*
X222350Y438327D01*
X223850D01*
X224600Y439077D01*
Y441327D02*Y439077D01*
X226400Y444327D02*Y438327D01*
Y440577D02*X227150Y441327D01*
X228650D01*
X229400Y440577D01*
Y438327D01*
X231200Y441327D02*X234200Y438327D01*
X231200D02*X234200Y441327D01*
X236000Y443127D02*X237200Y444327D01*
Y438327D01*
X236000D02*X238250D01*
X240050D02*X243050D01*
X244850Y444327D02*Y438327D01*
Y439077D02*X245600Y438327D01*
X247100D01*
X247850Y439077D01*
Y440577D02*Y439077D01*
X247100Y441327D02*X247850Y440577D01*
X245600Y441327D02*X247100D01*
X244850Y440577D02*X245600Y441327D01*
X249650Y440577D02*Y439077D01*
Y440577D02*X250400Y441327D01*
X251900D01*
X252650Y440577D01*
Y439077D01*
X251900Y438327D02*X252650Y439077D01*
X250400Y438327D02*X251900D01*
X249650Y439077D02*X250400Y438327D01*
X256700Y441327D02*X257450Y440577D01*
X255200Y441327D02*X256700D01*
X254450Y440577D02*X255200Y441327D01*
X254450Y440577D02*Y439077D01*
X255200Y438327D01*
X257450Y441327D02*Y439077D01*
X258200Y438327D01*
X255200D02*X256700D01*
X257450Y439077D01*
X260750Y440577D02*Y438327D01*
Y440577D02*X261500Y441327D01*
X263000D01*
X260000D02*X260750Y440577D01*
X267800Y444327D02*Y438327D01*
X267050D02*X267800Y439077D01*
X265550Y438327D02*X267050D01*
X264800Y439077D02*X265550Y438327D01*
X264800Y440577D02*Y439077D01*
Y440577D02*X265550Y441327D01*
X267050D01*
X267800Y440577D01*
X272300Y441327D02*X275300D01*
X279800Y444327D02*Y438327D01*
Y444327D02*X282800D01*
X279800Y441627D02*X282050D01*
X286850Y441327D02*X287600Y440577D01*
X285350Y441327D02*X286850D01*
X284600Y440577D02*X285350Y441327D01*
X284600Y440577D02*Y439077D01*
X285350Y438327D01*
X287600Y441327D02*Y439077D01*
X288350Y438327D01*
X285350D02*X286850D01*
X287600Y439077D01*
X290150Y444327D02*Y438327D01*
Y439077D02*X290900Y438327D01*
X292400D01*
X293150Y439077D01*
Y440577D02*Y439077D01*
X292400Y441327D02*X293150Y440577D01*
X290900Y441327D02*X292400D01*
X290150Y440577D02*X290900Y441327D01*
X295700Y440577D02*Y438327D01*
Y440577D02*X296450Y441327D01*
X297950D01*
X294950D02*X295700Y440577D01*
G54D175*X299750Y442827D02*Y442677D01*
G54D174*Y440577D02*Y438327D01*
X302000Y441327D02*X304250D01*
X301250Y440577D02*X302000Y441327D01*
X301250Y440577D02*Y439077D01*
X302000Y438327D01*
X304250D01*
X308300Y441327D02*X309050Y440577D01*
X306800Y441327D02*X308300D01*
X306050Y440577D02*X306800Y441327D01*
X306050Y440577D02*Y439077D01*
X306800Y438327D01*
X309050Y441327D02*Y439077D01*
X309800Y438327D01*
X306800D02*X308300D01*
X309050Y439077D01*
X312350Y444327D02*Y439077D01*
X313100Y438327D01*
X311600Y442077D02*X313100D01*
G54D175*X314600Y442827D02*Y442677D01*
G54D174*Y440577D02*Y438327D01*
X316100Y440577D02*Y439077D01*
Y440577D02*X316850Y441327D01*
X318350D01*
X319100Y440577D01*
Y439077D01*
X318350Y438327D02*X319100Y439077D01*
X316850Y438327D02*X318350D01*
X316100Y439077D02*X316850Y438327D01*
X321650Y440577D02*Y438327D01*
Y440577D02*X322400Y441327D01*
X323150D01*
X323900Y440577D01*
Y438327D01*
X320900Y441327D02*X321650Y440577D01*
X329150Y444327D02*Y438327D01*
X331100Y444327D02*X332150Y443277D01*
Y439377D01*
X331100Y438327D02*X332150Y439377D01*
X328400Y438327D02*X331100D01*
X328400Y444327D02*X331100D01*
X334700Y440577D02*Y438327D01*
Y440577D02*X335450Y441327D01*
X336950D01*
X333950D02*X334700Y440577D01*
X341000Y441327D02*X341750Y440577D01*
X339500Y441327D02*X341000D01*
X338750Y440577D02*X339500Y441327D01*
X338750Y440577D02*Y439077D01*
X339500Y438327D01*
X341750Y441327D02*Y439077D01*
X342500Y438327D01*
X339500D02*X341000D01*
X341750Y439077D01*
X344300Y441327D02*Y439077D01*
X345050Y438327D01*
X345800D01*
X346550Y439077D01*
Y441327D02*Y439077D01*
X347300Y438327D01*
X348050D01*
X348800Y439077D01*
Y441327D02*Y439077D01*
G54D175*X350600Y442827D02*Y442677D01*
G54D174*Y440577D02*Y438327D01*
X352850Y440577D02*Y438327D01*
Y440577D02*X353600Y441327D01*
X354350D01*
X355100Y440577D01*
Y438327D01*
X352100Y441327D02*X352850Y440577D01*
X359150Y441327D02*X359900Y440577D01*
X357650Y441327D02*X359150D01*
X356900Y440577D02*X357650Y441327D01*
X356900Y440577D02*Y439077D01*
X357650Y438327D01*
X359150D01*
X359900Y439077D01*
X356900Y436827D02*X357650Y436077D01*
X359150D01*
X359900Y436827D01*
Y441327D02*Y436827D01*
M02*
