G04 start of page 5 for group 3 idx 3 *
G04 Title: uhx1_board, power *
G04 Creator: pcb 20110918 *
G04 CreationDate: Wed Nov 21 15:50:15 2012 UTC *
G04 For: alpsayin *
G04 Format: Gerber/RS-274X *
G04 PCB-Dimensions: 472441 385827 *
G04 PCB-Coordinate-Origin: lower left *
%MOIN*%
%FSLAX25Y25*%
%LNGROUP3*%
%ADD89C,0.0300*%
%ADD88C,0.0280*%
%ADD87C,0.0450*%
%ADD86C,0.0380*%
%ADD85C,0.0634*%
%ADD84C,0.0358*%
%ADD83C,0.0793*%
%ADD82C,0.0398*%
%ADD81C,0.0630*%
%ADD80C,0.0200*%
%ADD79C,0.0360*%
%ADD78C,0.0001*%
%ADD77C,0.0600*%
%ADD76C,0.0700*%
%ADD75C,0.0674*%
%ADD74C,0.0472*%
%ADD73C,0.0833*%
%ADD72C,0.0488*%
%ADD71C,0.1417*%
G54D71*X102278Y83664D03*
X112121Y44294D03*
X121964Y83664D03*
G54D72*X16299Y45465D03*
X43465Y45071D03*
G54D73*X42335Y104759D03*
G54D74*X62335Y114759D03*
Y124759D03*
G54D75*X18661Y55308D03*
G54D76*X17000Y88827D03*
Y78827D03*
G54D75*X42283Y55308D03*
G54D72*X50551Y63772D03*
G54D76*X141103Y214990D03*
X381103D03*
X141103Y204990D03*
X381103D03*
Y194990D03*
Y184990D03*
Y174990D03*
Y164990D03*
G54D72*X16299Y312372D03*
X43465Y311978D03*
G54D71*X149354Y280721D03*
G54D77*X29520Y275299D03*
Y285299D03*
Y295299D03*
G54D75*X18661Y322215D03*
G54D78*G36*
X87368Y323883D02*Y317883D01*
X93368D01*
Y323883D01*
X87368D01*
G37*
G54D77*X100368Y320883D03*
G54D71*X139511Y320091D03*
X159197D03*
G54D75*X42283Y322215D03*
G54D72*X50551Y330679D03*
G54D78*G36*
X323688Y304203D02*Y298203D01*
X329688D01*
Y304203D01*
X323688D01*
G37*
G36*
X288264D02*Y298203D01*
X294264D01*
Y304203D01*
X288264D01*
G37*
G36*
X243000D02*Y298203D01*
X249000D01*
Y304203D01*
X243000D01*
G37*
G36*
X193786D02*Y298203D01*
X199786D01*
Y304203D01*
X193786D01*
G37*
G36*
X26520Y177451D02*Y171451D01*
X32520D01*
Y177451D01*
X26520D01*
G37*
G54D77*X29520Y184451D03*
Y194451D03*
Y204451D03*
Y214451D03*
G54D76*X141103Y194990D03*
Y184990D03*
Y174990D03*
Y164990D03*
Y154990D03*
Y144990D03*
G54D73*X42335Y144759D03*
G54D78*G36*
X85560Y168411D02*Y162411D01*
X91560D01*
Y168411D01*
X85560D01*
G37*
G54D77*X88560Y155411D03*
G54D76*X67000Y178827D03*
Y188827D03*
G54D77*X29520Y224451D03*
X82656Y245939D03*
G54D76*X141103Y244990D03*
Y234990D03*
Y224990D03*
G54D78*G36*
X79656Y268939D02*Y262939D01*
X85656D01*
Y268939D01*
X79656D01*
G37*
G54D77*X82656Y255939D03*
G54D78*G36*
X26520Y248299D02*Y242299D01*
X32520D01*
Y248299D01*
X26520D01*
G37*
G54D77*X29520Y255299D03*
Y265299D03*
G54D76*X61000Y248827D03*
Y258827D03*
G54D79*X362112Y301203D03*
X391632D03*
G54D80*G54D81*G54D82*G54D83*G54D84*G54D85*G54D86*G54D85*G54D82*G54D87*G54D82*G54D81*G54D88*G54D85*G54D89*G54D81*G54D85*G54D82*G54D88*G54D87*G54D83*G54D89*G54D86*G54D88*G54D87*G54D88*G54D86*M02*
